<?xml version="1.0" encoding="UTF-8" standalone="no"?>
<!-- Created with Inkscape (http://www.inkscape.org/) -->

<svg
   width="156.33252mm"
   height="74.471313mm"
   viewBox="0 0 156.33252 74.471313"
   version="1.1"
   id="svg1"
   inkscape:version="1.3.2 (091e20e, 2023-11-25)"
   sodipodi:docname="configuracio-narrativa.svg"
   xmlns:inkscape="http://www.inkscape.org/namespaces/inkscape"
   xmlns:sodipodi="http://sodipodi.sourceforge.net/DTD/sodipodi-0.dtd"
   xmlns="http://www.w3.org/2000/svg"
   xmlns:svg="http://www.w3.org/2000/svg">
  <sodipodi:namedview
     id="namedview1"
     pagecolor="#ffffff"
     bordercolor="#666666"
     borderopacity="1.0"
     inkscape:showpageshadow="2"
     inkscape:pageopacity="0.0"
     inkscape:pagecheckerboard="0"
     inkscape:deskcolor="#d1d1d1"
     inkscape:document-units="mm"
     showgrid="true"
     inkscape:zoom="0.72782688"
     inkscape:cx="300.20875"
     inkscape:cy="290.59108"
     inkscape:window-width="1600"
     inkscape:window-height="942"
     inkscape:window-x="297"
     inkscape:window-y="25"
     inkscape:window-maximized="0"
     inkscape:current-layer="layer1">
    <inkscape:grid
       id="grid2"
       units="px"
       originx="-33.263257"
       originy="-43.874078"
       spacingx="0.26458333"
       spacingy="0.26458334"
       empcolor="#0099e5"
       empopacity="0.30196078"
       color="#0099e5"
       opacity="0.14901961"
       empspacing="5"
       dotted="false"
       gridanglex="30"
       gridanglez="30"
       visible="true" />
  </sodipodi:namedview>
  <defs
     id="defs1">
    <marker
       style="overflow:visible"
       id="marker6"
       refX="0"
       refY="0"
       orient="auto-start-reverse"
       inkscape:stockid="Triangle arrow"
       markerWidth="1"
       markerHeight="1"
       viewBox="0 0 1 1"
       inkscape:isstock="true"
       inkscape:collect="always"
       preserveAspectRatio="xMidYMid">
      <path
         transform="scale(0.5)"
         style="fill:context-stroke;fill-rule:evenodd;stroke:context-stroke;stroke-width:1pt"
         d="M 5.77,0 -2.88,5 V -5 Z"
         id="path6" />
    </marker>
    <marker
       style="overflow:visible"
       id="marker5"
       refX="0"
       refY="0"
       orient="auto-start-reverse"
       inkscape:stockid="Triangle arrow"
       markerWidth="1"
       markerHeight="1"
       viewBox="0 0 1 1"
       inkscape:isstock="true"
       inkscape:collect="always"
       preserveAspectRatio="xMidYMid">
      <path
         transform="scale(0.5)"
         style="fill:context-stroke;fill-rule:evenodd;stroke:context-stroke;stroke-width:1pt"
         d="M 5.77,0 -2.88,5 V -5 Z"
         id="path5" />
    </marker>
    <marker
       style="overflow:visible"
       id="marker4"
       refX="0"
       refY="0"
       orient="auto-start-reverse"
       inkscape:stockid="Triangle arrow"
       markerWidth="1"
       markerHeight="1"
       viewBox="0 0 1 1"
       inkscape:isstock="true"
       inkscape:collect="always"
       preserveAspectRatio="xMidYMid">
      <path
         transform="scale(0.5)"
         style="fill:context-stroke;fill-rule:evenodd;stroke:context-stroke;stroke-width:1pt"
         d="M 5.77,0 -2.88,5 V -5 Z"
         id="path4" />
    </marker>
    <marker
       style="overflow:visible"
       id="Triangle"
       refX="0"
       refY="0"
       orient="auto-start-reverse"
       inkscape:stockid="Triangle arrow"
       markerWidth="1"
       markerHeight="1"
       viewBox="0 0 1 1"
       inkscape:isstock="true"
       inkscape:collect="always"
       preserveAspectRatio="xMidYMid">
      <path
         transform="scale(0.5)"
         style="fill:context-stroke;fill-rule:evenodd;stroke:context-stroke;stroke-width:1pt"
         d="M 5.77,0 -2.88,5 V -5 Z"
         id="path135" />
    </marker>
    <rect
       x="70.071609"
       y="392.95059"
       width="215.71065"
       height="89.306953"
       id="rect2" />
    <rect
       x="70.071609"
       y="392.95059"
       width="215.71065"
       height="89.306953"
       id="rect2-3" />
    <rect
       x="70.071609"
       y="392.95059"
       width="215.71065"
       height="89.306953"
       id="rect2-3-4" />
    <rect
       x="70.071609"
       y="392.95059"
       width="215.71065"
       height="89.306953"
       id="rect2-3-5" />
    <rect
       x="70.071609"
       y="392.95059"
       width="215.71065"
       height="89.306953"
       id="rect10" />
    <rect
       x="70.071609"
       y="392.95059"
       width="215.71065"
       height="89.306953"
       id="rect11" />
    <rect
       x="70.071609"
       y="392.95059"
       width="215.71065"
       height="89.306953"
       id="rect12" />
    <rect
       x="70.071609"
       y="392.95059"
       width="215.71065"
       height="89.306953"
       id="rect13" />
  </defs>
  <g
     inkscape:label="Capa 1"
     inkscape:groupmode="layer"
     id="layer1"
     transform="translate(-33.263256,-43.874077)">
    <text
       xml:space="preserve"
       transform="matrix(0.26458333,0,0,0.26458333,10.905753,-30.899633)"
       id="text2"
       style="font-style:normal;font-variant:normal;font-weight:normal;font-stretch:normal;font-size:21.3333px;line-height:1.25;font-family:Arial;-inkscape-font-specification:Arial;text-align:center;white-space:pre;shape-inside:url(#rect2)"
       x="93.718605"
       y="0"><tspan
         x="108.56847"
         y="412.16724"
         id="tspan1">Deslegitimació </tspan><tspan
         x="83.094551"
         y="438.83386"
         id="tspan2">mesures restrictives</tspan></text>
    <text
       xml:space="preserve"
       transform="matrix(0.26458333,0,0,0.26458333,64.62961,-61.116053)"
       id="text2-4"
       style="font-style:normal;font-variant:normal;font-weight:normal;font-stretch:normal;font-size:21.3333px;line-height:1.25;font-family:Arial;-inkscape-font-specification:Arial;text-align:center;white-space:pre;shape-inside:url(#rect2-3)"
       x="73.171761"
       y="0"><tspan
         x="103.8341"
         y="412.16724"
         id="tspan3">Delicte simbòlic</tspan></text>
    <text
       xml:space="preserve"
       transform="matrix(0.26458333,0,0,0.26458333,64.289086,9.2266626)"
       id="text2-4-5"
       style="font-style:normal;font-variant:normal;font-weight:normal;font-stretch:normal;font-size:21.3333px;line-height:1.25;font-family:Arial;-inkscape-font-specification:Arial;text-align:center;white-space:pre;shape-inside:url(#rect2-3-5)"
       x="73.171761"
       y="0"><tspan
         x="116.27679"
         y="412.16724"
         id="tspan4">Delicte comú</tspan></text>
    <text
       xml:space="preserve"
       transform="matrix(0.26458333,0,0,0.26458333,116.63817,-30.480005)"
       id="text2-4-6"
       style="font-style:normal;font-variant:normal;font-weight:normal;font-stretch:normal;font-size:21.3333px;line-height:1.25;font-family:Arial;-inkscape-font-specification:Arial;text-align:center;white-space:pre;shape-inside:url(#rect2-3-4)"
       x="97.124847"
       y="0"><tspan
         x="80.110181"
         y="412.16724"
         id="tspan5">Legitimació mesures </tspan><tspan
         x="126.95906"
         y="438.83386"
         id="tspan6">restrictives</tspan></text>
    <path
       style="display:inline;fill:none;fill-rule:evenodd;stroke:#000000;stroke-width:0.265;stroke-linecap:butt;stroke-linejoin:miter;stroke-dasharray:none;stroke-opacity:1;marker-start:url(#marker4);marker-end:url(#Triangle)"
       d="M 112.32925,51.257038 111.96573,113.0563"
       id="path2"
       inkscape:connector-type="polyline"
       inkscape:connector-curvature="0" />
    <path
       style="fill:none;fill-rule:evenodd;stroke:#000000;stroke-width:0.264583px;stroke-linecap:butt;stroke-linejoin:miter;stroke-opacity:1;marker-start:url(#marker6);marker-end:url(#marker5)"
       d="m 85.064871,79.24847 50.166459,0.363524"
       id="path3"
       inkscape:connector-type="polyline"
       inkscape:connector-curvature="0" />
    <g
       id="text6"
       style="font-size:21.3333px;line-height:1.25;font-family:Arial;-inkscape-font-specification:Arial;text-align:center;white-space:pre"
       transform="matrix(0.26458333,0,0,0.26458333,10.905753,-30.899633)"
       aria-label="Deslegitimació mesures restrictives">
      <path
         d="m 110.2143,412.16724 v -15.27081 h 5.26041 q 1.78125,0 2.71874,0.21875 1.3125,0.30208 2.23958,1.09374 1.20833,1.02084 1.80208,2.61458 0.60417,1.58333 0.60417,3.625 0,1.73958 -0.40625,3.08333 -0.40625,1.34374 -1.04166,2.22916 -0.63542,0.875 -1.39584,1.38541 -0.74999,0.5 -1.82291,0.76042 -1.0625,0.26042 -2.44791,0.26042 z m 2.02083,-1.80208 h 3.26041 q 1.51042,0 2.36458,-0.28125 0.86458,-0.28125 1.375,-0.79167 0.71875,-0.71875 1.11458,-1.92708 0.40625,-1.21875 0.40625,-2.94791 0,-2.39583 -0.79167,-3.67708 -0.78124,-1.29166 -1.90624,-1.72916 -0.8125,-0.3125 -2.61458,-0.3125 h -3.20833 z m 20.71872,-1.76042 1.93749,0.23958 q -0.45833,1.69792 -1.69791,2.63542 -1.23958,0.9375 -3.16666,0.9375 -2.42708,0 -3.85416,-1.48959 -1.41667,-1.49999 -1.41667,-4.19791 0,-2.79166 1.4375,-4.33332 1.4375,-1.54167 3.72916,-1.54167 2.21875,0 3.625,1.51042 1.40624,1.51041 1.40624,4.24999 0,0.16667 -0.0104,0.5 h -8.24999 q 0.10417,1.82291 1.03125,2.79166 0.92708,0.96875 2.31249,0.96875 1.03125,0 1.76042,-0.54166 0.72916,-0.54167 1.15625,-1.72917 z m -6.15624,-3.03124 h 6.17707 q -0.125,-1.39583 -0.70833,-2.09375 -0.89583,-1.08333 -2.32292,-1.08333 -1.29166,0 -2.17708,0.86458 -0.87499,0.86458 -0.96874,2.3125 z m 9.6979,3.29166 1.85416,-0.29167 q 0.15625,1.11458 0.86458,1.70833 0.71875,0.59375 2,0.59375 1.29167,0 1.91666,-0.52083 0.625,-0.53125 0.625,-1.23958 0,-0.63542 -0.55208,-1 -0.38542,-0.25 -1.91666,-0.63542 -2.0625,-0.52083 -2.86458,-0.89583 -0.79167,-0.38541 -1.20833,-1.05208 -0.40625,-0.67708 -0.40625,-1.48958 0,-0.73958 0.33333,-1.36458 0.34375,-0.63542 0.92708,-1.05208 0.4375,-0.32292 1.1875,-0.54167 0.76042,-0.22917 1.625,-0.22917 1.30208,0 2.28124,0.375 0.98959,0.375 1.45834,1.02083 0.46874,0.63542 0.64583,1.70834 l -1.83333,0.25 q -0.125,-0.85417 -0.72917,-1.33334 -0.59375,-0.47916 -1.6875,-0.47916 -1.29166,0 -1.84374,0.42708 -0.55209,0.42708 -0.55209,1 0,0.36458 0.22917,0.65625 0.22917,0.30208 0.71875,0.5 0.28125,0.10416 1.65625,0.47916 1.98958,0.53125 2.77083,0.875 0.79166,0.33333 1.23958,0.97917 0.44791,0.64583 0.44791,1.60416 0,0.9375 -0.55208,1.77083 -0.54166,0.82292 -1.57291,1.28125 -1.03125,0.44792 -2.33333,0.44792 -2.15625,0 -3.29166,-0.89584 -1.125,-0.89583 -1.4375,-2.65624 z m 11.37498,3.30208 v -15.27081 h 1.875 v 15.27081 z m 12.35415,-3.5625 1.9375,0.23958 q -0.45834,1.69792 -1.69792,2.63542 -1.23958,0.9375 -3.16666,0.9375 -2.42708,0 -3.85416,-1.48959 -1.41667,-1.49999 -1.41667,-4.19791 0,-2.79166 1.4375,-4.33332 1.4375,-1.54167 3.72916,-1.54167 2.21875,0 3.625,1.51042 1.40625,1.51041 1.40625,4.24999 0,0.16667 -0.0104,0.5 h -8.24999 q 0.10417,1.82291 1.03125,2.79166 0.92708,0.96875 2.3125,0.96875 1.03124,0 1.76041,-0.54166 0.72917,-0.54167 1.15625,-1.72917 z m -6.15624,-3.03124 h 6.17707 q -0.125,-1.39583 -0.70833,-2.09375 -0.89583,-1.08333 -2.32291,-1.08333 -1.29167,0 -2.17708,0.86458 -0.875,0.86458 -0.96875,2.3125 z m 10.10415,7.5104 1.82291,0.27083 q 0.11458,0.84375 0.63542,1.22917 0.69791,0.52083 1.90624,0.52083 1.30209,0 2.01042,-0.52083 0.70833,-0.52083 0.95833,-1.45833 0.14583,-0.57292 0.13542,-2.40625 -1.22917,1.44792 -3.0625,1.44792 -2.28125,0 -3.53124,-1.64583 -1.25,-1.64584 -1.25,-3.94792 0,-1.58333 0.57291,-2.91666 0.57292,-1.34375 1.65625,-2.07291 1.09375,-0.72917 2.5625,-0.72917 1.95833,0 3.22916,1.58333 v -1.33333 h 1.72916 v 9.56249 q 0,2.58333 -0.53125,3.65624 -0.52083,1.08333 -1.66666,1.70833 -1.13542,0.625 -2.80208,0.625 -1.97916,0 -3.19791,-0.89583 -1.21875,-0.88542 -1.17708,-2.67708 z m 1.55208,-6.64582 q 0,2.17708 0.86458,3.17708 0.86458,0.99999 2.16666,0.99999 1.29167,0 2.16667,-0.98958 0.875,-1 0.875,-3.12499 0,-2.03125 -0.90625,-3.0625 -0.89584,-1.03125 -2.16667,-1.03125 -1.24999,0 -2.12499,1.02084 -0.875,1.01041 -0.875,3.01041 z m 10.66665,-7.38541 v -2.15624 h 1.87499 v 2.15624 z m 0,13.11457 v -11.06249 h 1.87499 v 11.06249 z m 8.8229,-1.67708 0.27083,1.65624 q -0.79166,0.16667 -1.41666,0.16667 -1.02083,0 -1.58333,-0.32292 -0.5625,-0.32291 -0.79167,-0.84375 -0.22916,-0.53125 -0.22916,-2.21874 v -6.36458 h -1.375 v -1.45833 h 1.375 v -2.73958 l 1.86458,-1.12499 v 3.86457 h 1.88541 v 1.45833 h -1.88541 v 6.46874 q 0,0.80209 0.0937,1.03125 0.10416,0.22917 0.32291,0.36459 0.22917,0.13541 0.64584,0.13541 0.3125,0 0.82291,-0.0729 z m 1.84375,-11.43749 v -2.15624 h 1.87499 v 2.15624 z m 0,13.11457 v -11.06249 h 1.87499 v 11.06249 z m 4.72916,0 v -11.06249 h 1.67708 v 1.55208 q 0.52083,-0.81249 1.38541,-1.30208 0.86458,-0.5 1.96875,-0.5 1.22916,0 2.01041,0.51042 0.79167,0.51042 1.11458,1.42708 1.3125,-1.9375 3.41667,-1.9375 1.64583,0 2.53124,0.91667 0.88542,0.90625 0.88542,2.80208 v 7.59374 h -1.86458 v -6.96874 q 0,-1.125 -0.1875,-1.61458 -0.17709,-0.5 -0.65625,-0.80209 -0.47917,-0.30208 -1.125,-0.30208 -1.16667,0 -1.9375,0.78125 -0.77083,0.77083 -0.77083,2.47916 v 6.42708 h -1.875 v -7.18749 q 0,-1.25 -0.45833,-1.875 -0.45833,-0.625 -1.5,-0.625 -0.79166,0 -1.46874,0.41667 -0.66667,0.41666 -0.96875,1.21875 -0.30209,0.80208 -0.30209,2.31249 v 5.73958 z m 24.98954,-1.36459 q -1.04166,0.88542 -2.01041,1.25 -0.95833,0.36459 -2.0625,0.36459 -1.82291,0 -2.80208,-0.88542 -0.97916,-0.89583 -0.97916,-2.28125 0,-0.81249 0.36458,-1.47916 0.375,-0.67708 0.96875,-1.08333 0.60416,-0.40625 1.35416,-0.61458 0.55208,-0.14584 1.66667,-0.28125 2.27083,-0.27084 3.34374,-0.64584 0.0104,-0.38541 0.0104,-0.48958 0,-1.14583 -0.53125,-1.61458 -0.71875,-0.63542 -2.13541,-0.63542 -1.32292,0 -1.95833,0.46875 -0.625,0.45834 -0.92709,1.63542 l -1.83333,-0.25 q 0.25,-1.17708 0.82292,-1.89583 0.57291,-0.72917 1.65625,-1.11458 1.08333,-0.39584 2.51041,-0.39584 1.41666,0 2.30208,0.33334 0.88541,0.33333 1.30208,0.84375 0.41667,0.49999 0.58333,1.27083 0.0937,0.47916 0.0937,1.72916 v 2.5 q 0,2.61458 0.11458,3.31249 0.125,0.6875 0.47917,1.32292 h -1.95833 q -0.29167,-0.58334 -0.375,-1.36459 z m -0.15625,-4.18749 q -1.02083,0.41667 -3.06249,0.70833 -1.15625,0.16667 -1.63542,0.375 -0.47916,0.20834 -0.73958,0.61459 -0.26042,0.39583 -0.26042,0.88541 0,0.75 0.5625,1.25 0.57292,0.5 1.66667,0.5 1.08333,0 1.92708,-0.46875 0.84375,-0.47917 1.23958,-1.30208 0.30208,-0.63542 0.30208,-1.875 z m 12.02081,1.5 1.84375,0.23958 q -0.30208,1.90625 -1.55208,2.98958 -1.23958,1.07292 -3.05208,1.07292 -2.27083,0 -3.65624,-1.47917 -1.375,-1.48958 -1.375,-4.26041 0,-1.79166 0.59375,-3.13541 0.59375,-1.34375 1.80208,-2.01041 1.21875,-0.67709 2.64583,-0.67709 1.80208,0 2.94791,0.91667 1.14583,0.90625 1.46875,2.58333 l -1.82292,0.28125 q -0.26041,-1.11458 -0.92708,-1.67708 -0.65625,-0.5625 -1.59375,-0.5625 -1.41666,0 -2.30207,1.02083 -0.88542,1.01041 -0.88542,3.20833 0,2.22916 0.85417,3.23958 0.85416,1.01041 2.22916,1.01041 1.10416,0 1.84375,-0.67708 0.73958,-0.67708 0.93749,-2.08333 z m 3.45834,-9.06249 v -2.15624 h 1.875 v 2.15624 z m 0,13.11457 v -11.06249 h 1.875 v 11.06249 z m 4.03124,-5.53125 q 0,-3.07291 1.70833,-4.55207 1.42708,-1.22917 3.47916,-1.22917 2.28125,0 3.72916,1.5 1.44791,1.48958 1.44791,4.12499 0,2.13542 -0.64583,3.36458 -0.63541,1.21875 -1.86458,1.89583 -1.21875,0.67709 -2.66666,0.67709 -2.32291,0 -3.76041,-1.48959 -1.42708,-1.48958 -1.42708,-4.29166 z m 1.92708,0 q 0,2.125 0.92708,3.1875 0.92708,1.05208 2.33333,1.05208 1.39583,0 2.32291,-1.0625 0.92708,-1.0625 0.92708,-3.23958 0,-2.05208 -0.93749,-3.10416 -0.92709,-1.0625 -2.3125,-1.0625 -1.40625,0 -2.33333,1.05209 -0.92708,1.05208 -0.92708,3.17707 z m 2.21874,-6.90623 1.38542,-2.91667 h 2.45833 l -2.29167,2.91667 z"
         id="path1" />
      <path
         d="m 84.500799,438.83386 v -11.06248 h 1.67708 v 1.55208 q 0.520833,-0.8125 1.385415,-1.30208 0.864582,-0.5 1.968747,-0.5 1.229164,0 2.010413,0.51042 0.791666,0.51041 1.114582,1.42708 1.312498,-1.9375 3.416661,-1.9375 1.645831,0 2.531246,0.91666 0.885415,0.90625 0.885415,2.80208 v 7.59374 h -1.86458 v -6.96874 q 0,-1.125 -0.1875,-1.61458 -0.177083,-0.5 -0.656249,-0.80208 -0.479166,-0.30208 -1.124998,-0.30208 -1.166665,0 -1.937497,0.78125 -0.770832,0.77083 -0.770832,2.47916 v 6.42707 h -1.874997 v -7.18749 q 0,-1.24999 -0.458333,-1.87499 -0.458332,-0.625 -1.499997,-0.625 -0.791666,0 -1.468748,0.41666 -0.666666,0.41667 -0.968748,1.21875 -0.302083,0.80208 -0.302083,2.3125 v 5.73957 z m 25.343711,-3.56249 1.9375,0.23958 q -0.45834,1.69791 -1.69792,2.63541 -1.23958,0.9375 -3.16666,0.9375 -2.42708,0 -3.85416,-1.48958 -1.41667,-1.5 -1.41667,-4.19791 0,-2.79166 1.4375,-4.33333 1.4375,-1.54166 3.72916,-1.54166 2.21875,0 3.625,1.51041 1.40625,1.51042 1.40625,4.25 0,0.16666 -0.0104,0.5 h -8.24999 q 0.10417,1.82291 1.03125,2.79166 0.92708,0.96875 2.3125,0.96875 1.03124,0 1.76041,-0.54167 0.72917,-0.54166 1.15625,-1.72916 z m -6.15624,-3.03125 h 6.17707 q -0.125,-1.39583 -0.70833,-2.09374 -0.89583,-1.08334 -2.32291,-1.08334 -1.29167,0 -2.17708,0.86459 -0.875,0.86458 -0.96875,2.31249 z m 9.6979,3.29166 1.85416,-0.29166 q 0.15625,1.11458 0.86459,1.70833 0.71874,0.59375 1.99999,0.59375 1.29167,0 1.91667,-0.52084 0.625,-0.53124 0.625,-1.23958 0,-0.63541 -0.55209,-1 -0.38541,-0.24999 -1.91666,-0.63541 -2.0625,-0.52083 -2.86458,-0.89583 -0.79167,-0.38542 -1.20833,-1.05208 -0.40625,-0.67709 -0.40625,-1.48959 0,-0.73958 0.33333,-1.36458 0.34375,-0.63541 0.92708,-1.05208 0.4375,-0.32291 1.1875,-0.54166 0.76042,-0.22917 1.625,-0.22917 1.30208,0 2.28125,0.375 0.98958,0.375 1.45833,1.02083 0.46875,0.63542 0.64583,1.70833 l -1.83333,0.25 q -0.125,-0.85416 -0.72917,-1.33333 -0.59375,-0.47917 -1.68749,-0.47917 -1.29167,0 -1.84375,0.42709 -0.55208,0.42708 -0.55208,1 0,0.36458 0.22916,0.65624 0.22917,0.30209 0.71875,0.5 0.28125,0.10417 1.65625,0.47917 1.98958,0.53125 2.77083,0.875 0.79166,0.33333 1.23958,0.97916 0.44792,0.64584 0.44792,1.60417 0,0.9375 -0.55209,1.77083 -0.54166,0.82291 -1.57291,1.28125 -1.03125,0.44791 -2.33333,0.44791 -2.15625,0 -3.29166,-0.89583 -1.125,-0.89583 -1.4375,-2.65625 z m 18.66664,3.30208 v -1.625 q -1.29167,1.875 -3.51041,1.875 -0.97917,0 -1.83333,-0.375 -0.84375,-0.375 -1.26042,-0.9375 -0.40625,-0.57291 -0.57291,-1.39583 -0.11459,-0.55208 -0.11459,-1.74999 v -6.85416 h 1.875 v 6.13541 q 0,1.46874 0.11458,1.97916 0.17709,0.73958 0.75,1.16666 0.57292,0.41667 1.41667,0.41667 0.84375,0 1.58333,-0.42708 0.73958,-0.4375 1.04166,-1.17708 0.3125,-0.75 0.3125,-2.16667 v -5.92707 h 1.875 v 11.06248 z m 4.59374,0 v -11.06248 h 1.6875 v 1.67708 q 0.64583,-1.17708 1.18749,-1.55208 0.55209,-0.375 1.20834,-0.375 0.94791,0 1.92708,0.60417 l -0.64584,1.73958 q -0.68749,-0.40625 -1.37499,-0.40625 -0.61459,0 -1.10417,0.375 -0.48958,0.36458 -0.69791,1.02083 -0.3125,1 -0.3125,2.18749 v 5.79166 z m 14.69789,-3.56249 1.9375,0.23958 q -0.45833,1.69791 -1.69791,2.63541 -1.23958,0.9375 -3.16666,0.9375 -2.42708,0 -3.85417,-1.48958 -1.41666,-1.5 -1.41666,-4.19791 0,-2.79166 1.4375,-4.33333 1.4375,-1.54166 3.72916,-1.54166 2.21875,0 3.62499,1.51041 1.40625,1.51042 1.40625,4.25 0,0.16666 -0.0104,0.5 h -8.24998 q 0.10416,1.82291 1.03125,2.79166 0.92708,0.96875 2.31249,0.96875 1.03125,0 1.76042,-0.54167 0.72916,-0.54166 1.15624,-1.72916 z m -6.15624,-3.03125 h 6.17708 q -0.125,-1.39583 -0.70834,-2.09374 -0.89583,-1.08334 -2.32291,-1.08334 -1.29166,0 -2.17708,0.86459 -0.875,0.86458 -0.96875,2.31249 z m 9.69791,3.29166 1.85416,-0.29166 q 0.15625,1.11458 0.86458,1.70833 0.71875,0.59375 2,0.59375 1.29166,0 1.91666,-0.52084 0.625,-0.53124 0.625,-1.23958 0,-0.63541 -0.55208,-1 -0.38542,-0.24999 -1.91666,-0.63541 -2.0625,-0.52083 -2.86458,-0.89583 -0.79167,-0.38542 -1.20833,-1.05208 -0.40625,-0.67709 -0.40625,-1.48959 0,-0.73958 0.33333,-1.36458 0.34375,-0.63541 0.92708,-1.05208 0.4375,-0.32291 1.1875,-0.54166 0.76041,-0.22917 1.625,-0.22917 1.30208,0 2.28124,0.375 0.98959,0.375 1.45833,1.02083 0.46875,0.63542 0.64584,1.70833 l -1.83333,0.25 q -0.125,-0.85416 -0.72917,-1.33333 -0.59375,-0.47917 -1.6875,-0.47917 -1.29166,0 -1.84374,0.42709 -0.55209,0.42708 -0.55209,1 0,0.36458 0.22917,0.65624 0.22917,0.30209 0.71875,0.5 0.28125,0.10417 1.65625,0.47917 1.98958,0.53125 2.77083,0.875 0.79166,0.33333 1.23958,0.97916 0.44791,0.64584 0.44791,1.60417 0,0.9375 -0.55208,1.77083 -0.54167,0.82291 -1.57291,1.28125 -1.03125,0.44791 -2.33333,0.44791 -2.15625,0 -3.29167,-0.89583 -1.12499,-0.89583 -1.43749,-2.65625 z m 17.32288,3.30208 v -11.06248 h 1.6875 v 1.67708 q 0.64583,-1.17708 1.1875,-1.55208 0.55208,-0.375 1.20833,-0.375 0.94791,0 1.92708,0.60417 l -0.64583,1.73958 q -0.6875,-0.40625 -1.375,-0.40625 -0.61458,0 -1.10417,0.375 -0.48958,0.36458 -0.69791,1.02083 -0.3125,1 -0.3125,2.18749 v 5.79166 z m 14.6979,-3.56249 1.93749,0.23958 q -0.45833,1.69791 -1.69791,2.63541 -1.23958,0.9375 -3.16666,0.9375 -2.42708,0 -3.85416,-1.48958 -1.41667,-1.5 -1.41667,-4.19791 0,-2.79166 1.4375,-4.33333 1.4375,-1.54166 3.72916,-1.54166 2.21875,0 3.625,1.51041 1.40624,1.51042 1.40624,4.25 0,0.16666 -0.0104,0.5 h -8.24999 q 0.10417,1.82291 1.03125,2.79166 0.92708,0.96875 2.31249,0.96875 1.03125,0 1.76042,-0.54167 0.72916,-0.54166 1.15625,-1.72916 z m -6.15624,-3.03125 h 6.17707 q -0.125,-1.39583 -0.70833,-2.09374 -0.89583,-1.08334 -2.32292,-1.08334 -1.29166,0 -2.17708,0.86459 -0.87499,0.86458 -0.96874,2.31249 z m 9.6979,3.29166 1.85416,-0.29166 q 0.15625,1.11458 0.86458,1.70833 0.71875,0.59375 2,0.59375 1.29166,0 1.91666,-0.52084 0.625,-0.53124 0.625,-1.23958 0,-0.63541 -0.55208,-1 -0.38542,-0.24999 -1.91666,-0.63541 -2.0625,-0.52083 -2.86458,-0.89583 -0.79167,-0.38542 -1.20834,-1.05208 -0.40624,-0.67709 -0.40624,-1.48959 0,-0.73958 0.33333,-1.36458 0.34375,-0.63541 0.92708,-1.05208 0.4375,-0.32291 1.1875,-0.54166 0.76041,-0.22917 1.625,-0.22917 1.30208,0 2.28124,0.375 0.98958,0.375 1.45833,1.02083 0.46875,0.63542 0.64584,1.70833 l -1.83333,0.25 q -0.125,-0.85416 -0.72917,-1.33333 -0.59375,-0.47917 -1.6875,-0.47917 -1.29166,0 -1.84374,0.42709 -0.55209,0.42708 -0.55209,1 0,0.36458 0.22917,0.65624 0.22917,0.30209 0.71875,0.5 0.28125,0.10417 1.65625,0.47917 1.98958,0.53125 2.77082,0.875 0.79167,0.33333 1.23959,0.97916 0.44791,0.64584 0.44791,1.60417 0,0.9375 -0.55208,1.77083 -0.54167,0.82291 -1.57292,1.28125 -1.03124,0.44791 -2.33332,0.44791 -2.15625,0 -3.29167,-0.89583 -1.12499,-0.89583 -1.43749,-2.65625 z m 15.51039,1.625 0.27084,1.65625 q -0.79167,0.16666 -1.41667,0.16666 -1.02083,0 -1.58333,-0.32291 -0.5625,-0.32292 -0.79166,-0.84375 -0.22917,-0.53125 -0.22917,-2.21875 v -6.36457 h -1.375 v -1.45833 h 1.375 v -2.73958 l 1.86458,-1.125 v 3.86458 h 1.88541 v 1.45833 h -1.88541 v 6.46874 q 0,0.80208 0.0937,1.03125 0.10417,0.22916 0.32292,0.36458 0.22916,0.13542 0.64583,0.13542 0.3125,0 0.82291,-0.0729 z m 1.8125,1.67708 v -11.06248 h 1.6875 v 1.67708 q 0.64583,-1.17708 1.18749,-1.55208 0.55209,-0.375 1.20834,-0.375 0.94791,0 1.92708,0.60417 l -0.64584,1.73958 q -0.6875,-0.40625 -1.37499,-0.40625 -0.61459,0 -1.10417,0.375 -0.48958,0.36458 -0.69791,1.02083 -0.3125,1 -0.3125,2.18749 v 5.79166 z m 7.13541,-13.11456 v -2.15625 h 1.87499 v 2.15625 z m 0,13.11456 v -11.06248 h 1.87499 v 11.06248 z m 11.9479,-4.05208 1.84374,0.23959 q -0.30208,1.90624 -1.55208,2.98958 -1.23958,1.07291 -3.05208,1.07291 -2.27083,0 -3.65624,-1.47916 -1.375,-1.48958 -1.375,-4.26041 0,-1.79167 0.59375,-3.13541 0.59375,-1.34375 1.80208,-2.01042 1.21875,-0.67708 2.64583,-0.67708 1.80208,0 2.94791,0.91666 1.14583,0.90625 1.46875,2.58333 l -1.82291,0.28125 q -0.26042,-1.11458 -0.92709,-1.67708 -0.65625,-0.5625 -1.59374,-0.5625 -1.41667,0 -2.30208,1.02084 -0.88542,1.01041 -0.88542,3.20832 0,2.22917 0.85417,3.23958 0.85416,1.01042 2.22916,1.01042 1.10416,0 1.84375,-0.67709 0.73958,-0.67708 0.9375,-2.08333 z m 7.54164,2.375 0.27083,1.65625 q -0.79166,0.16666 -1.41666,0.16666 -1.02083,0 -1.58333,-0.32291 -0.5625,-0.32292 -0.79167,-0.84375 -0.22916,-0.53125 -0.22916,-2.21875 v -6.36457 h -1.375 v -1.45833 h 1.375 v -2.73958 l 1.86458,-1.125 v 3.86458 h 1.88541 v 1.45833 h -1.88541 v 6.46874 q 0,0.80208 0.0937,1.03125 0.10416,0.22916 0.32291,0.36458 0.22917,0.13542 0.64584,0.13542 0.3125,0 0.82291,-0.0729 z m 1.84375,-11.43748 v -2.15625 h 1.875 v 2.15625 z m 0,13.11456 v -11.06248 h 1.875 v 11.06248 z m 7.80208,0 -4.20833,-11.06248 h 1.97916 l 2.375,6.62499 q 0.38542,1.07291 0.70833,2.22916 0.25,-0.875 0.69792,-2.10416 l 2.45833,-6.74999 h 1.92708 l -4.1875,11.06248 z m 15.16663,-3.56249 1.9375,0.23958 q -0.45834,1.69791 -1.69792,2.63541 -1.23958,0.9375 -3.16666,0.9375 -2.42708,0 -3.85416,-1.48958 -1.41666,-1.5 -1.41666,-4.19791 0,-2.79166 1.43749,-4.33333 1.4375,-1.54166 3.72917,-1.54166 2.21874,0 3.62499,1.51041 1.40625,1.51042 1.40625,4.25 0,0.16666 -0.0104,0.5 h -8.24999 q 0.10417,1.82291 1.03125,2.79166 0.92708,0.96875 2.3125,0.96875 1.03125,0 1.76041,-0.54167 0.72917,-0.54166 1.15625,-1.72916 z m -6.15624,-3.03125 h 6.17707 q -0.125,-1.39583 -0.70833,-2.09374 -0.89583,-1.08334 -2.32291,-1.08334 -1.29167,0 -2.17708,0.86459 -0.875,0.86458 -0.96875,2.31249 z m 9.69792,3.29166 1.85416,-0.29166 q 0.15625,1.11458 0.86458,1.70833 0.71875,0.59375 2,0.59375 1.29166,0 1.91666,-0.52084 0.625,-0.53124 0.625,-1.23958 0,-0.63541 -0.55208,-1 -0.38542,-0.24999 -1.91667,-0.63541 -2.06249,-0.52083 -2.86457,-0.89583 -0.79167,-0.38542 -1.20834,-1.05208 -0.40625,-0.67709 -0.40625,-1.48959 0,-0.73958 0.33334,-1.36458 0.34375,-0.63541 0.92708,-1.05208 0.4375,-0.32291 1.1875,-0.54166 0.76041,-0.22917 1.62499,-0.22917 1.30209,0 2.28125,0.375 0.98958,0.375 1.45833,1.02083 0.46875,0.63542 0.64583,1.70833 l -1.83333,0.25 q -0.125,-0.85416 -0.72916,-1.33333 -0.59375,-0.47917 -1.6875,-0.47917 -1.29166,0 -1.84375,0.42709 -0.55208,0.42708 -0.55208,1 0,0.36458 0.22917,0.65624 0.22916,0.30209 0.71875,0.5 0.28125,0.10417 1.65624,0.47917 1.98958,0.53125 2.77083,0.875 0.79167,0.33333 1.23958,0.97916 0.44792,0.64584 0.44792,1.60417 0,0.9375 -0.55208,1.77083 -0.54167,0.82291 -1.57292,1.28125 -1.03124,0.44791 -2.33333,0.44791 -2.15624,0 -3.29166,-0.89583 -1.125,-0.89583 -1.43749,-2.65625 z"
         id="path7" />
    </g>
    <path
       d="m 105.47993,412.16724 v -15.27081 h 5.26041 q 1.78125,0 2.71875,0.21875 1.31249,0.30208 2.23958,1.09374 1.20833,1.02084 1.80208,2.61458 0.60416,1.58333 0.60416,3.625 0,1.73958 -0.40625,3.08333 -0.40625,1.34374 -1.04166,2.22916 -0.63542,0.875 -1.39583,1.38541 -0.75,0.5 -1.82292,0.76042 -1.0625,0.26042 -2.44791,0.26042 z m 2.02083,-1.80208 h 3.26041 q 1.51042,0 2.36458,-0.28125 0.86459,-0.28125 1.375,-0.79167 0.71875,-0.71875 1.11458,-1.92708 0.40625,-1.21875 0.40625,-2.94791 0,-2.39583 -0.79166,-3.67708 -0.78125,-1.29166 -1.90625,-1.72916 -0.8125,-0.3125 -2.61458,-0.3125 h -3.20833 z m 20.71872,-1.76042 1.9375,0.23958 q -0.45834,1.69792 -1.69792,2.63542 -1.23958,0.9375 -3.16666,0.9375 -2.42708,0 -3.85416,-1.48959 -1.41666,-1.49999 -1.41666,-4.19791 0,-2.79166 1.43749,-4.33332 1.4375,-1.54167 3.72916,-1.54167 2.21875,0 3.625,1.51042 1.40625,1.51041 1.40625,4.24999 0,0.16667 -0.0104,0.5 h -8.24999 q 0.10417,1.82291 1.03125,2.79166 0.92708,0.96875 2.3125,0.96875 1.03125,0 1.76041,-0.54166 0.72917,-0.54167 1.15625,-1.72917 z m -6.15624,-3.03124 h 6.17707 q -0.125,-1.39583 -0.70833,-2.09375 -0.89583,-1.08333 -2.32291,-1.08333 -1.29167,0 -2.17708,0.86458 -0.875,0.86458 -0.96875,2.3125 z m 10.40623,6.59374 v -15.27081 h 1.875 v 15.27081 z m 4.79166,-13.11457 v -2.15624 h 1.875 v 2.15624 z m 0,13.11457 v -11.06249 h 1.875 v 11.06249 z m 11.9479,-4.05208 1.84375,0.23958 q -0.30209,1.90625 -1.55208,2.98958 -1.23958,1.07292 -3.05208,1.07292 -2.27083,0 -3.65625,-1.47917 -1.37499,-1.48958 -1.37499,-4.26041 0,-1.79166 0.59375,-3.13541 0.59374,-1.34375 1.80208,-2.01041 1.21874,-0.67709 2.64582,-0.67709 1.80209,0 2.94792,0.91667 1.14583,0.90625 1.46874,2.58333 l -1.82291,0.28125 q -0.26042,-1.11458 -0.92708,-1.67708 -0.65625,-0.5625 -1.59375,-0.5625 -1.41666,0 -2.30208,1.02083 -0.88541,1.01041 -0.88541,3.20833 0,2.22916 0.85416,3.23958 0.85417,1.01041 2.22916,1.01041 1.10417,0 1.84375,-0.67708 0.73958,-0.67708 0.9375,-2.08333 z m 7.54165,2.375 0.27084,1.65624 q -0.79167,0.16667 -1.41667,0.16667 -1.02083,0 -1.58333,-0.32292 -0.5625,-0.32291 -0.79166,-0.84375 -0.22917,-0.53125 -0.22917,-2.21874 v -6.36458 h -1.375 v -1.45833 h 1.375 v -2.73958 l 1.86458,-1.12499 v 3.86457 h 1.88541 v 1.45833 h -1.88541 v 6.46874 q 0,0.80209 0.0937,1.03125 0.10417,0.22917 0.32292,0.36459 0.22916,0.13541 0.64583,0.13541 0.3125,0 0.82291,-0.0729 z m 9.40624,-1.88542 1.9375,0.23958 q -0.45834,1.69792 -1.69792,2.63542 -1.23958,0.9375 -3.16666,0.9375 -2.42708,0 -3.85416,-1.48959 -1.41666,-1.49999 -1.41666,-4.19791 0,-2.79166 1.43749,-4.33332 1.4375,-1.54167 3.72916,-1.54167 2.21875,0 3.625,1.51042 1.40625,1.51041 1.40625,4.24999 0,0.16667 -0.0104,0.5 h -8.24999 q 0.10417,1.82291 1.03125,2.79166 0.92708,0.96875 2.3125,0.96875 1.03125,0 1.76041,-0.54166 0.72917,-0.54167 1.15625,-1.72917 z m -6.15624,-3.03124 h 6.17707 q -0.125,-1.39583 -0.70833,-2.09375 -0.89583,-1.08333 -2.32291,-1.08333 -1.29167,0 -2.17708,0.86458 -0.875,0.86458 -0.96875,2.3125 z m 15.62498,3.29166 1.85416,-0.29167 q 0.15625,1.11458 0.86458,1.70833 0.71875,0.59375 2,0.59375 1.29166,0 1.91666,-0.52083 0.625,-0.53125 0.625,-1.23958 0,-0.63542 -0.55208,-1 -0.38542,-0.25 -1.91666,-0.63542 -2.0625,-0.52083 -2.86458,-0.89583 -0.79167,-0.38541 -1.20833,-1.05208 -0.40625,-0.67708 -0.40625,-1.48958 0,-0.73958 0.33333,-1.36458 0.34375,-0.63542 0.92708,-1.05208 0.4375,-0.32292 1.1875,-0.54167 0.76042,-0.22917 1.625,-0.22917 1.30208,0 2.28124,0.375 0.98959,0.375 1.45833,1.02083 0.46875,0.63542 0.64584,1.70834 l -1.83333,0.25 q -0.125,-0.85417 -0.72917,-1.33334 -0.59375,-0.47916 -1.6875,-0.47916 -1.29166,0 -1.84374,0.42708 -0.55209,0.42708 -0.55209,1 0,0.36458 0.22917,0.65625 0.22917,0.30208 0.71875,0.5 0.28125,0.10416 1.65625,0.47916 1.98958,0.53125 2.77083,0.875 0.79166,0.33333 1.23958,0.97917 0.44791,0.64583 0.44791,1.60416 0,0.9375 -0.55208,1.77083 -0.54167,0.82292 -1.57291,1.28125 -1.03125,0.44792 -2.33333,0.44792 -2.15625,0 -3.29166,-0.89584 -1.125,-0.89583 -1.4375,-2.65624 z m 11.42706,-9.81249 v -2.15624 h 1.875 v 2.15624 z m 0,13.11457 v -11.06249 h 1.875 v 11.06249 z m 4.72916,0 v -11.06249 h 1.67708 v 1.55208 q 0.52083,-0.81249 1.38541,-1.30208 0.86458,-0.5 1.96875,-0.5 1.22916,0 2.01041,0.51042 0.79167,0.51042 1.11458,1.42708 1.3125,-1.9375 3.41666,-1.9375 1.64584,0 2.53125,0.91667 0.88542,0.90625 0.88542,2.80208 v 7.59374 h -1.86458 v -6.96874 q 0,-1.125 -0.1875,-1.61458 -0.17709,-0.5 -0.65625,-0.80209 -0.47917,-0.30208 -1.125,-0.30208 -1.16667,0 -1.9375,0.78125 -0.77083,0.77083 -0.77083,2.47916 v 6.42708 h -1.875 v -7.18749 q 0,-1.25 -0.45833,-1.875 -0.45833,-0.625 -1.5,-0.625 -0.79166,0 -1.46875,0.41667 -0.66666,0.41666 -0.96874,1.21875 -0.30209,0.80208 -0.30209,2.31249 v 5.73958 z m 19.49997,0 h -1.73959 v -15.27081 h 1.875 v 5.4479 q 1.1875,-1.48958 3.03125,-1.48958 1.02083,0 1.92708,0.41667 0.91666,0.40625 1.49999,1.15625 0.59375,0.73958 0.92709,1.79166 0.33333,1.05208 0.33333,2.25 0,2.84374 -1.40625,4.39582 -1.40625,1.55209 -3.37499,1.55209 -1.95833,0 -3.07291,-1.63542 z m -0.0208,-5.61458 q 0,1.98958 0.54167,2.875 0.88541,1.44791 2.39583,1.44791 1.22916,0 2.12499,-1.0625 0.89584,-1.07291 0.89584,-3.18749 0,-2.16667 -0.86459,-3.19791 -0.85416,-1.03125 -2.07291,-1.03125 -1.22916,0 -2.125,1.07291 -0.89583,1.0625 -0.89583,3.08333 z m 9.45833,0.0833 q 0,-3.07291 1.70833,-4.55207 1.42708,-1.22917 3.47916,-1.22917 2.28124,0 3.72916,1.5 1.44791,1.48958 1.44791,4.12499 0,2.13542 -0.64583,3.36458 -0.63541,1.21875 -1.86458,1.89583 -1.21875,0.67709 -2.66666,0.67709 -2.32291,0 -3.76041,-1.48959 -1.42708,-1.48958 -1.42708,-4.29166 z m 1.92708,0 q 0,2.125 0.92708,3.1875 0.92708,1.05208 2.33333,1.05208 1.39583,0 2.32291,-1.0625 0.92708,-1.0625 0.92708,-3.23958 0,-2.05208 -0.9375,-3.10416 -0.92708,-1.0625 -2.31249,-1.0625 -1.40625,0 -2.33333,1.05209 -0.92708,1.05208 -0.92708,3.17707 z m 4.52082,-6.90623 h -1.51041 l -2.40625,-2.91667 h 2.51042 z m 6.0729,12.43748 v -15.27081 h 1.875 v 15.27081 z m 4.79166,-13.11457 v -2.15624 h 1.875 v 2.15624 z m 0,13.11457 v -11.06249 h 1.875 v 11.06249 z m 11.9479,-4.05208 1.84375,0.23958 q -0.30208,1.90625 -1.55208,2.98958 -1.23958,1.07292 -3.05208,1.07292 -2.27083,0 -3.65624,-1.47917 -1.375,-1.48958 -1.375,-4.26041 0,-1.79166 0.59375,-3.13541 0.59375,-1.34375 1.80208,-2.01041 1.21875,-0.67709 2.64583,-0.67709 1.80208,0 2.94791,0.91667 1.14583,0.90625 1.46875,2.58333 l -1.82292,0.28125 q -0.26041,-1.11458 -0.92708,-1.67708 -0.65625,-0.5625 -1.59375,-0.5625 -1.41666,0 -2.30208,1.02083 -0.88541,1.01041 -0.88541,3.20833 0,2.22916 0.85416,3.23958 0.85417,1.01041 2.22917,1.01041 1.10416,0 1.84374,-0.67708 0.73959,-0.67708 0.9375,-2.08333 z"
       id="text7"
       style="font-size:21.3333px;line-height:1.25;font-family:Arial;-inkscape-font-specification:Arial;text-align:center;white-space:pre"
       transform="matrix(0.26458333,0,0,0.26458333,64.62961,-61.116053)"
       aria-label="Delicte simbòlic" />
    <path
       d="m 117.92262,412.16724 v -15.27081 h 5.26041 q 1.78125,0 2.71874,0.21875 1.3125,0.30208 2.23958,1.09374 1.20834,1.02084 1.80209,2.61458 0.60416,1.58333 0.60416,3.625 0,1.73958 -0.40625,3.08333 -0.40625,1.34374 -1.04166,2.22916 -0.63542,0.875 -1.39583,1.38541 -0.75,0.5 -1.82292,0.76042 -1.0625,0.26042 -2.44791,0.26042 z m 2.02083,-1.80208 h 3.26041 q 1.51042,0 2.36458,-0.28125 0.86458,-0.28125 1.375,-0.79167 0.71875,-0.71875 1.11458,-1.92708 0.40625,-1.21875 0.40625,-2.94791 0,-2.39583 -0.79166,-3.67708 -0.78125,-1.29166 -1.90625,-1.72916 -0.8125,-0.3125 -2.61458,-0.3125 h -3.20833 z m 20.71872,-1.76042 1.93749,0.23958 q -0.45833,1.69792 -1.69791,2.63542 -1.23958,0.9375 -3.16666,0.9375 -2.42708,0 -3.85416,-1.48959 -1.41667,-1.49999 -1.41667,-4.19791 0,-2.79166 1.4375,-4.33332 1.4375,-1.54167 3.72916,-1.54167 2.21875,0 3.625,1.51042 1.40624,1.51041 1.40624,4.24999 0,0.16667 -0.0104,0.5 h -8.24999 q 0.10417,1.82291 1.03125,2.79166 0.92708,0.96875 2.3125,0.96875 1.03124,0 1.76041,-0.54166 0.72917,-0.54167 1.15625,-1.72917 z m -6.15624,-3.03124 h 6.17707 q -0.125,-1.39583 -0.70833,-2.09375 -0.89583,-1.08333 -2.32291,-1.08333 -1.29167,0 -2.17708,0.86458 -0.875,0.86458 -0.96875,2.3125 z m 10.40623,6.59374 v -15.27081 h 1.875 v 15.27081 z m 4.79166,-13.11457 v -2.15624 h 1.875 v 2.15624 z m 0,13.11457 v -11.06249 h 1.875 v 11.06249 z m 11.9479,-4.05208 1.84375,0.23958 q -0.30209,1.90625 -1.55208,2.98958 -1.23959,1.07292 -3.05208,1.07292 -2.27083,0 -3.65625,-1.47917 -1.375,-1.48958 -1.375,-4.26041 0,-1.79166 0.59375,-3.13541 0.59375,-1.34375 1.80208,-2.01041 1.21875,-0.67709 2.64583,-0.67709 1.80208,0 2.94792,0.91667 1.14583,0.90625 1.46874,2.58333 l -1.82291,0.28125 q -0.26042,-1.11458 -0.92708,-1.67708 -0.65625,-0.5625 -1.59375,-0.5625 -1.41666,0 -2.30208,1.02083 -0.88541,1.01041 -0.88541,3.20833 0,2.22916 0.85416,3.23958 0.85417,1.01041 2.22916,1.01041 1.10417,0 1.84375,-0.67708 0.73958,-0.67708 0.9375,-2.08333 z m 7.54165,2.375 0.27084,1.65624 q -0.79167,0.16667 -1.41667,0.16667 -1.02083,0 -1.58333,-0.32292 -0.5625,-0.32291 -0.79166,-0.84375 -0.22917,-0.53125 -0.22917,-2.21874 v -6.36458 h -1.375 v -1.45833 h 1.375 v -2.73958 l 1.86458,-1.12499 v 3.86457 h 1.88541 v 1.45833 h -1.88541 v 6.46874 q 0,0.80209 0.0937,1.03125 0.10417,0.22917 0.32292,0.36459 0.22916,0.13541 0.64583,0.13541 0.3125,0 0.82291,-0.0729 z m 9.40624,-1.88542 1.9375,0.23958 q -0.45834,1.69792 -1.69792,2.63542 -1.23958,0.9375 -3.16666,0.9375 -2.42708,0 -3.85416,-1.48959 -1.41667,-1.49999 -1.41667,-4.19791 0,-2.79166 1.4375,-4.33332 1.4375,-1.54167 3.72916,-1.54167 2.21875,0 3.625,1.51042 1.40625,1.51041 1.40625,4.24999 0,0.16667 -0.0104,0.5 h -8.24999 q 0.10417,1.82291 1.03125,2.79166 0.92708,0.96875 2.3125,0.96875 1.03124,0 1.76041,-0.54166 0.72917,-0.54167 1.15625,-1.72917 z m -6.15624,-3.03124 h 6.17707 q -0.125,-1.39583 -0.70833,-2.09375 -0.89583,-1.08333 -2.32291,-1.08333 -1.29167,0 -2.17708,0.86458 -0.875,0.86458 -0.96875,2.3125 z m 23.59371,2.54166 1.84375,0.23958 q -0.30208,1.90625 -1.55208,2.98958 -1.23958,1.07292 -3.05208,1.07292 -2.27083,0 -3.65624,-1.47917 -1.375,-1.48958 -1.375,-4.26041 0,-1.79166 0.59375,-3.13541 0.59375,-1.34375 1.80208,-2.01041 1.21875,-0.67709 2.64583,-0.67709 1.80208,0 2.94791,0.91667 1.14583,0.90625 1.46875,2.58333 l -1.82292,0.28125 q -0.26041,-1.11458 -0.92708,-1.67708 -0.65625,-0.5625 -1.59375,-0.5625 -1.41666,0 -2.30208,1.02083 -0.88541,1.01041 -0.88541,3.20833 0,2.22916 0.85417,3.23958 0.85416,1.01041 2.22916,1.01041 1.10416,0 1.84375,-0.67708 0.73958,-0.67708 0.93749,-2.08333 z m 2.75,-1.47917 q 0,-3.07291 1.70833,-4.55207 1.42708,-1.22917 3.47916,-1.22917 2.28125,0 3.72916,1.5 1.44792,1.48958 1.44792,4.12499 0,2.13542 -0.64584,3.36458 -0.63541,1.21875 -1.86458,1.89583 -1.21875,0.67709 -2.66666,0.67709 -2.32291,0 -3.76041,-1.48959 -1.42708,-1.48958 -1.42708,-4.29166 z m 1.92708,0 q 0,2.125 0.92708,3.1875 0.92708,1.05208 2.33333,1.05208 1.39583,0 2.32291,-1.0625 0.92709,-1.0625 0.92709,-3.23958 0,-2.05208 -0.9375,-3.10416 -0.92709,-1.0625 -2.3125,-1.0625 -1.40625,0 -2.33333,1.05209 -0.92708,1.05208 -0.92708,3.17707 z m 10.6354,5.53125 v -11.06249 h 1.67708 v 1.55208 q 0.52083,-0.81249 1.38541,-1.30208 0.86458,-0.5 1.96875,-0.5 1.22916,0 2.01041,0.51042 0.79167,0.51042 1.11458,1.42708 1.3125,-1.9375 3.41667,-1.9375 1.64583,0 2.53124,0.91667 0.88542,0.90625 0.88542,2.80208 v 7.59374 h -1.86458 v -6.96874 q 0,-1.125 -0.1875,-1.61458 -0.17709,-0.5 -0.65625,-0.80209 -0.47917,-0.30208 -1.125,-0.30208 -1.16667,0 -1.9375,0.78125 -0.77083,0.77083 -0.77083,2.47916 v 6.42708 h -1.875 v -7.18749 q 0,-1.25 -0.45833,-1.875 -0.45833,-0.625 -1.5,-0.625 -0.79166,0 -1.46874,0.41667 -0.66667,0.41666 -0.96875,1.21875 -0.30209,0.80208 -0.30209,2.31249 v 5.73958 z m 25.02079,0 v -1.625 q -1.29166,1.875 -3.51041,1.875 -0.97917,0 -1.83333,-0.375 -0.84375,-0.375 -1.26042,-0.9375 -0.40624,-0.57292 -0.57291,-1.39583 -0.11458,-0.55209 -0.11458,-1.75 v -6.85416 h 1.87499 v 6.13541 q 0,1.46875 0.11459,1.97916 0.17708,0.73959 0.74999,1.16667 0.57292,0.41666 1.41667,0.41666 0.84375,0 1.58333,-0.42708 0.73958,-0.4375 1.04167,-1.17708 0.31249,-0.75 0.31249,-2.16666 v -5.92708 h 1.875 v 11.06249 z m -3.93749,-12.43748 1.38541,-2.91667 h 2.45833 l -2.29166,2.91667 z"
       id="text8"
       style="font-size:21.3333px;line-height:1.25;font-family:Arial;-inkscape-font-specification:Arial;text-align:center;white-space:pre"
       transform="matrix(0.26458333,0,0,0.26458333,64.289086,9.2266626)"
       aria-label="Delicte comú" />
    <g
       id="text9"
       style="font-size:21.3333px;line-height:1.25;font-family:Arial;-inkscape-font-specification:Arial;text-align:center;white-space:pre"
       transform="matrix(0.26458333,0,0,0.26458333,116.63817,-30.480005)"
       aria-label="Legitimació mesures restrictives">
      <path
         d="m 81.672678,412.16724 v -15.27081 h 2.02083 v 13.46873 h 7.520822 v 1.80208 z m 19.281222,-3.5625 1.93749,0.23958 q -0.45833,1.69792 -1.69791,2.63542 -1.23958,0.9375 -3.166661,0.9375 -2.427079,0 -3.85416,-1.48959 -1.416665,-1.49999 -1.416665,-4.19791 0,-2.79166 1.437498,-4.33332 1.437498,-1.54167 3.729161,-1.54167 2.218747,0 3.624997,1.51042 1.40624,1.51041 1.40624,4.24999 0,0.16667 -0.0104,0.5 h -8.249989 q 0.104167,1.82291 1.031249,2.79166 0.927081,0.96875 2.312496,0.96875 1.031248,0 1.760414,-0.54166 0.72917,-0.54167 1.15625,-1.72917 z m -6.156242,-3.03124 h 6.177072 q -0.125,-1.39583 -0.70833,-2.09375 -0.895833,-1.08333 -2.322914,-1.08333 -1.291665,0 -2.17708,0.86458 -0.874998,0.86458 -0.968748,2.3125 z m 10.104152,7.5104 1.82291,0.27083 q 0.11459,0.84375 0.63542,1.22917 0.69791,0.52083 1.90625,0.52083 1.30208,0 2.01041,-0.52083 0.70833,-0.52083 0.95833,-1.45833 0.14583,-0.57292 0.13542,-2.40625 -1.22917,1.44792 -3.0625,1.44792 -2.28124,0 -3.53124,-1.64583 -1.25,-1.64584 -1.25,-3.94792 0,-1.58333 0.57292,-2.91666 0.57291,-1.34375 1.65624,-2.07291 1.09375,-0.72917 2.5625,-0.72917 1.95833,0 3.22916,1.58333 v -1.33333 h 1.72916 v 9.56249 q 0,2.58333 -0.53125,3.65624 -0.52083,1.08333 -1.66666,1.70833 -1.13541,0.625 -2.80208,0.625 -1.97916,0 -3.19791,-0.89583 -1.21875,-0.88542 -1.17708,-2.67708 z m 1.55208,-6.64582 q 0,2.17708 0.86458,3.17708 0.86458,0.99999 2.16666,0.99999 1.29167,0 2.16667,-0.98958 0.875,-1 0.875,-3.12499 0,-2.03125 -0.90625,-3.0625 -0.89583,-1.03125 -2.16667,-1.03125 -1.24999,0 -2.12499,1.02084 -0.875,1.01041 -0.875,3.01041 z m 10.66665,-7.38541 v -2.15624 h 1.875 v 2.15624 z m 0,13.11457 v -11.06249 h 1.875 v 11.06249 z m 8.8229,-1.67708 0.27084,1.65624 q -0.79167,0.16667 -1.41667,0.16667 -1.02083,0 -1.58333,-0.32292 -0.5625,-0.32291 -0.79166,-0.84375 -0.22917,-0.53125 -0.22917,-2.21874 v -6.36458 h -1.375 v -1.45833 h 1.375 v -2.73958 l 1.86458,-1.12499 v 3.86457 h 1.88541 v 1.45833 h -1.88541 v 6.46874 q 0,0.80209 0.0937,1.03125 0.10417,0.22917 0.32292,0.36459 0.22916,0.13541 0.64583,0.13541 0.3125,0 0.82291,-0.0729 z m 1.84375,-11.43749 v -2.15624 h 1.875 v 2.15624 z m 0,13.11457 v -11.06249 h 1.875 v 11.06249 z m 4.72916,0 v -11.06249 h 1.67708 v 1.55208 q 0.52083,-0.81249 1.38541,-1.30208 0.86459,-0.5 1.96875,-0.5 1.22916,0 2.01041,0.51042 0.79167,0.51042 1.11459,1.42708 1.31249,-1.9375 3.41666,-1.9375 1.64583,0 2.53124,0.91667 0.88542,0.90625 0.88542,2.80208 v 7.59374 h -1.86458 v -6.96874 q 0,-1.125 -0.1875,-1.61458 -0.17709,-0.5 -0.65625,-0.80209 -0.47917,-0.30208 -1.125,-0.30208 -1.16666,0 -1.9375,0.78125 -0.77083,0.77083 -0.77083,2.47916 v 6.42708 h -1.875 v -7.18749 q 0,-1.25 -0.45833,-1.875 -0.45833,-0.625 -1.5,-0.625 -0.79166,0 -1.46874,0.41667 -0.66667,0.41666 -0.96875,1.21875 -0.30208,0.80208 -0.30208,2.31249 v 5.73958 z m 24.98955,-1.36459 q -1.04167,0.88542 -2.01042,1.25 -0.95833,0.36459 -2.06249,0.36459 -1.82292,0 -2.80208,-0.88542 -0.97917,-0.89583 -0.97917,-2.28125 0,-0.81249 0.36458,-1.47916 0.375,-0.67708 0.96875,-1.08333 0.60417,-0.40625 1.35417,-0.61458 0.55208,-0.14584 1.66666,-0.28125 2.27083,-0.27084 3.34375,-0.64584 0.0104,-0.38541 0.0104,-0.48958 0,-1.14583 -0.53125,-1.61458 -0.71875,-0.63542 -2.13541,-0.63542 -1.32291,0 -1.95833,0.46875 -0.625,0.45834 -0.92708,1.63542 l -1.83333,-0.25 q 0.25,-1.17708 0.82291,-1.89583 0.57292,-0.72917 1.65625,-1.11458 1.08333,-0.39584 2.51041,-0.39584 1.41667,0 2.30208,0.33334 0.88542,0.33333 1.30208,0.84375 0.41667,0.49999 0.58334,1.27083 0.0937,0.47916 0.0937,1.72916 v 2.5 q 0,2.61458 0.11458,3.31249 0.125,0.6875 0.47917,1.32292 h -1.95833 q -0.29167,-0.58334 -0.375,-1.36459 z m -0.15625,-4.18749 q -1.02084,0.41667 -3.0625,0.70833 -1.15625,0.16667 -1.63541,0.375 -0.47917,0.20834 -0.73959,0.61459 -0.26041,0.39583 -0.26041,0.88541 0,0.75 0.5625,1.25 0.57291,0.5 1.66666,0.5 1.08333,0 1.92708,-0.46875 0.84375,-0.47917 1.23958,-1.30208 0.30209,-0.63542 0.30209,-1.875 z m 12.02081,1.5 1.84375,0.23958 q -0.30209,1.90625 -1.55208,2.98958 -1.23959,1.07292 -3.05208,1.07292 -2.27083,0 -3.65625,-1.47917 -1.375,-1.48958 -1.375,-4.26041 0,-1.79166 0.59375,-3.13541 0.59375,-1.34375 1.80208,-2.01041 1.21875,-0.67709 2.64583,-0.67709 1.80208,0 2.94792,0.91667 1.14583,0.90625 1.46874,2.58333 l -1.82291,0.28125 q -0.26042,-1.11458 -0.92708,-1.67708 -0.65625,-0.5625 -1.59375,-0.5625 -1.41666,0 -2.30208,1.02083 -0.88542,1.01041 -0.88542,3.20833 0,2.22916 0.85417,3.23958 0.85417,1.01041 2.22916,1.01041 1.10417,0 1.84375,-0.67708 0.73958,-0.67708 0.9375,-2.08333 z m 3.45833,-9.06249 v -2.15624 h 1.87499 v 2.15624 z m 0,13.11457 v -11.06249 h 1.87499 v 11.06249 z m 4.03124,-5.53125 q 0,-3.07291 1.70833,-4.55207 1.42708,-1.22917 3.47916,-1.22917 2.28125,0 3.72916,1.5 1.44792,1.48958 1.44792,4.12499 0,2.13542 -0.64583,3.36458 -0.63542,1.21875 -1.86458,1.89583 -1.21875,0.67709 -2.66667,0.67709 -2.32291,0 -3.76041,-1.48959 -1.42708,-1.48958 -1.42708,-4.29166 z m 1.92708,0 q 0,2.125 0.92708,3.1875 0.92709,1.05208 2.33333,1.05208 1.39583,0 2.32292,-1.0625 0.92708,-1.0625 0.92708,-3.23958 0,-2.05208 -0.9375,-3.10416 -0.92708,-1.0625 -2.3125,-1.0625 -1.40624,0 -2.33333,1.05209 -0.92708,1.05208 -0.92708,3.17707 z m 2.21875,-6.90623 1.38541,-2.91667 h 2.45833 l -2.29166,2.91667 z m 14.34372,12.43748 v -11.06249 h 1.67708 v 1.55208 q 0.52083,-0.81249 1.38542,-1.30208 0.86458,-0.5 1.96874,-0.5 1.22917,0 2.01042,0.51042 0.79166,0.51042 1.11458,1.42708 1.3125,-1.9375 3.41666,-1.9375 1.64583,0 2.53125,0.91667 0.88541,0.90625 0.88541,2.80208 v 7.59374 h -1.86458 v -6.96874 q 0,-1.125 -0.1875,-1.61458 -0.17708,-0.5 -0.65625,-0.80209 -0.47916,-0.30208 -1.125,-0.30208 -1.16666,0 -1.93749,0.78125 -0.77084,0.77083 -0.77084,2.47916 v 6.42708 h -1.87499 v -7.18749 q 0,-1.25 -0.45834,-1.875 -0.45833,-0.625 -1.49999,-0.625 -0.79167,0 -1.46875,0.41667 -0.66667,0.41666 -0.96875,1.21875 -0.30208,0.80208 -0.30208,2.31249 v 5.73958 z m 25.34371,-3.5625 1.9375,0.23958 q -0.45833,1.69792 -1.69792,2.63542 -1.23958,0.9375 -3.16666,0.9375 -2.42708,0 -3.85416,-1.48959 -1.41666,-1.49999 -1.41666,-4.19791 0,-2.79166 1.4375,-4.33332 1.43749,-1.54167 3.72916,-1.54167 2.21874,0 3.62499,1.51042 1.40625,1.51041 1.40625,4.24999 0,0.16667 -0.0104,0.5 h -8.24999 q 0.10417,1.82291 1.03125,2.79166 0.92708,0.96875 2.3125,0.96875 1.03125,0 1.76041,-0.54166 0.72917,-0.54167 1.15625,-1.72917 z m -6.15624,-3.03124 h 6.17707 q -0.125,-1.39583 -0.70833,-2.09375 -0.89583,-1.08333 -2.32291,-1.08333 -1.29167,0 -2.17708,0.86458 -0.875,0.86458 -0.96875,2.3125 z m 9.6979,3.29166 1.85416,-0.29167 q 0.15625,1.11458 0.86459,1.70833 0.71875,0.59375 1.99999,0.59375 1.29167,0 1.91667,-0.52083 0.625,-0.53125 0.625,-1.23958 0,-0.63542 -0.55209,-1 -0.38541,-0.25 -1.91666,-0.63542 -2.0625,-0.52083 -2.86458,-0.89583 -0.79166,-0.38541 -1.20833,-1.05208 -0.40625,-0.67708 -0.40625,-1.48958 0,-0.73958 0.33333,-1.36458 0.34375,-0.63542 0.92708,-1.05208 0.4375,-0.32292 1.1875,-0.54167 0.76042,-0.22917 1.625,-0.22917 1.30208,0 2.28125,0.375 0.98958,0.375 1.45833,1.02083 0.46875,0.63542 0.64583,1.70834 l -1.83333,0.25 q -0.125,-0.85417 -0.72917,-1.33334 -0.59374,-0.47916 -1.68749,-0.47916 -1.29167,0 -1.84375,0.42708 -0.55208,0.42708 -0.55208,1 0,0.36458 0.22916,0.65625 0.22917,0.30208 0.71875,0.5 0.28125,0.10416 1.65625,0.47916 1.98958,0.53125 2.77083,0.875 0.79166,0.33333 1.23958,0.97917 0.44792,0.64583 0.44792,1.60416 0,0.9375 -0.55209,1.77083 -0.54166,0.82292 -1.57291,1.28125 -1.03125,0.44792 -2.33333,0.44792 -2.15625,0 -3.29166,-0.89584 -1.125,-0.89583 -1.4375,-2.65624 z m 18.66664,3.30208 v -1.625 q -1.29166,1.875 -3.51041,1.875 -0.97916,0 -1.83333,-0.375 -0.84375,-0.375 -1.26041,-0.9375 -0.40625,-0.57292 -0.57292,-1.39583 -0.11458,-0.55209 -0.11458,-1.75 v -6.85416 h 1.875 v 6.13541 q 0,1.46875 0.11458,1.97916 0.17708,0.73959 0.75,1.16667 0.57291,0.41666 1.41666,0.41666 0.84375,0 1.58333,-0.42708 0.73959,-0.4375 1.04167,-1.17708 0.3125,-0.75 0.3125,-2.16666 v -5.92708 h 1.875 v 11.06249 z m 4.59375,0 v -11.06249 h 1.68749 v 1.67708 q 0.64584,-1.17708 1.1875,-1.55208 0.55208,-0.375 1.20833,-0.375 0.94792,0 1.92708,0.60417 l -0.64583,1.73958 q -0.6875,-0.40625 -1.375,-0.40625 -0.61458,0 -1.10416,0.375 -0.48958,0.36458 -0.69792,1.02083 -0.3125,1 -0.3125,2.1875 v 5.79166 z m 14.69789,-3.5625 1.9375,0.23958 q -0.45834,1.69792 -1.69792,2.63542 -1.23958,0.9375 -3.16666,0.9375 -2.42708,0 -3.85416,-1.48959 -1.41666,-1.49999 -1.41666,-4.19791 0,-2.79166 1.43749,-4.33332 1.4375,-1.54167 3.72916,-1.54167 2.21875,0 3.625,1.51042 1.40625,1.51041 1.40625,4.24999 0,0.16667 -0.0104,0.5 h -8.24999 q 0.10417,1.82291 1.03125,2.79166 0.92708,0.96875 2.3125,0.96875 1.03125,0 1.76041,-0.54166 0.72917,-0.54167 1.15625,-1.72917 z m -6.15624,-3.03124 h 6.17707 q -0.125,-1.39583 -0.70833,-2.09375 -0.89583,-1.08333 -2.32291,-1.08333 -1.29167,0 -2.17708,0.86458 -0.875,0.86458 -0.96875,2.3125 z m 9.6979,3.29166 1.85416,-0.29167 q 0.15625,1.11458 0.86459,1.70833 0.71874,0.59375 1.99999,0.59375 1.29167,0 1.91667,-0.52083 0.62499,-0.53125 0.62499,-1.23958 0,-0.63542 -0.55208,-1 -0.38541,-0.25 -1.91666,-0.63542 -2.0625,-0.52083 -2.86458,-0.89583 -0.79167,-0.38541 -1.20833,-1.05208 -0.40625,-0.67708 -0.40625,-1.48958 0,-0.73958 0.33333,-1.36458 0.34375,-0.63542 0.92708,-1.05208 0.4375,-0.32292 1.1875,-0.54167 0.76042,-0.22917 1.625,-0.22917 1.30208,0 2.28125,0.375 0.98958,0.375 1.45833,1.02083 0.46875,0.63542 0.64583,1.70834 l -1.83333,0.25 q -0.125,-0.85417 -0.72917,-1.33334 -0.59375,-0.47916 -1.68749,-0.47916 -1.29167,0 -1.84375,0.42708 -0.55208,0.42708 -0.55208,1 0,0.36458 0.22916,0.65625 0.22917,0.30208 0.71875,0.5 0.28125,0.10416 1.65625,0.47916 1.98958,0.53125 2.77083,0.875 0.79166,0.33333 1.23958,0.97917 0.44792,0.64583 0.44792,1.60416 0,0.9375 -0.55209,1.77083 -0.54166,0.82292 -1.57291,1.28125 -1.03125,0.44792 -2.33333,0.44792 -2.15625,0 -3.29166,-0.89584 -1.125,-0.89583 -1.4375,-2.65624 z"
         id="path8" />
      <path
         d="m 128.34448,438.83386 v -11.06248 h 1.6875 v 1.67708 q 0.64583,-1.17708 1.18749,-1.55208 0.55209,-0.375 1.20834,-0.375 0.94791,0 1.92708,0.60417 l -0.64584,1.73958 q -0.68749,-0.40625 -1.37499,-0.40625 -0.61459,0 -1.10417,0.375 -0.48958,0.36458 -0.69791,1.02083 -0.3125,1 -0.3125,2.18749 v 5.79166 z m 14.69789,-3.56249 1.9375,0.23958 q -0.45833,1.69791 -1.69791,2.63541 -1.23959,0.9375 -3.16667,0.9375 -2.42708,0 -3.85416,-1.48958 -1.41666,-1.5 -1.41666,-4.19791 0,-2.79166 1.4375,-4.33333 1.43749,-1.54166 3.72916,-1.54166 2.21874,0 3.62499,1.51041 1.40625,1.51042 1.40625,4.25 0,0.16666 -0.0104,0.5 h -8.24998 q 0.10416,1.82291 1.03124,2.79166 0.92709,0.96875 2.3125,0.96875 1.03125,0 1.76041,-0.54167 0.72917,-0.54166 1.15625,-1.72916 z m -6.15624,-3.03125 h 6.17708 q -0.125,-1.39583 -0.70834,-2.09374 -0.89583,-1.08334 -2.32291,-1.08334 -1.29166,0 -2.17708,0.86459 -0.875,0.86458 -0.96875,2.31249 z m 9.6979,3.29166 1.85417,-0.29166 q 0.15625,1.11458 0.86458,1.70833 0.71875,0.59375 2,0.59375 1.29166,0 1.91666,-0.52084 0.625,-0.53124 0.625,-1.23958 0,-0.63541 -0.55208,-1 -0.38542,-0.24999 -1.91667,-0.63541 -2.06249,-0.52083 -2.86458,-0.89583 -0.79166,-0.38542 -1.20833,-1.05208 -0.40625,-0.67709 -0.40625,-1.48959 0,-0.73958 0.33334,-1.36458 0.34375,-0.63541 0.92708,-1.05208 0.4375,-0.32291 1.1875,-0.54166 0.76041,-0.22917 1.62499,-0.22917 1.30208,0 2.28125,0.375 0.98958,0.375 1.45833,1.02083 0.46875,0.63542 0.64583,1.70833 l -1.83333,0.25 q -0.125,-0.85416 -0.72916,-1.33333 -0.59375,-0.47917 -1.6875,-0.47917 -1.29167,0 -1.84375,0.42709 -0.55208,0.42708 -0.55208,1 0,0.36458 0.22917,0.65624 0.22916,0.30209 0.71875,0.5 0.28124,0.10417 1.65624,0.47917 1.98958,0.53125 2.77083,0.875 0.79167,0.33333 1.23958,0.97916 0.44792,0.64584 0.44792,1.60417 0,0.9375 -0.55208,1.77083 -0.54167,0.82291 -1.57292,1.28125 -1.03125,0.44791 -2.33333,0.44791 -2.15624,0 -3.29166,-0.89583 -1.125,-0.89583 -1.4375,-2.65625 z m 15.5104,1.625 0.27083,1.65625 q -0.79167,0.16666 -1.41667,0.16666 -1.02083,0 -1.58333,-0.32291 -0.5625,-0.32292 -0.79166,-0.84375 -0.22917,-0.53125 -0.22917,-2.21875 v -6.36457 h -1.375 v -1.45833 h 1.375 v -2.73958 l 1.86458,-1.125 v 3.86458 h 1.88542 v 1.45833 h -1.88542 v 6.46874 q 0,0.80208 0.0937,1.03125 0.10417,0.22916 0.32292,0.36458 0.22917,0.13542 0.64583,0.13542 0.3125,0 0.82292,-0.0729 z m 1.81249,1.67708 v -11.06248 h 1.6875 v 1.67708 q 0.64583,-1.17708 1.1875,-1.55208 0.55208,-0.375 1.20833,-0.375 0.94791,0 1.92708,0.60417 l -0.64583,1.73958 q -0.6875,-0.40625 -1.375,-0.40625 -0.61458,0 -1.10417,0.375 -0.48958,0.36458 -0.69791,1.02083 -0.3125,1 -0.3125,2.18749 v 5.79166 z m 7.13541,-13.11456 v -2.15625 h 1.875 v 2.15625 z m 0,13.11456 v -11.06248 h 1.875 v 11.06248 z m 11.94789,-4.05208 1.84375,0.23959 q -0.30208,1.90624 -1.55208,2.98958 -1.23958,1.07291 -3.05208,1.07291 -2.27083,0 -3.65624,-1.47916 -1.375,-1.48958 -1.375,-4.26041 0,-1.79167 0.59375,-3.13541 0.59375,-1.34375 1.80208,-2.01042 1.21875,-0.67708 2.64583,-0.67708 1.80208,0 2.94791,0.91666 1.14583,0.90625 1.46875,2.58333 l -1.82291,0.28125 q -0.26042,-1.11458 -0.92709,-1.67708 -0.65625,-0.5625 -1.59374,-0.5625 -1.41667,0 -2.30208,1.02084 -0.88542,1.01041 -0.88542,3.20832 0,2.22917 0.85417,3.23958 0.85416,1.01042 2.22916,1.01042 1.10416,0 1.84375,-0.67709 0.73958,-0.67708 0.93749,-2.08333 z m 7.54166,2.375 0.27084,1.65625 q -0.79167,0.16666 -1.41667,0.16666 -1.02083,0 -1.58333,-0.32291 -0.5625,-0.32292 -0.79167,-0.84375 -0.22916,-0.53125 -0.22916,-2.21875 v -6.36457 h -1.375 v -1.45833 h 1.375 v -2.73958 l 1.86458,-1.125 v 3.86458 h 1.88541 v 1.45833 h -1.88541 v 6.46874 q 0,0.80208 0.0937,1.03125 0.10417,0.22916 0.32291,0.36458 0.22917,0.13542 0.64584,0.13542 0.3125,0 0.82291,-0.0729 z m 1.84375,-11.43748 v -2.15625 h 1.875 v 2.15625 z m 0,13.11456 v -11.06248 h 1.875 v 11.06248 z m 7.80207,0 -4.20833,-11.06248 h 1.97916 l 2.375,6.62499 q 0.38542,1.07291 0.70833,2.22916 0.25,-0.875 0.69792,-2.10416 l 2.45833,-6.74999 h 1.92708 l -4.1875,11.06248 z m 15.16665,-3.56249 1.93749,0.23958 q -0.45833,1.69791 -1.69791,2.63541 -1.23958,0.9375 -3.16666,0.9375 -2.42708,0 -3.85416,-1.48958 -1.41667,-1.5 -1.41667,-4.19791 0,-2.79166 1.4375,-4.33333 1.4375,-1.54166 3.72916,-1.54166 2.21875,0 3.62499,1.51041 1.40625,1.51042 1.40625,4.25 0,0.16666 -0.0104,0.5 h -8.24999 q 0.10417,1.82291 1.03125,2.79166 0.92708,0.96875 2.31249,0.96875 1.03125,0 1.76042,-0.54167 0.72916,-0.54166 1.15625,-1.72916 z m -6.15624,-3.03125 h 6.17707 q -0.125,-1.39583 -0.70833,-2.09374 -0.89584,-1.08334 -2.32292,-1.08334 -1.29166,0 -2.17708,0.86459 -0.875,0.86458 -0.96874,2.31249 z m 9.69789,3.29166 1.85417,-0.29166 q 0.15625,1.11458 0.86458,1.70833 0.71875,0.59375 2,0.59375 1.29166,0 1.91666,-0.52084 0.625,-0.53124 0.625,-1.23958 0,-0.63541 -0.55208,-1 -0.38542,-0.24999 -1.91667,-0.63541 -2.06249,-0.52083 -2.86457,-0.89583 -0.79167,-0.38542 -1.20834,-1.05208 -0.40625,-0.67709 -0.40625,-1.48959 0,-0.73958 0.33334,-1.36458 0.34375,-0.63541 0.92708,-1.05208 0.4375,-0.32291 1.1875,-0.54166 0.76041,-0.22917 1.62499,-0.22917 1.30209,0 2.28125,0.375 0.98958,0.375 1.45833,1.02083 0.46875,0.63542 0.64583,1.70833 l -1.83333,0.25 q -0.125,-0.85416 -0.72916,-1.33333 -0.59375,-0.47917 -1.6875,-0.47917 -1.29166,0 -1.84375,0.42709 -0.55208,0.42708 -0.55208,1 0,0.36458 0.22917,0.65624 0.22916,0.30209 0.71875,0.5 0.28125,0.10417 1.65624,0.47917 1.98958,0.53125 2.77083,0.875 0.79167,0.33333 1.23958,0.97916 0.44792,0.64584 0.44792,1.60417 0,0.9375 -0.55208,1.77083 -0.54167,0.82291 -1.57292,1.28125 -1.03124,0.44791 -2.33333,0.44791 -2.15624,0 -3.29166,-0.89583 -1.125,-0.89583 -1.4375,-2.65625 z"
         id="path11" />
    </g>
    <path
       style="display:inline;fill:none;fill-rule:evenodd;stroke:#000000;stroke-width:0.265;stroke-linecap:butt;stroke-linejoin:miter;stroke-dasharray:none;stroke-opacity:1;marker-start:url(#marker4);marker-end:url(#Triangle)"
       d="M 112.32925,51.257038 111.96573,113.0563"
       id="path9"
       inkscape:connector-type="polyline"
       inkscape:connector-curvature="0" />
    <path
       style="fill:none;fill-rule:evenodd;stroke:#000000;stroke-width:0.264583px;stroke-linecap:butt;stroke-linejoin:miter;stroke-opacity:1;marker-start:url(#marker6);marker-end:url(#marker5)"
       d="m 85.064871,79.24847 50.166459,0.363524"
       id="path10"
       inkscape:connector-type="polyline"
       inkscape:connector-curvature="0" />
  </g>
</svg>
