<?xml version="1.0" encoding="UTF-8" standalone="no"?>
<!-- Created with Inkscape (http://www.inkscape.org/) -->

<svg
   width="156.07549mm"
   height="85.049812mm"
   viewBox="0 0 156.07549 85.049812"
   version="1.1"
   id="svg1"
   inkscape:version="1.3.2 (091e20e, 2023-11-25)"
   sodipodi:docname="configuracio-narrativa.svg"
   xmlns:inkscape="http://www.inkscape.org/namespaces/inkscape"
   xmlns:sodipodi="http://sodipodi.sourceforge.net/DTD/sodipodi-0.dtd"
   xmlns="http://www.w3.org/2000/svg"
   xmlns:svg="http://www.w3.org/2000/svg">
  <sodipodi:namedview
     id="namedview1"
     pagecolor="#ffffff"
     bordercolor="#666666"
     borderopacity="1.0"
     inkscape:showpageshadow="2"
     inkscape:pageopacity="0.0"
     inkscape:pagecheckerboard="0"
     inkscape:deskcolor="#d1d1d1"
     inkscape:document-units="mm"
     inkscape:zoom="0.72871773"
     inkscape:cx="313.56448"
     inkscape:cy="392.47021"
     inkscape:window-width="1600"
     inkscape:window-height="943"
     inkscape:window-x="0"
     inkscape:window-y="25"
     inkscape:window-maximized="0"
     inkscape:current-layer="layer1" />
  <defs
     id="defs1">
    <clipPath
       clipPathUnits="userSpaceOnUse"
       id="clipPath3059">
      <path
         d="M 0,0 H 595.32 V 841.92 H 0 Z"
         transform="translate(-2.5000002e-4)"
         id="path3059" />
    </clipPath>
    <clipPath
       clipPathUnits="userSpaceOnUse"
       id="clipPath3061">
      <path
         d="M 0,0 H 595.32 V 841.92 H 0 Z"
         transform="translate(-2.5000002e-4)"
         id="path3061" />
    </clipPath>
    <clipPath
       clipPathUnits="userSpaceOnUse"
       id="clipPath3062">
      <path
         d="m 63.991,612.82 h 125.413 v 44.99 H 63.991 Z"
         transform="matrix(1,0,0,-1,-69.264252,647.02001)"
         id="path3062" />
    </clipPath>
    <clipPath
       clipPathUnits="userSpaceOnUse"
       id="clipPath3063">
      <path
         d="m 63.991,612.82 h 125.413 v 44.99 H 63.991 Z"
         transform="matrix(1,0,0,-1,-100.33975,632.74001)"
         id="path3063" />
    </clipPath>
    <clipPath
       clipPathUnits="userSpaceOnUse"
       id="clipPath3064">
      <path
         d="M 398.38,617.14 H 526.2 v 44.99 H 398.38 Z"
         transform="matrix(1,0,0,-1,-412.18001,651.34001)"
         id="path3064" />
    </clipPath>
    <clipPath
       clipPathUnits="userSpaceOnUse"
       id="clipPath3065">
      <path
         d="M 398.38,617.14 H 526.2 v 44.99 H 398.38 Z"
         transform="matrix(1,0,0,-1,-435.94001,637.06001)"
         id="path3065" />
    </clipPath>
    <clipPath
       clipPathUnits="userSpaceOnUse"
       id="clipPath3066">
      <path
         d="m 278.36,716.26 h 78.95 v 41.3 h -78.95 z"
         transform="matrix(1,0,0,-1,-278.35001,746.38002)"
         id="path3066" />
    </clipPath>
    <clipPath
       clipPathUnits="userSpaceOnUse"
       id="clipPath3067">
      <path
         d="m 280.88,503.11 h 64.31 v 21.96 h -64.31 z"
         transform="matrix(1,0,0,-1,-280.87001,513.79001)"
         id="path3067" />
    </clipPath>
  </defs>
  <g
     inkscape:label="Capa 1"
     inkscape:groupmode="layer"
     id="layer1"
     transform="translate(-22.13587,-44.579404)">
    <path
       id="path3058"
       d="M 318.3,731.97 V 531.92 h -1 v 200.05 z m -4.43,-5.75 3.93,6.74 3.93,-6.74 c 0.14,-0.24 0.06,-0.54 -0.18,-0.68 -0.24,-0.14 -0.54,-0.06 -0.68,0.18 l -3.5,6 h 0.86 l -3.5,-6 c -0.14,-0.24 -0.44,-0.32 -0.68,-0.18 -0.24,0.14 -0.32,0.44 -0.18,0.68 z m 7.86,-188.55 -3.93,-6.74 -3.93,6.74 c -0.14,0.24 -0.06,0.54 0.18,0.68 0.24,0.14 0.54,0.06 0.68,-0.18 l 3.5,-6 h -0.86 l 3.5,6 c 0.14,0.24 0.44,0.32 0.68,0.18 0.24,-0.14 0.32,-0.44 0.18,-0.68 z"
       style="fill:#000000;fill-opacity:1;fill-rule:nonzero;stroke:none"
       transform="matrix(0.35277776,0,0,-0.35277776,-2.3712763,310.82503)"
       clip-path="url(#clipPath3059)" />
    <path
       id="path3060"
       d="m 209.4,637.22 h 206.15 v -1 H 209.4 Z m 5.75,-4.43 -6.74,3.93 6.74,3.93 c 0.24,0.14 0.54,0.06 0.68,-0.18 0.14,-0.24 0.06,-0.54 -0.18,-0.68 l -6,-3.5 v 0.86 l 6,-3.5 c 0.24,-0.14 0.32,-0.44 0.18,-0.68 -0.14,-0.24 -0.44,-0.32 -0.68,-0.18 z m 194.65,7.86 6.74,-3.93 -6.74,-3.93 c -0.24,-0.14 -0.54,-0.06 -0.68,0.18 -0.14,0.24 -0.06,0.54 0.18,0.68 l 6,3.5 v -0.86 l -6,3.5 c -0.24,0.14 -0.32,0.44 -0.18,0.68 0.14,0.24 0.44,0.32 0.68,0.18 z"
       style="fill:#000000;fill-opacity:1;fill-rule:nonzero;stroke:none"
       transform="matrix(0.35277776,0,0,-0.35277776,-2.3712763,310.82503)"
       clip-path="url(#clipPath3061)" />
    <path
       style="font-size:12px;font-family:'Times New Roman'"
       d="m 0.20507813,0 v -0.21679688 h 0.29882812 q 0.50390625,0 0.71484375,-0.32226562 0.1289062,-0.19335937 0.1289062,-0.8671875 v -5.1328125 q 0,-0.7441406 -0.1640625,-0.9316406 Q 0.95507813,-7.7285156 0.50390625,-7.7285156 H 0.20507813 V -7.9453125 H 3.4394531 q 1.78125,0 2.7070313,0.4042969 0.9316406,0.4042969 1.4941406,1.3476562 0.5683594,0.9433594 0.5683594,2.1796875 0,1.6582031 -1.0078125,2.7714844 Q 6.0703125,0 3.7558594,0 Z M 2.4726563,-0.57421875 q 0.7441406,0.1640625 1.2480468,0.1640625 1.359375,0 2.2558594,-0.95507815 0.8964844,-0.9550781 0.8964844,-2.5898437 0,-1.6464844 -0.8964844,-2.5957031 Q 5.0800781,-7.5 3.6738281,-7.5 q -0.5273437,0 -1.2011718,0.1699219 z m 7.468687,-2.77148435 q -0.00586,1.1953125 0.5800777,1.875 0.585938,0.67968748 1.376954,0.67968748 0.527343,0 0.914062,-0.28710938 0.392578,-0.2929687 0.65625,-0.9960938 l 0.181641,0.1171876 q -0.123047,0.8027343 -0.714844,1.4648437 -0.591797,0.65625 -1.482422,0.65625 -0.966797,0 -1.6582031,-0.75 -0.6855468,-0.7558594 -0.6855468,-2.0273438 0,-1.3769531 0.703125,-2.1445312 0.7089839,-0.7734375 1.7753909,-0.7734375 0.902343,0 1.482422,0.5976563 0.580078,0.5917968 0.580078,1.5878906 z m 0,-0.3398438 h 2.4843747 q -0.0293,-0.515625 -0.123047,-0.7265625 -0.146484,-0.328125 -0.439453,-0.515625 -0.287109,-0.1875 -0.603515,-0.1875 -0.486328,0 -0.873047,0.3808594 -0.38086,0.375 -0.4453127,1.0488281 z M 17.76375,-5.5253906 v 1.828125 h -0.193359 q -0.222657,-0.8613281 -0.574219,-1.171875 -0.345703,-0.3105469 -0.884766,-0.3105469 -0.410156,0 -0.662109,0.2167969 -0.251953,0.2167969 -0.251953,0.4804687 0,0.328125 0.1875,0.5625 0.18164,0.2402344 0.738281,0.5097656 l 0.855469,0.4160157 q 1.189453,0.5800781 1.189453,1.5292969 0,0.73242183 -0.556641,1.1835937 -0.550781,0.4453125 -1.236328,0.4453125 -0.492187,0 -1.125,-0.17578125 -0.193359,-0.05859375 -0.316406,-0.05859375 -0.134766,0 -0.210938,0.15234375 H 14.529375 V -1.8339844 h 0.193359 q 0.164063,0.8203125 0.626954,1.23632815 0.46289,0.41601563 1.037109,0.41601563 0.404297,0 0.65625,-0.23437501 0.257812,-0.24023437 0.257812,-0.57421875 0,-0.40429682 -0.287109,-0.67968752 -0.28125,-0.2753906 -1.130859,-0.6972656 -0.84961,-0.421875 -1.113282,-0.7617188 -0.263671,-0.3339843 -0.263671,-0.84375 0,-0.6621093 0.451171,-1.1074218 0.457032,-0.4453125 1.177735,-0.4453125 0.316406,0 0.767578,0.1347656 0.298828,0.087891 0.398437,0.087891 0.09375,0 0.146485,-0.041016 0.05273,-0.041016 0.123047,-0.1816406 z m 3.044952,-2.8066407 v 7.1191407 q 0,0.50390623 0.07031,0.66796873 0.07617,0.16406249 0.228516,0.25195312 0.152343,0.0820313 0.568359,0.0820313 V 0 h -2.630859 v -0.2109375 q 0.36914,0 0.503906,-0.0761719 0.134765,-0.0761719 0.210937,-0.25195312 0.07617,-0.17578125 0.07617,-0.67382808 v -4.875 q 0,-0.9082031 -0.04101,-1.1132813 -0.04102,-0.2109375 -0.134766,-0.2871093 -0.08789,-0.076172 -0.228516,-0.076172 -0.152343,0 -0.386718,0.09375 l -0.09961,-0.2050781 1.59961,-0.6562501 z m 2.392642,4.9863282 q -0.0059,1.1953125 0.580078,1.875 0.585937,0.67968748 1.376953,0.67968748 0.527344,0 0.914062,-0.28710938 0.392578,-0.2929687 0.65625,-0.9960938 l 0.181641,0.1171876 q -0.123047,0.8027343 -0.714844,1.4648437 -0.591797,0.65625 -1.482422,0.65625 -0.966797,0 -1.658203,-0.75 -0.685547,-0.7558594 -0.685547,-2.0273438 0,-1.3769531 0.703125,-2.1445312 0.708985,-0.7734375 1.775391,-0.7734375 0.902344,0 1.482422,0.5976563 0.580078,0.5917968 0.580078,1.5878906 z m 0,-0.3398438 h 2.484375 q -0.0293,-0.515625 -0.123047,-0.7265625 -0.146485,-0.328125 -0.439453,-0.515625 -0.28711,-0.1875 -0.603516,-0.1875 -0.486328,0 -0.873047,0.3808594 -0.380859,0.375 -0.445312,1.0488281 z m 5.957202,1.7285157 Q 28.666359,-2.1972656 28.402687,-2.625 q -0.263672,-0.4335938 -0.263672,-0.9550781 0,-0.796875 0.597656,-1.3710938 0.603516,-0.5742187 1.541016,-0.5742187 0.767578,0 1.330078,0.375 h 1.136719 q 0.251953,0 0.292969,0.017578 0.04102,0.011719 0.05859,0.046875 0.03516,0.052734 0.03516,0.1875 0,0.1523438 -0.0293,0.2109375 -0.01758,0.029297 -0.06445,0.046875 -0.04102,0.017578 -0.292969,0.017578 h -0.697266 q 0.328125,0.421875 0.328125,1.078125 0,0.75 -0.574218,1.2832031 -0.574219,0.5332032 -1.541016,0.5332032 -0.398438,0 -0.814453,-0.1171875 -0.257813,0.2226562 -0.351563,0.3925781 -0.08789,0.1640625 -0.08789,0.28125 0,0.099609 0.09375,0.19335937 0.09961,0.09375 0.380859,0.13476563 0.164063,0.0234375 0.820313,0.0410156 1.207031,0.0292969 1.564453,0.0820313 0.544922,0.0761719 0.867187,0.40429687 0.328125,0.328125 0.328125,0.80859375 0,0.66210938 -0.621094,1.24218748 -0.914062,0.8554688 -2.384765,0.8554688 -1.13086,0 -1.910156,-0.5097657 -0.439454,-0.2929687 -0.439454,-0.609375 0,-0.140625 0.06445,-0.28125 0.09961,-0.21679683 0.410156,-0.60351558 0.04102,-0.0527344 0.597656,-0.6328125 -0.304683,-0.18164045 -0.43359,-0.32226545 -0.123047,-0.14648437 -0.123047,-0.32812499 0,-0.20507813 0.164063,-0.48046878 0.169922,-0.2753906 0.773437,-0.7792968 z m 1.019532,-3.2871094 q -0.433594,0 -0.726563,0.3457031 -0.292969,0.3457031 -0.292969,1.0605469 0,0.9257812 0.398438,1.4355468 0.304687,0.3867188 0.773437,0.3867188 0.445313,0 0.732422,-0.3339844 0.28711,-0.3339844 0.28711,-1.0488281 0,-0.9316406 -0.404297,-1.4589844 -0.298828,-0.3867187 -0.767578,-0.3867187 z M 29.099953,0 Q 28.824562,0.29882813 28.683937,0.55664062 28.543312,0.81445313 28.543312,1.03125 q 0,0.28125 0.339844,0.4921875 0.585937,0.3632812 1.693359,0.3632812 1.054688,0 1.552735,-0.375 0.503906,-0.3691406 0.503906,-0.79101558 0,-0.30468749 -0.298828,-0.43359374 Q 32.02964,0.15820312 31.127296,0.13476562 29.808937,0.09960937 29.099953,0 Z m 5.868282,-8.3320313 q 0.246094,0 0.416016,0.1757813 0.175781,0.1699219 0.175781,0.4160156 0,0.2460938 -0.175781,0.421875 -0.169922,0.1757813 -0.416016,0.1757813 -0.246094,0 -0.421875,-0.1757813 -0.175781,-0.1757812 -0.175781,-0.421875 0,-0.2460937 0.169922,-0.4160156 0.175781,-0.1757813 0.427734,-0.1757813 z m 0.486328,2.8066407 v 4.3125 q 0,0.50390623 0.07031,0.6738281 0.07617,0.1640625 0.216797,0.24609375 0.146484,0.0820313 0.527343,0.0820313 V 0 h -2.607422 v -0.2109375 q 0.392579,0 0.527344,-0.0761719 0.134766,-0.0761719 0.210938,-0.25195312 0.08203,-0.17578125 0.08203,-0.67382808 V -3.28125 q 0,-0.8730469 -0.05273,-1.1308594 -0.04102,-0.1875 -0.128907,-0.2578125 -0.08789,-0.076172 -0.240234,-0.076172 -0.164063,0 -0.398438,0.087891 l -0.08203,-0.2109375 1.617188,-0.65625 z m 3.04303,-1.6054688 v 1.7636719 h 1.253906 v 0.4101563 h -1.253906 v 3.4804687 q 0,0.52148437 0.146484,0.703125 0.152344,0.18164063 0.386719,0.18164063 0.193359,0 0.375,-0.1171875 0.181641,-0.12304688 0.28125,-0.35742183 h 0.228516 q -0.205078,0.5742187 -0.580078,0.86718745 -0.375,0.28710937 -0.773438,0.28710937 -0.269531,0 -0.527344,-0.14648437 Q 37.77689,-0.2109375 37.653843,-0.48632813 37.530796,-0.76757812 37.530796,-1.3476562 v -3.609375 h -0.849609 v -0.1933594 q 0.322265,-0.1289063 0.65625,-0.4335938 0.339843,-0.3105468 0.603515,-0.7324218 0.134766,-0.2226563 0.375,-0.8144532 z m 3.178642,-1.2011719 q 0.246094,0 0.416016,0.1757813 0.175781,0.1699219 0.175781,0.4160156 0,0.2460938 -0.175781,0.421875 -0.169922,0.1757813 -0.416016,0.1757813 -0.246094,0 -0.421875,-0.1757813 -0.175781,-0.1757812 -0.175781,-0.421875 0,-0.2460937 0.169922,-0.4160156 0.175781,-0.1757813 0.427734,-0.1757813 z m 0.486328,2.8066407 v 4.3125 q 0,0.50390623 0.07031,0.6738281 0.07617,0.1640625 0.216797,0.24609375 0.146484,0.0820313 0.527343,0.0820313 V 0 h -2.607421 v -0.2109375 q 0.392578,0 0.527343,-0.0761719 0.134766,-0.0761719 0.210938,-0.25195312 0.08203,-0.17578125 0.08203,-0.67382808 V -3.28125 q 0,-0.8730469 -0.05273,-1.1308594 -0.04102,-0.1875 -0.128907,-0.2578125 -0.08789,-0.076172 -0.240234,-0.076172 -0.164062,0 -0.398437,0.087891 l -0.08203,-0.2109375 1.617188,-0.65625 z m 3.078186,1.1425781 q 0.585938,-0.5859375 0.691407,-0.6738281 0.263671,-0.2226563 0.568359,-0.3457031 0.304687,-0.1230469 0.603516,-0.1230469 0.503906,0 0.867187,0.2929687 0.363281,0.2929688 0.486328,0.8496094 0.603516,-0.703125 1.019531,-0.9199219 0.416016,-0.2226562 0.855469,-0.2226562 0.427735,0 0.75586,0.2226562 0.333984,0.2167969 0.527343,0.7148438 0.128907,0.3398437 0.128907,1.0664062 v 2.3085938 q 0,0.50390623 0.07617,0.69140623 0.05859,0.12890624 0.216797,0.22265624 0.158203,0.0878906 0.515625,0.0878906 V 0 h -2.648437 v -0.2109375 h 0.111328 q 0.345703,0 0.539062,-0.13476563 0.134766,-0.09375 0.19336,-0.29882812 0.02344,-0.0996094 0.02344,-0.56835935 v -2.3085938 q 0,-0.65625 -0.158203,-0.9257812 -0.228515,-0.375 -0.732422,-0.375 -0.310547,0 -0.626953,0.1582031 -0.310547,0.1523438 -0.755859,0.5742188 l -0.01172,0.064453 0.01172,0.2519531 v 2.5605469 q 0,0.55078123 0.05859,0.68554685 0.06445,0.13476562 0.234375,0.22851562 0.169921,0.0878906 0.580078,0.0878906 V 0 h -2.712891 v -0.2109375 q 0.445313,0 0.609375,-0.10546875 0.169922,-0.10546875 0.234375,-0.31640625 0.0293,-0.0996094 0.0293,-0.5800781 v -2.3085938 q 0,-0.65625 -0.193359,-0.9433593 -0.257813,-0.375 -0.720704,-0.375 -0.316406,0 -0.626953,0.1699218 -0.486328,0.2578125 -0.75,0.5800782 v 2.8769531 q 0,0.52734373 0.07031,0.68554685 0.07617,0.15820312 0.216797,0.24023437 0.146484,0.0761719 0.585937,0.0761719 V 0 h -2.654297 v -0.2109375 q 0.369141,0 0.515625,-0.0761719 0.146485,-0.0820313 0.222657,-0.25195312 0.07617,-0.17578125 0.07617,-0.67382808 v -2.0507813 q 0,-0.8847656 -0.05273,-1.1425781 -0.04102,-0.1933594 -0.128906,-0.2636719 -0.08789,-0.076172 -0.240235,-0.076172 -0.164062,0 -0.392578,0.087891 l -0.08789,-0.2109375 1.617187,-0.65625 h 0.251953 z m 10.819268,3.609375 q -0.826172,0.63867188 -1.03711,0.73828125 -0.316406,0.14648437 -0.673828,0.14648437 -0.55664,0 -0.919922,-0.38085937 -0.357422,-0.38085937 -0.357422,-1.00195315 0,-0.3925781 0.175782,-0.6796875 0.240234,-0.3984375 0.832031,-0.75 0.597656,-0.3515625 1.980469,-0.8554687 v -0.2109375 q 0,-0.8027344 -0.257813,-1.1015625 -0.251953,-0.2988281 -0.738281,-0.2988281 -0.369141,0 -0.585938,0.1992187 -0.222656,0.1992188 -0.222656,0.4570313 l 0.01172,0.3398437 q 0,0.2695312 -0.140625,0.4160156 -0.134766,0.1464844 -0.357422,0.1464844 -0.216797,0 -0.357422,-0.1523438 -0.134765,-0.1523437 -0.134765,-0.4160156 0,-0.5039062 0.515625,-0.9257812 0.515625,-0.421875 1.447265,-0.421875 0.714844,0 1.171875,0.2402344 0.345703,0.1816406 0.509766,0.5683593 0.105469,0.2519532 0.105469,1.03125 v 1.8222657 q 0,0.7675781 0.0293,0.94335932 0.0293,0.16992188 0.09375,0.22851563 0.07031,0.0585938 0.158204,0.0585938 0.09375,0 0.164062,-0.0410156 Q 57.595173,-0.75 57.946735,-1.1015625 v 0.328125 q -0.65625,0.87890625 -1.253906,0.87890625 -0.287109,0 -0.457031,-0.19921875 -0.169922,-0.19921875 -0.175781,-0.6796875 z m 0,-0.3808594 v -2.0449219 q -0.884766,0.3515625 -1.142578,0.4980469 -0.462891,0.2578125 -0.66211,0.5390625 -0.199219,0.28125 -0.199219,0.6152344 0,0.421875 0.251954,0.703125 0.251953,0.27539063 0.580078,0.27539063 0.445312,0 1.171875,-0.58593753 z m 6.797577,-0.8847656 q -0.216797,1.06054687 -0.84961,1.63476562 -0.632812,0.56835938 -1.40039,0.56835938 -0.914063,0 -1.59375,-0.76757812 -0.679688,-0.76757808 -0.679688,-2.07421878 0,-1.265625 0.75,-2.0566406 0.755859,-0.7910156 1.810547,-0.7910156 0.791016,0 1.300781,0.421875 0.509766,0.4160156 0.509766,0.8671875 0,0.2226562 -0.146485,0.3632812 -0.140625,0.1347656 -0.398437,0.1347656 -0.345703,0 -0.521484,-0.2226562 -0.09961,-0.1230469 -0.134766,-0.46875 -0.0293,-0.3457031 -0.234375,-0.5273437 -0.205078,-0.1757813 -0.568359,-0.1757813 -0.585938,0 -0.94336,0.4335938 -0.474609,0.5742187 -0.474609,1.5175781 0,0.9609375 0.46875,1.6992187 Q 60.226734,-0.75 61.029469,-0.75 q 0.574218,0 1.03125,-0.3925781 0.322265,-0.2695313 0.626953,-0.9785157 z m 2.086639,-6.2929688 q 0.246094,0 0.416016,0.1757813 0.175781,0.1699219 0.175781,0.4160156 0,0.2460938 -0.175781,0.421875 -0.169922,0.1757813 -0.416016,0.1757813 -0.246094,0 -0.421875,-0.1757813 -0.175781,-0.1757812 -0.175781,-0.421875 0,-0.2460937 0.169922,-0.4160156 0.175781,-0.1757813 0.427734,-0.1757813 z m 0.486328,2.8066407 v 4.3125 q 0,0.50390623 0.07031,0.6738281 0.07617,0.1640625 0.216796,0.24609375 0.146485,0.0820313 0.527344,0.0820313 V 0 h -2.607422 v -0.2109375 q 0.392578,0 0.527344,-0.0761719 0.134766,-0.0761719 0.210938,-0.25195312 0.08203,-0.17578125 0.08203,-0.67382808 V -3.28125 q 0,-0.8730469 -0.05273,-1.1308594 -0.04102,-0.1875 -0.128906,-0.2578125 -0.08789,-0.076172 -0.240234,-0.076172 -0.164063,0 -0.398438,0.087891 l -0.08203,-0.2109375 1.617188,-0.65625 z m 4.10944,0 q 1.21875,0 1.957031,0.9257812 0.626953,0.7910156 0.626953,1.8164063 0,0.7207031 -0.345703,1.4589844 -0.345703,0.7382812 -0.955078,1.1132812 -0.603516,0.375 -1.347656,0.375 -1.212891,0 -1.927735,-0.96679688 -0.603515,-0.81445312 -0.603515,-1.82812502 0,-0.7382812 0.363281,-1.4648437 0.369141,-0.7324219 0.966797,-1.078125 0.597656,-0.3515625 1.265625,-0.3515625 z m -0.181641,0.3808594 q -0.310547,0 -0.626953,0.1875 -0.310547,0.1816406 -0.503906,0.6445312 -0.193359,0.4628906 -0.193359,1.1894531 0,1.171875 0.46289,2.0214844 0.46875,0.84960937 1.230469,0.84960937 0.568359,0 0.9375,-0.46874999 0.369141,-0.46874998 0.369141,-1.61132818 0,-1.4296875 -0.615235,-2.2499999 -0.416015,-0.5625 -1.060547,-0.5625 z m 1.417969,-3.0000001 -1.728516,2.0214844 h -0.199218 l 0.615234,-2.0214844 z m 6.732422,3.7617188 q 0.585937,-0.5859375 0.691406,-0.6738281 0.263672,-0.2226563 0.56836,-0.3457031 0.304687,-0.1230469 0.603515,-0.1230469 0.503906,0 0.867188,0.2929687 0.363281,0.2929688 0.486328,0.8496094 0.603515,-0.703125 1.019531,-0.9199219 0.416016,-0.2226562 0.855469,-0.2226562 0.427734,0 0.755859,0.2226562 0.333985,0.2167969 0.527344,0.7148438 0.128906,0.3398437 0.128906,1.0664062 v 2.3085938 q 0,0.50390623 0.07617,0.69140623 0.05859,0.12890624 0.216797,0.22265624 0.158203,0.0878906 0.515625,0.0878906 V 0 h -2.648438 v -0.2109375 h 0.111329 q 0.345703,0 0.539062,-0.13476563 0.134766,-0.09375 0.193359,-0.29882812 0.02344,-0.0996094 0.02344,-0.56835935 v -2.3085938 q 0,-0.65625 -0.158203,-0.9257812 -0.228516,-0.375 -0.732422,-0.375 -0.310547,0 -0.626953,0.1582031 -0.310547,0.1523438 -0.75586,0.5742188 l -0.01172,0.064453 0.01172,0.2519531 v 2.5605469 q 0,0.55078123 0.05859,0.68554685 0.06445,0.13476562 0.234375,0.22851562 0.169922,0.0878906 0.580078,0.0878906 V 0 h -2.71289 v -0.2109375 q 0.445312,0 0.609375,-0.10546875 0.169922,-0.10546875 0.234375,-0.31640625 0.0293,-0.0996094 0.0293,-0.5800781 v -2.3085938 q 0,-0.65625 -0.19336,-0.9433593 -0.257812,-0.375 -0.720703,-0.375 -0.316406,0 -0.626953,0.1699218 -0.486328,0.2578125 -0.75,0.5800782 v 2.8769531 q 0,0.52734373 0.07031,0.68554685 0.07617,0.15820312 0.216797,0.24023437 0.146485,0.0761719 0.585938,0.0761719 V 0 h -2.654297 v -0.2109375 q 0.369141,0 0.515625,-0.0761719 0.146484,-0.0820313 0.222656,-0.25195312 0.07617,-0.17578125 0.07617,-0.67382808 v -2.0507813 q 0,-0.8847656 -0.05273,-1.1425781 -0.04102,-0.1933594 -0.128907,-0.2636719 -0.08789,-0.076172 -0.240234,-0.076172 -0.164062,0 -0.392578,0.087891 l -0.08789,-0.2109375 1.617188,-0.65625 h 0.251953 z m 8.680595,1.0371094 q -0.0059,1.1953125 0.580078,1.875 0.585938,0.67968748 1.376954,0.67968748 0.527343,0 0.914062,-0.28710938 0.392578,-0.2929687 0.65625,-0.9960938 l 0.181641,0.1171876 q -0.123047,0.8027343 -0.714844,1.4648437 -0.591797,0.65625 -1.482422,0.65625 -0.966797,0 -1.658203,-0.75 -0.685547,-0.7558594 -0.685547,-2.0273438 0,-1.3769531 0.703125,-2.1445312 0.708984,-0.7734375 1.775391,-0.7734375 0.902343,0 1.482422,0.5976563 0.580078,0.5917968 0.580078,1.5878906 z m 0,-0.3398438 h 2.484375 q -0.0293,-0.515625 -0.123047,-0.7265625 -0.146484,-0.328125 -0.439453,-0.515625 -0.287109,-0.1875 -0.603515,-0.1875 -0.486328,0 -0.873047,0.3808594 -0.38086,0.375 -0.445313,1.0488281 z m 7.846405,-1.8398437 v 1.828125 h -0.193359 q -0.222656,-0.8613281 -0.574219,-1.171875 -0.345703,-0.3105469 -0.884765,-0.3105469 -0.410157,0 -0.66211,0.2167969 -0.251953,0.2167969 -0.251953,0.4804687 0,0.328125 0.1875,0.5625 0.181641,0.2402344 0.738281,0.5097656 l 0.855469,0.4160157 q 1.189453,0.5800781 1.189453,1.5292969 0,0.73242183 -0.55664,1.1835937 -0.550782,0.4453125 -1.236329,0.4453125 -0.492187,0 -1.125,-0.17578125 -0.193359,-0.05859375 -0.316406,-0.05859375 -0.134765,0 -0.210937,0.15234375 h -0.19336 V -1.8339844 h 0.19336 q 0.164062,0.8203125 0.626953,1.23632815 0.46289,0.41601563 1.037109,0.41601563 0.404297,0 0.65625,-0.23437501 0.257813,-0.24023437 0.257813,-0.57421875 0,-0.40429682 -0.28711,-0.67968752 -0.28125,-0.2753906 -1.130859,-0.6972656 -0.849609,-0.421875 -1.113281,-0.7617188 -0.263672,-0.3339843 -0.263672,-0.84375 0,-0.6621093 0.451172,-1.1074218 0.457031,-0.4453125 1.177734,-0.4453125 0.316406,0 0.767578,0.1347656 0.298828,0.087891 0.398438,0.087891 0.09375,0 0.146484,-0.041016 0.05273,-0.041016 0.123047,-0.1816406 z m 5.904328,0.1582031 v 3.2519531 q 0,0.9316407 0.04102,1.14257815 0.04688,0.20507813 0.140631,0.28710938 0.0996,0.0820313 0.22851,0.0820313 0.18165,0 0.41016,-0.0996094 l 0.082,0.20507812 -1.605471,0.66210938 h -0.263672 v -1.13671875 q -0.691406,0.75 -1.054688,0.94335937 -0.363281,0.19335938 -0.767578,0.19335938 -0.451172,0 -0.785156,-0.2578125 Q 96.03771,-0.35742185 95.908804,-0.76757809 95.779897,-1.1777344 95.779897,-1.9277344 v -2.3964843 q 0,-0.3808594 -0.08203,-0.5273438 -0.08203,-0.1464844 -0.246094,-0.2226562 -0.158203,-0.082031 -0.580078,-0.076172 v -0.2167969 h 1.88086 v 3.5917969 q 0,0.75 0.257812,0.98437501 0.263672,0.234375 0.632813,0.234375 0.251953,0 0.568359,-0.15820313 0.322266,-0.15820313 0.761719,-0.60351568 V -4.359375 q 0,-0.4570312 -0.169922,-0.6152344 -0.164063,-0.1640625 -0.691406,-0.1757812 v -0.2167969 z m 2.865231,-0.1582031 v 1.2070312 q 0.67383,-1.2070312 1.38282,-1.2070312 0.32226,0 0.5332,0.1992187 0.21094,0.1933594 0.21094,0.4511719 0,0.2285156 -0.15235,0.3867188 -0.15234,0.1582031 -0.36328,0.1582031 -0.20508,0 -0.46289,-0.1992188 -0.25195,-0.2050781 -0.375,-0.2050781 -0.10547,0 -0.22852,0.1171875 -0.26367,0.2402344 -0.54492,0.7910156 v 2.5722657 q 0,0.44531245 0.11133,0.67382808 0.0762,0.15820312 0.26953,0.26367187 0.19336,0.10546875 0.55664,0.10546875 V 0 h -2.74804 v -0.2109375 q 0.41015,0 0.60937,-0.12890625 0.14649,-0.09375 0.20508,-0.29882812 0.0293,-0.0996094 0.0293,-0.56835933 v -2.0800782 q 0,-0.9375 -0.041,-1.1132812 -0.0352,-0.1816406 -0.14062,-0.2636719 -0.0996,-0.082031 -0.25196,-0.082031 -0.18164,0 -0.41015,0.087891 l -0.0586,-0.2109375 1.62305,-0.65625 z m 3.32804,2.1796875 q -0.006,1.1953125 0.58007,1.875 0.58594,0.67968748 1.37696,0.67968748 0.52734,0 0.91406,-0.28710938 0.39258,-0.2929687 0.65625,-0.9960938 l 0.18164,0.1171876 q -0.12305,0.8027343 -0.71484,1.4648437 -0.5918,0.65625 -1.48242,0.65625 -0.9668,0 -1.65821,-0.75 -0.68554,-0.7558594 -0.68554,-2.0273438 0,-1.3769531 0.70312,-2.1445312 0.70898,-0.7734375 1.77539,-0.7734375 0.90234,0 1.48242,0.5976563 0.58008,0.5917968 0.58008,1.5878906 z m 0,-0.3398438 h 2.48437 q -0.0293,-0.515625 -0.12305,-0.7265625 -0.14648,-0.328125 -0.43945,-0.515625 -0.28711,-0.1875 -0.60351,-0.1875 -0.48633,0 -0.87305,0.3808594 -0.38086,0.375 -0.44531,1.0488281 z m 7.8224,-1.8398437 v 1.828125 h -0.19336 q -0.22266,-0.8613281 -0.57422,-1.171875 -0.3457,-0.3105469 -0.88476,-0.3105469 -0.41016,0 -0.66211,0.2167969 -0.25196,0.2167969 -0.25196,0.4804687 0,0.328125 0.1875,0.5625 0.18164,0.2402344 0.73828,0.5097656 l 0.85547,0.4160157 q 1.18946,0.5800781 1.18946,1.5292969 0,0.73242183 -0.55664,1.1835937 -0.55079,0.4453125 -1.23633,0.4453125 -0.49219,0 -1.125,-0.17578125 -0.19336,-0.05859375 -0.31641,-0.05859375 -0.13476,0 -0.21094,0.15234375 h -0.19336 V -1.8339844 h 0.19336 q 0.16407,0.8203125 0.62696,1.23632815 0.46289,0.41601563 1.03711,0.41601563 0.40429,0 0.65625,-0.23437501 0.25781,-0.24023437 0.25781,-0.57421875 0,-0.40429682 -0.28711,-0.67968752 -0.28125,-0.2753906 -1.13086,-0.6972656 -0.84961,-0.421875 -1.11328,-0.7617188 -0.26367,-0.3339843 -0.26367,-0.84375 0,-0.6621093 0.45117,-1.1074218 0.45703,-0.4453125 1.17773,-0.4453125 0.31641,0 0.76758,0.1347656 0.29883,0.087891 0.39844,0.087891 0.0937,0 0.14648,-0.041016 0.0527,-0.041016 0.12305,-0.1816406 z"
       id="text3061"
       clip-path="url(#clipPath3062)"
       transform="matrix(0.35277776,0,0,0.35277776,22.063523,82.570759)"
       aria-label="Deslegitimació mesures " />
    <path
       style="font-size:12px;font-family:'Times New Roman'"
       d="m 1.9453125,-5.5253906 v 1.2070312 q 0.6738281,-1.2070312 1.3828125,-1.2070312 0.3222656,0 0.5332031,0.1992187 0.2109375,0.1933594 0.2109375,0.4511719 0,0.2285156 -0.1523437,0.3867188 -0.1523438,0.1582031 -0.3632813,0.1582031 -0.2050781,0 -0.4628906,-0.1992188 -0.2519531,-0.2050781 -0.375,-0.2050781 -0.1054687,0 -0.2285156,0.1171875 -0.2636719,0.2402344 -0.5449219,0.7910156 v 2.5722657 q 0,0.44531245 0.1113281,0.67382808 0.076172,0.15820312 0.2695313,0.26367187 0.1933594,0.10546875 0.5566406,0.10546875 V 0 H 0.13476562 v -0.2109375 q 0.41015625,0 0.609375,-0.12890625 0.14648438,-0.09375 0.20507813,-0.29882812 0.0292969,-0.0996094 0.0292969,-0.56835933 v -2.0800782 q 0,-0.9375 -0.0410156,-1.1132812 -0.0351563,-0.1816406 -0.140625,-0.2636719 -0.0996094,-0.082031 -0.25195313,-0.082031 -0.18164062,0 -0.41015625,0.087891 L 0.07617192,-4.86914 1.6992187,-5.52539 Z m 3.3280313,2.1796875 q -0.00586,1.1953125 0.5800781,1.875 0.5859375,0.67968748 1.3769532,0.67968748 0.5273437,0 0.9140625,-0.28710938 0.3925781,-0.2929687 0.65625,-0.9960938 l 0.1816406,0.1171876 q -0.1230469,0.8027343 -0.7148438,1.4648437 -0.5917968,0.65625 -1.4824218,0.65625 -0.9667969,0 -1.6582032,-0.75 -0.6855468,-0.7558594 -0.6855468,-2.0273438 0,-1.3769531 0.703125,-2.1445312 0.7089843,-0.7734375 1.7753906,-0.7734375 0.9023437,0 1.4824219,0.5976563 0.5800781,0.5917968 0.5800781,1.5878906 z m 0,-0.3398438 h 2.484375 q -0.029297,-0.515625 -0.1230469,-0.7265625 -0.1464843,-0.328125 -0.4394531,-0.515625 -0.2871094,-0.1875 -0.6035156,-0.1875 -0.4863281,0 -0.8730469,0.3808594 -0.3808594,0.375 -0.4453125,1.0488281 z M 13.08375,-5.5253906 v 1.828125 h -0.19336 q -0.222656,-0.8613281 -0.574218,-1.171875 -0.345703,-0.3105469 -0.884766,-0.3105469 -0.410156,0 -0.662109,0.2167969 -0.251953,0.2167969 -0.251953,0.4804687 0,0.328125 0.1875,0.5625 0.18164,0.2402344 0.738281,0.5097656 l 0.855469,0.4160157 q 1.189453,0.5800781 1.189453,1.5292969 0,0.73242183 -0.556641,1.1835937 -0.550781,0.4453125 -1.236328,0.4453125 -0.492188,0 -1.125,-0.17578125 -0.193359,-0.05859375 -0.316406,-0.05859375 -0.134766,0 -0.210938,0.15234375 H 9.8493748 V -1.8339844 h 0.1933592 q 0.164063,0.8203125 0.626953,1.23632815 0.462891,0.41601563 1.03711,0.41601563 0.404297,0 0.65625,-0.23437501 0.257812,-0.24023437 0.257812,-0.57421875 0,-0.40429682 -0.287109,-0.67968752 -0.28125,-0.2753906 -1.13086,-0.6972656 -0.849609,-0.421875 -1.113281,-0.7617188 -0.2636717,-0.3339843 -0.2636717,-0.84375 0,-0.6621093 0.4511717,-1.1074218 0.457031,-0.4453125 1.177735,-0.4453125 0.316406,0 0.767578,0.1347656 0.298828,0.087891 0.398437,0.087891 0.09375,0 0.146485,-0.041016 0.05273,-0.041016 0.123046,-0.1816406 z m 2.757844,-1.6054688 v 1.7636719 H 17.0955 v 0.4101563 h -1.253906 v 3.4804687 q 0,0.52148437 0.146484,0.703125 0.152344,0.18164063 0.386719,0.18164063 0.193359,0 0.375,-0.1171875 0.18164,-0.12304688 0.28125,-0.35742183 h 0.228515 q -0.205078,0.5742187 -0.580078,0.86718745 -0.375,0.28710937 -0.773437,0.28710937 -0.269531,0 -0.527344,-0.14648437 -0.257812,-0.15234375 -0.380859,-0.42773438 -0.123047,-0.28124999 -0.123047,-0.86132807 v -3.609375 h -0.84961 v -0.1933594 q 0.322266,-0.1289063 0.65625,-0.4335938 0.339844,-0.3105468 0.603516,-0.7324218 0.134766,-0.2226563 0.375,-0.8144532 z m 3.347718,1.6054688 v 1.2070312 q 0.673828,-1.2070312 1.382812,-1.2070312 0.322266,0 0.533204,0.1992187 0.210937,0.1933594 0.210937,0.4511719 0,0.2285156 -0.152344,0.3867188 -0.152343,0.1582031 -0.363281,0.1582031 -0.205078,0 -0.462891,-0.1992188 -0.251953,-0.2050781 -0.375,-0.2050781 -0.105468,0 -0.228515,0.1171875 -0.263672,0.2402344 -0.544922,0.7910156 v 2.5722657 q 0,0.44531245 0.111328,0.67382808 0.07617,0.15820312 0.269531,0.26367187 0.19336,0.10546875 0.556641,0.10546875 V 0 h -2.748047 v -0.2109375 q 0.410156,0 0.609375,-0.12890625 0.146484,-0.09375 0.205078,-0.29882812 0.0293,-0.0996094 0.0293,-0.56835933 v -2.0800782 q 0,-0.9375 -0.04102,-1.1132812 -0.03516,-0.1816406 -0.140625,-0.2636719 -0.09961,-0.082031 -0.251953,-0.082031 -0.18164,0 -0.410156,0.087891 l -0.05859,-0.2109375 1.623047,-0.65625 z m 3.790922,-2.8066407 q 0.246094,0 0.416016,0.1757813 0.175781,0.1699219 0.175781,0.4160156 0,0.2460938 -0.175781,0.421875 -0.169922,0.1757813 -0.416016,0.1757813 -0.246094,0 -0.421875,-0.1757813 -0.175781,-0.1757812 -0.175781,-0.421875 0,-0.2460937 0.169922,-0.4160156 0.175781,-0.1757813 0.427734,-0.1757813 z m 0.486328,2.8066407 v 4.3125 q 0,0.50390623 0.07031,0.6738281 0.07617,0.1640625 0.216797,0.24609375 0.146484,0.0820313 0.527343,0.0820313 V 0 h -2.607421 v -0.2109375 q 0.392578,0 0.527343,-0.0761719 0.134766,-0.0761719 0.210938,-0.25195312 0.08203,-0.17578125 0.08203,-0.67382808 V -3.28125 q 0,-0.8730469 -0.05273,-1.1308594 -0.04102,-0.1875 -0.128907,-0.2578125 -0.08789,-0.076172 -0.240234,-0.076172 -0.164062,0 -0.398437,0.087891 l -0.08203,-0.2109375 1.617188,-0.65625 z m 6.043032,3.4863281 q -0.216797,1.06054687 -0.849609,1.63476562 -0.632813,0.56835938 -1.400391,0.56835938 -0.914063,0 -1.59375,-0.76757812 -0.679688,-0.76757808 -0.679688,-2.07421878 0,-1.265625 0.75,-2.0566406 0.75586,-0.7910156 1.810547,-0.7910156 0.791016,0 1.300782,0.421875 0.509765,0.4160156 0.509765,0.8671875 0,0.2226562 -0.146484,0.3632812 -0.140625,0.1347656 -0.398438,0.1347656 -0.345703,0 -0.521484,-0.2226562 -0.09961,-0.1230469 -0.134766,-0.46875 -0.0293,-0.3457031 -0.234375,-0.5273437 -0.205078,-0.1757813 -0.568359,-0.1757813 -0.585938,0 -0.943359,0.4335938 -0.47461,0.5742187 -0.47461,1.5175781 0,0.9609375 0.46875,1.6992187 Q 26.878735,-0.75 27.681469,-0.75 q 0.574219,0 1.03125,-0.3925781 0.322266,-0.2695313 0.626953,-0.9785157 z m 2.327999,-5.0917969 v 1.7636719 h 1.253906 v 0.4101563 h -1.253906 v 3.4804687 q 0,0.52148437 0.146484,0.703125 0.152344,0.18164063 0.386719,0.18164063 0.19336,0 0.375,-0.1171875 0.181641,-0.12304688 0.28125,-0.35742183 h 0.228516 q -0.205078,0.5742187 -0.580078,0.86718745 -0.375,0.28710937 -0.773438,0.28710937 -0.269531,0 -0.527344,-0.14648437 Q 31.11689,-0.2109375 30.993843,-0.48632813 30.870796,-0.76757812 30.870796,-1.3476562 v -3.609375 h -0.849609 v -0.1933594 q 0.322265,-0.1289063 0.65625,-0.4335938 0.339844,-0.3105468 0.603515,-0.7324218 0.134766,-0.2226563 0.375,-0.8144532 z m 3.142643,-1.2011719 q 0.246094,0 0.416016,0.1757813 0.175781,0.1699219 0.175781,0.4160156 0,0.2460938 -0.175781,0.421875 -0.169922,0.1757813 -0.416016,0.1757813 -0.246094,0 -0.421875,-0.1757813 -0.175781,-0.1757812 -0.175781,-0.421875 0,-0.2460937 0.169922,-0.4160156 0.175781,-0.1757813 0.427734,-0.1757813 z m 0.486328,2.8066407 v 4.3125 q 0,0.50390623 0.07031,0.6738281 0.07617,0.1640625 0.216797,0.24609375 0.146484,0.0820313 0.527343,0.0820313 V 0 h -2.607422 v -0.2109375 q 0.392579,0 0.527344,-0.0761719 0.134766,-0.0761719 0.210938,-0.25195312 0.08203,-0.17578125 0.08203,-0.67382808 V -3.28125 q 0,-0.8730469 -0.05273,-1.1308594 -0.04102,-0.1875 -0.128907,-0.2578125 -0.08789,-0.076172 -0.240234,-0.076172 -0.164063,0 -0.398438,0.087891 l -0.08203,-0.2109375 1.617188,-0.65625 z m 1.209046,0.1582031 H 39.201 v 0.2167969 h -0.164062 q -0.228516,0 -0.351563,0.1113281 -0.117187,0.1113281 -0.117187,0.2988281 0,0.2050782 0.123047,0.4863282 l 1.248046,2.9648437 1.253907,-3.0761719 q 0.134765,-0.328125 0.134765,-0.4980468 0,-0.082031 -0.04687,-0.1347657 -0.06445,-0.087891 -0.164062,-0.1171875 -0.09961,-0.035156 -0.404297,-0.035156 v -0.2167969 h 1.751953 v 0.2167969 q -0.304687,0.023437 -0.421875,0.1230469 -0.205078,0.1757812 -0.369141,0.5859375 L 39.76936,0.1640625 H 39.529125 L 37.61311,-4.3652344 q -0.128907,-0.3164062 -0.246094,-0.4511718 -0.117188,-0.140625 -0.298828,-0.234375 -0.09961,-0.052734 -0.392578,-0.099609 z m 7.177734,2.0214844 q -0.0059,1.1953125 0.580078,1.875 0.585938,0.67968748 1.376953,0.67968748 0.527344,0 0.914063,-0.28710938 0.392578,-0.2929687 0.65625,-0.9960938 l 0.18164,0.1171876 q -0.123047,0.8027343 -0.714843,1.4648437 -0.591797,0.65625 -1.482422,0.65625 -0.966797,0 -1.658203,-0.75 -0.685547,-0.7558594 -0.685547,-2.0273438 0,-1.3769531 0.703125,-2.1445312 0.708984,-0.7734375 1.77539,-0.7734375 0.902344,0 1.482422,0.5976563 0.580078,0.5917968 0.580078,1.5878906 z m 0,-0.3398438 h 2.484375 q -0.0293,-0.515625 -0.123047,-0.7265625 -0.146484,-0.328125 -0.439453,-0.515625 -0.287109,-0.1875 -0.603516,-0.1875 -0.486328,0 -0.873047,0.3808594 -0.380859,0.375 -0.445312,1.0488281 z m 7.894405,-1.8398437 v 1.828125 H 51.55439 q -0.222656,-0.8613281 -0.574219,-1.171875 -0.345703,-0.3105469 -0.884765,-0.3105469 -0.410157,0 -0.66211,0.2167969 -0.251953,0.2167969 -0.251953,0.4804687 0,0.328125 0.1875,0.5625 0.181641,0.2402344 0.738281,0.5097656 l 0.855469,0.4160157 q 1.189453,0.5800781 1.189453,1.5292969 0,0.73242183 -0.55664,1.1835937 -0.550782,0.4453125 -1.236329,0.4453125 -0.492187,0 -1.125,-0.17578125 -0.193359,-0.05859375 -0.316406,-0.05859375 -0.134765,0 -0.210937,0.15234375 h -0.19336 V -1.8339844 h 0.19336 q 0.164062,0.8203125 0.626953,1.23632815 0.46289,0.41601563 1.037109,0.41601563 0.404297,0 0.65625,-0.23437501 0.257813,-0.24023437 0.257813,-0.57421875 0,-0.40429682 -0.28711,-0.67968752 -0.28125,-0.2753906 -1.130859,-0.6972656 -0.849609,-0.421875 -1.113281,-0.7617188 -0.263672,-0.3339843 -0.263672,-0.84375 0,-0.6621093 0.451172,-1.1074218 0.457031,-0.4453125 1.177734,-0.4453125 0.316406,0 0.767578,0.1347656 0.298828,0.087891 0.398438,0.087891 0.09375,0 0.146484,-0.041016 0.05273,-0.041016 0.123047,-0.1816406 z"
       id="text3062"
       clip-path="url(#clipPath3063)"
       transform="matrix(0.35277776,0,0,0.35277776,33.026269,87.608426)"
       aria-label="restrictives" />
    <path
       style="font-size:12px;font-family:'Times New Roman'"
       d="M 6.8789062,-2.1972656 7.0722656,-2.15625 6.3925781,0 H 0.24023438 V -0.21679688 H 0.5390625 q 0.5039062,0 0.7207031,-0.32812499 0.1230469,-0.1875 0.1230469,-0.86718753 v -5.1269531 q 0,-0.7441406 -0.1640625,-0.9316406 Q 0.99023438,-7.7285156 0.5390625,-7.7285156 H 0.24023438 V -7.9453125 H 3.8378906 v 0.2167969 q -0.6328125,-0.00586 -0.890625,0.1171875 -0.2519531,0.1230469 -0.3457031,0.3105469 -0.09375,0.1875 -0.09375,0.8964843 v 4.9921875 q 0,0.48632815 0.09375,0.66796878 0.070312,0.12304687 0.2167969,0.18164062 0.1464844,0.0585938 0.9140625,0.0585938 H 4.3125 q 0.9140625,0 1.2832031,-0.13476562 0.3691406,-0.13476563 0.6738281,-0.47460928 0.3046875,-0.3457032 0.609375,-1.0839845 z m 1.5984374,-1.1484375 q -0.00586,1.1953125 0.5800781,1.875 0.5859375,0.67968748 1.3769533,0.67968748 0.527344,0 0.914062,-0.28710938 0.392578,-0.2929687 0.65625,-0.9960938 l 0.181641,0.1171876 q -0.123047,0.8027343 -0.714844,1.4648437 -0.591797,0.65625 -1.4824217,0.65625 -0.9667969,0 -1.6582031,-0.75 -0.6855469,-0.7558594 -0.6855469,-2.0273438 0,-1.3769531 0.703125,-2.1445312 0.7089844,-0.7734375 1.7753907,-0.7734375 0.902344,0 1.482422,0.5976563 0.580078,0.5917968 0.580078,1.5878906 z m 0,-0.3398438 h 2.4843754 q -0.0293,-0.515625 -0.123047,-0.7265625 -0.146485,-0.328125 -0.439453,-0.515625 -0.28711,-0.1875 -0.6035161,-0.1875 -0.4863281,0 -0.8730468,0.3808594 -0.3808594,0.375 -0.4453125,1.0488281 z m 5.9212034,1.7285157 Q 13.90636,-2.1972656 13.642688,-2.625 q -0.263672,-0.4335938 -0.263672,-0.9550781 0,-0.796875 0.597656,-1.3710938 0.603516,-0.5742187 1.541016,-0.5742187 0.767578,0 1.330078,0.375 h 1.136719 q 0.251953,0 0.292968,0.017578 0.04102,0.011719 0.05859,0.046875 0.03516,0.052734 0.03516,0.1875 0,0.1523438 -0.0293,0.2109375 -0.01758,0.029297 -0.06445,0.046875 -0.04102,0.017578 -0.292968,0.017578 h -0.697266 q 0.328125,0.421875 0.328125,1.078125 0,0.75 -0.574219,1.2832031 -0.574218,0.5332032 -1.541015,0.5332032 -0.398438,0 -0.814453,-0.1171875 -0.257813,0.2226562 -0.351563,0.3925781 -0.08789,0.1640625 -0.08789,0.28125 0,0.099609 0.09375,0.19335937 0.09961,0.09375 0.38086,0.13476563 0.164062,0.0234375 0.820312,0.0410156 1.207032,0.0292969 1.564453,0.0820313 0.544922,0.0761719 0.867188,0.40429687 0.328125,0.328125 0.328125,0.80859375 0,0.66210938 -0.621094,1.24218748 -0.914062,0.8554688 -2.384765,0.8554688 -1.13086,0 -1.910157,-0.5097657 -0.439453,-0.2929687 -0.439453,-0.609375 0,-0.140625 0.06445,-0.28125 0.09961,-0.21679683 0.410157,-0.60351558 0.04101,-0.0527344 0.597656,-0.6328125 Q 13.713,-0.22851563 13.584094,-0.36914063 13.461047,-0.515625 13.461047,-0.69726562 q 0,-0.20507813 0.164063,-0.48046878 0.169922,-0.2753906 0.773437,-0.7792968 z m 1.019531,-3.2871094 q -0.433593,0 -0.726562,0.3457031 -0.292969,0.3457031 -0.292969,1.0605469 0,0.9257812 0.398438,1.4355468 0.304687,0.3867188 0.773437,0.3867188 0.445313,0 0.732422,-0.3339844 0.287109,-0.3339844 0.287109,-1.0488281 0,-0.9316406 -0.404296,-1.4589844 -0.298829,-0.3867187 -0.767579,-0.3867187 z M 14.339953,0 q -0.27539,0.29882813 -0.416015,0.55664062 -0.140625,0.25781251 -0.140625,0.47460938 0,0.28125 0.339844,0.4921875 0.585937,0.3632812 1.693359,0.3632812 1.054687,0 1.552734,-0.375 0.503907,-0.3691406 0.503907,-0.79101558 0,-0.30468749 -0.298829,-0.43359374 Q 17.269641,0.15820312 16.367297,0.13476562 15.048938,0.09960937 14.339953,0 Z m 5.868282,-8.3320313 q 0.246094,0 0.416015,0.1757813 0.175782,0.1699219 0.175782,0.4160156 0,0.2460938 -0.175782,0.421875 -0.169921,0.1757813 -0.416015,0.1757813 -0.246094,0 -0.421875,-0.1757813 -0.175781,-0.1757812 -0.175781,-0.421875 0,-0.2460937 0.169921,-0.4160156 0.175782,-0.1757813 0.427735,-0.1757813 z m 0.486328,2.8066407 v 4.3125 q 0,0.50390623 0.07031,0.6738281 0.07617,0.1640625 0.216797,0.24609375 0.146485,0.0820313 0.527344,0.0820313 V 0 h -2.607422 v -0.2109375 q 0.392578,0 0.527344,-0.0761719 0.134766,-0.0761719 0.210937,-0.25195312 0.08203,-0.17578125 0.08203,-0.67382808 V -3.28125 q 0,-0.8730469 -0.05274,-1.1308594 -0.04101,-0.1875 -0.128906,-0.2578125 -0.08789,-0.076172 -0.240234,-0.076172 -0.164063,0 -0.398438,0.087891 l -0.08203,-0.2109375 1.617187,-0.65625 z m 3.043032,-1.6054688 v 1.7636719 h 1.253906 v 0.4101563 h -1.253906 v 3.4804687 q 0,0.52148437 0.146484,0.703125 0.152344,0.18164063 0.386719,0.18164063 0.193359,0 0.375,-0.1171875 0.18164,-0.12304688 0.28125,-0.35742183 h 0.228515 q -0.205078,0.5742187 -0.580078,0.86718745 -0.375,0.28710937 -0.773437,0.28710937 -0.269532,0 -0.527344,-0.14648437 -0.257813,-0.15234375 -0.380859,-0.42773438 -0.123047,-0.28124999 -0.123047,-0.86132807 v -3.609375 h -0.84961 v -0.1933594 q 0.322266,-0.1289063 0.65625,-0.4335938 0.339844,-0.3105468 0.603516,-0.7324218 0.134766,-0.2226563 0.375,-0.8144532 z m 3.17864,-1.2011719 q 0.246094,0 0.416016,0.1757813 0.175781,0.1699219 0.175781,0.4160156 0,0.2460938 -0.175781,0.421875 -0.169922,0.1757813 -0.416016,0.1757813 -0.246094,0 -0.421875,-0.1757813 -0.175781,-0.1757812 -0.175781,-0.421875 0,-0.2460937 0.169922,-0.4160156 0.175781,-0.1757813 0.427734,-0.1757813 z m 0.486328,2.8066407 v 4.3125 q 0,0.50390623 0.07031,0.6738281 0.07617,0.1640625 0.216796,0.24609375 0.146485,0.0820313 0.527344,0.0820313 V 0 h -2.607422 v -0.2109375 q 0.392578,0 0.527344,-0.0761719 0.134766,-0.0761719 0.210938,-0.25195312 0.08203,-0.17578125 0.08203,-0.67382808 V -3.28125 q 0,-0.8730469 -0.05273,-1.1308594 -0.04102,-0.1875 -0.128906,-0.2578125 -0.08789,-0.076172 -0.240234,-0.076172 -0.164063,0 -0.398438,0.087891 l -0.08203,-0.2109375 1.617188,-0.65625 z m 3.078186,1.1425781 q 0.585938,-0.5859375 0.691406,-0.6738281 0.263672,-0.2226563 0.56836,-0.3457031 0.304687,-0.1230469 0.603515,-0.1230469 0.503907,0 0.867188,0.2929687 0.363281,0.2929688 0.486328,0.8496094 0.603516,-0.703125 1.019531,-0.9199219 0.416016,-0.2226562 0.855469,-0.2226562 0.427734,0 0.755859,0.2226562 0.333985,0.2167969 0.527344,0.7148438 0.128906,0.3398437 0.128906,1.0664062 v 2.3085938 q 0,0.50390623 0.07617,0.69140623 0.05859,0.12890624 0.216797,0.22265624 0.158203,0.0878906 0.515625,0.0878906 V 0 H 35.14481 v -0.2109375 h 0.111328 q 0.345703,0 0.539062,-0.13476563 0.134766,-0.09375 0.19336,-0.29882812 0.02344,-0.0996094 0.02344,-0.56835935 v -2.3085938 q 0,-0.65625 -0.158203,-0.9257812 -0.228516,-0.375 -0.732422,-0.375 -0.310547,0 -0.626953,0.1582031 -0.310547,0.1523438 -0.755859,0.5742188 l -0.01172,0.064453 0.01172,0.2519531 v 2.5605469 q 0,0.55078123 0.05859,0.68554685 0.06445,0.13476562 0.234375,0.22851562 0.169922,0.0878906 0.580079,0.0878906 V 0 h -2.712891 v -0.2109375 q 0.445312,0 0.609375,-0.10546875 0.169922,-0.10546875 0.234375,-0.31640625 0.0293,-0.0996094 0.0293,-0.5800781 v -2.3085938 q 0,-0.65625 -0.19336,-0.9433593 -0.257812,-0.375 -0.720703,-0.375 -0.316406,0 -0.626953,0.1699218 -0.486328,0.2578125 -0.75,0.5800782 v 2.8769531 q 0,0.52734373 0.07031,0.68554685 0.07617,0.15820312 0.216797,0.24023437 0.146484,0.0761719 0.585937,0.0761719 V 0 h -2.654297 v -0.2109375 q 0.369141,0 0.515625,-0.0761719 0.146485,-0.0820313 0.222656,-0.25195312 0.07617,-0.17578125 0.07617,-0.67382808 v -2.0507813 q 0,-0.8847656 -0.05273,-1.1425781 -0.04102,-0.1933594 -0.128906,-0.2636719 -0.08789,-0.076172 -0.240235,-0.076172 -0.164062,0 -0.392578,0.087891 l -0.08789,-0.2109375 1.617187,-0.65625 h 0.251953 z m 10.819265,3.609375 q -0.826171,0.63867188 -1.037109,0.73828125 -0.316406,0.14648437 -0.673828,0.14648437 -0.556641,0 -0.919922,-0.38085937 -0.357422,-0.38085937 -0.357422,-1.00195315 0,-0.3925781 0.175781,-0.6796875 0.240235,-0.3984375 0.832032,-0.75 0.597656,-0.3515625 1.980468,-0.8554687 v -0.2109375 q 0,-0.8027344 -0.257812,-1.1015625 -0.251953,-0.2988281 -0.738281,-0.2988281 -0.369141,0 -0.585938,0.1992187 -0.222656,0.1992188 -0.222656,0.4570313 l 0.01172,0.3398437 q 0,0.2695312 -0.140625,0.4160156 -0.134766,0.1464844 -0.357422,0.1464844 -0.216797,0 -0.357422,-0.1523438 -0.134766,-0.1523437 -0.134766,-0.4160156 0,-0.5039062 0.515625,-0.9257812 0.515625,-0.421875 1.447266,-0.421875 0.714844,0 1.171875,0.2402344 0.345703,0.1816406 0.509766,0.5683593 0.105468,0.2519532 0.105468,1.03125 v 1.8222657 q 0,0.7675781 0.0293,0.94335932 0.0293,0.16992188 0.09375,0.22851563 0.07031,0.0585938 0.158203,0.0585938 0.09375,0 0.164063,-0.0410156 Q 42.835171,-0.75 43.186733,-1.1015625 v 0.328125 q -0.65625,0.87890625 -1.253906,0.87890625 -0.287109,0 -0.457031,-0.19921875 -0.169922,-0.19921875 -0.175782,-0.6796875 z m 0,-0.3808594 v -2.0449219 q -0.884765,0.3515625 -1.142578,0.4980469 -0.46289,0.2578125 -0.662109,0.5390625 -0.199219,0.28125 -0.199219,0.6152344 0,0.421875 0.251953,0.703125 0.251953,0.27539063 0.580078,0.27539063 0.445313,0 1.171875,-0.58593753 z m 6.797581,-0.8847656 q -0.216797,1.06054687 -0.849609,1.63476562 -0.632813,0.56835938 -1.400391,0.56835938 -0.914062,0 -1.59375,-0.76757812 -0.679687,-0.76757808 -0.679687,-2.07421878 0,-1.265625 0.75,-2.0566406 0.755859,-0.7910156 1.810547,-0.7910156 0.791015,0 1.300781,0.421875 0.509765,0.4160156 0.509765,0.8671875 0,0.2226562 -0.146484,0.3632812 -0.140625,0.1347656 -0.398437,0.1347656 -0.345704,0 -0.521485,-0.2226562 -0.09961,-0.1230469 -0.134765,-0.46875 -0.0293,-0.3457031 -0.234375,-0.5273437 -0.205079,-0.1757813 -0.56836,-0.1757813 -0.585937,0 -0.943359,0.4335938 -0.47461,0.5742187 -0.47461,1.5175781 0,0.9609375 0.46875,1.6992187 Q 45.466736,-0.75 46.26947,-0.75 q 0.574219,0 1.03125,-0.3925781 0.322266,-0.2695313 0.626953,-0.9785157 z m 2.08664,-6.2929688 q 0.246093,0 0.416015,0.1757813 0.175781,0.1699219 0.175781,0.4160156 0,0.2460938 -0.175781,0.421875 -0.169922,0.1757813 -0.416015,0.1757813 -0.246094,0 -0.421875,-0.1757813 -0.175782,-0.1757812 -0.175782,-0.421875 0,-0.2460937 0.169922,-0.4160156 0.175781,-0.1757813 0.427735,-0.1757813 z m 0.486328,2.8066407 v 4.3125 q 0,0.50390623 0.07031,0.6738281 0.07617,0.1640625 0.216797,0.24609375 0.146484,0.0820313 0.527344,0.0820313 V 0 h -2.607422 v -0.2109375 q 0.392578,0 0.527344,-0.0761719 0.134765,-0.0761719 0.210937,-0.25195312 0.08203,-0.17578125 0.08203,-0.67382808 V -3.28125 q 0,-0.8730469 -0.05273,-1.1308594 -0.04102,-0.1875 -0.128906,-0.2578125 -0.08789,-0.076172 -0.240235,-0.076172 -0.164062,0 -0.398437,0.087891 l -0.08203,-0.2109375 1.617187,-0.65625 z m 4.109436,0 q 1.21875,0 1.957031,0.9257812 0.626953,0.7910156 0.626953,1.8164063 0,0.7207031 -0.345703,1.4589844 -0.345703,0.7382812 -0.955078,1.1132812 -0.603516,0.375 -1.347656,0.375 -1.212891,0 -1.927735,-0.96679688 -0.603515,-0.81445312 -0.603515,-1.82812502 0,-0.7382812 0.363281,-1.4648437 0.369141,-0.7324219 0.966797,-1.078125 0.597656,-0.3515625 1.265625,-0.3515625 z m -0.181641,0.3808594 q -0.310547,0 -0.626953,0.1875 -0.310547,0.1816406 -0.503906,0.6445312 -0.19336,0.4628906 -0.19336,1.1894531 0,1.171875 0.462891,2.0214844 0.46875,0.84960937 1.230469,0.84960937 0.568359,0 0.9375,-0.46874999 0.36914,-0.46874998 0.36914,-1.61132818 0,-1.4296875 -0.615234,-2.2499999 -0.416016,-0.5625 -1.060547,-0.5625 z m 1.417969,-3.0000001 -1.728516,2.0214844 h -0.199218 l 0.615234,-2.0214844 z m 6.732422,3.7617188 q 0.585937,-0.5859375 0.691406,-0.6738281 0.263672,-0.2226563 0.568359,-0.3457031 0.304688,-0.1230469 0.603516,-0.1230469 0.503906,0 0.867188,0.2929687 0.363281,0.2929688 0.486328,0.8496094 0.603515,-0.703125 1.019531,-0.9199219 0.416016,-0.2226562 0.855469,-0.2226562 0.427734,0 0.755859,0.2226562 0.333984,0.2167969 0.527344,0.7148438 0.128906,0.3398437 0.128906,1.0664062 v 2.3085938 q 0,0.50390623 0.07617,0.69140623 0.05859,0.12890624 0.216797,0.22265624 0.158203,0.0878906 0.515625,0.0878906 V 0 h -2.648438 v -0.2109375 h 0.111328 q 0.345704,0 0.539063,-0.13476563 0.134766,-0.09375 0.193359,-0.29882812 0.02344,-0.0996094 0.02344,-0.56835935 v -2.3085938 q 0,-0.65625 -0.158203,-0.9257812 -0.228516,-0.375 -0.732422,-0.375 -0.310547,0 -0.626953,0.1582031 -0.310547,0.1523438 -0.75586,0.5742188 l -0.01172,0.064453 0.01172,0.2519531 v 2.5605469 q 0,0.55078123 0.05859,0.68554685 0.06445,0.13476562 0.234375,0.22851562 0.169922,0.0878906 0.580078,0.0878906 V 0 h -2.71289 v -0.2109375 q 0.445312,0 0.609375,-0.10546875 0.169921,-0.10546875 0.234375,-0.31640625 0.0293,-0.0996094 0.0293,-0.5800781 v -2.3085938 q 0,-0.65625 -0.193359,-0.9433593 -0.257812,-0.375 -0.720703,-0.375 -0.316406,0 -0.626953,0.1699218 -0.486328,0.2578125 -0.75,0.5800782 v 2.8769531 q 0,0.52734373 0.07031,0.68554685 0.07617,0.15820312 0.216797,0.24023437 0.146485,0.0761719 0.585938,0.0761719 V 0 h -2.654297 v -0.2109375 q 0.36914,0 0.515625,-0.0761719 0.146484,-0.0820313 0.222656,-0.25195312 0.07617,-0.17578125 0.07617,-0.67382808 v -2.0507813 q 0,-0.8847656 -0.05273,-1.1425781 -0.04102,-0.1933594 -0.128907,-0.2636719 -0.08789,-0.076172 -0.240234,-0.076172 -0.164063,0 -0.392578,0.087891 l -0.08789,-0.2109375 1.617188,-0.65625 h 0.251953 z m 8.680595,1.0371094 q -0.0059,1.1953125 0.580078,1.875 0.585938,0.67968748 1.376953,0.67968748 0.527344,0 0.914063,-0.28710938 0.392578,-0.2929687 0.65625,-0.9960938 l 0.181641,0.1171876 q -0.123047,0.8027343 -0.714844,1.4648437 -0.591797,0.65625 -1.482422,0.65625 -0.966797,0 -1.658203,-0.75 -0.685547,-0.7558594 -0.685547,-2.0273438 0,-1.3769531 0.703125,-2.1445312 0.708984,-0.7734375 1.775391,-0.7734375 0.902343,0 1.482421,0.5976563 0.580079,0.5917968 0.580079,1.5878906 z m 0,-0.3398438 h 2.484375 q -0.0293,-0.515625 -0.123047,-0.7265625 -0.146484,-0.328125 -0.439453,-0.515625 -0.287109,-0.1875 -0.603515,-0.1875 -0.486329,0 -0.873047,0.3808594 -0.38086,0.375 -0.445313,1.0488281 z m 7.846405,-1.8398437 v 1.828125 H 79.08239 q -0.222656,-0.8613281 -0.574219,-1.171875 -0.345703,-0.3105469 -0.884766,-0.3105469 -0.410156,0 -0.662109,0.2167969 -0.251953,0.2167969 -0.251953,0.4804687 0,0.328125 0.1875,0.5625 0.181641,0.2402344 0.738281,0.5097656 l 0.855469,0.4160157 q 1.189453,0.5800781 1.189453,1.5292969 0,0.73242183 -0.556641,1.1835937 -0.550781,0.4453125 -1.236328,0.4453125 -0.492187,0 -1.125,-0.17578125 -0.193359,-0.05859375 -0.316406,-0.05859375 -0.134766,0 -0.210937,0.15234375 h -0.19336 V -1.8339844 h 0.19336 q 0.164062,0.8203125 0.626953,1.23632815 0.46289,0.41601563 1.037109,0.41601563 0.404297,0 0.65625,-0.23437501 0.257813,-0.24023437 0.257813,-0.57421875 0,-0.40429682 -0.28711,-0.67968752 -0.28125,-0.2753906 -1.130859,-0.6972656 -0.84961,-0.421875 -1.113281,-0.7617188 -0.263672,-0.3339843 -0.263672,-0.84375 0,-0.6621093 0.451172,-1.1074218 0.457031,-0.4453125 1.177734,-0.4453125 0.316406,0 0.767578,0.1347656 0.298828,0.087891 0.398438,0.087891 0.09375,0 0.146484,-0.041016 0.05273,-0.041016 0.123047,-0.1816406 z m 5.904328,0.1582031 v 3.2519531 q 0,0.9316407 0.04102,1.14257815 0.04687,0.20507813 0.140625,0.28710938 0.09961,0.0820313 0.228516,0.0820313 0.18164,0 0.410156,-0.0996094 l 0.08203,0.20507812 -1.605468,0.66210938 H 84.21328 v -1.13671875 q -0.691407,0.75 -1.054688,0.94335937 -0.363281,0.19335938 -0.767578,0.19335938 -0.451172,0 -0.785156,-0.2578125 Q 81.277733,-0.35742188 81.148827,-0.76757812 81.01992,-1.1777344 81.01992,-1.9277344 v -2.3964843 q 0,-0.3808594 -0.08203,-0.5273438 -0.08203,-0.1464844 -0.246094,-0.2226562 -0.158203,-0.082031 -0.580078,-0.076172 v -0.2167969 h 1.88086 v 3.5917969 q 0,0.75 0.257812,0.98437498 0.263672,0.234375 0.632813,0.234375 0.251953,0 0.568359,-0.15820313 0.322266,-0.15820313 0.761719,-0.60351565 V -4.359375 q 0,-0.4570312 -0.169922,-0.6152344 -0.164063,-0.1640625 -0.691406,-0.1757812 v -0.2167969 z m 2.985237,-0.1582031 v 1.2070312 q 0.673828,-1.2070312 1.382812,-1.2070312 0.322266,0 0.533203,0.1992187 0.210938,0.1933594 0.210938,0.4511719 0,0.2285156 -0.152344,0.3867188 -0.152344,0.1582031 -0.363281,0.1582031 -0.205078,0 -0.462891,-0.1992188 -0.251953,-0.2050781 -0.375,-0.2050781 -0.105469,0 -0.228515,0.1171875 -0.263672,0.2402344 -0.544922,0.7910156 v 2.5722657 q 0,0.44531245 0.111328,0.67382808 0.07617,0.15820312 0.269531,0.26367187 0.193359,0.10546875 0.556641,0.10546875 V 0 h -2.748047 v -0.2109375 q 0.410156,0 0.609375,-0.12890625 0.146484,-0.09375 0.205078,-0.29882812 0.0293,-0.0996094 0.0293,-0.56835933 v -2.0800782 q 0,-0.9375 -0.04102,-1.1132812 -0.03516,-0.1816406 -0.140625,-0.2636719 -0.09961,-0.082031 -0.251953,-0.082031 -0.181641,0 -0.410156,0.087891 l -0.05859,-0.2109375 1.623047,-0.65625 z m 3.328033,2.1796875 q -0.0059,1.1953125 0.580078,1.875 0.585938,0.67968748 1.376953,0.67968748 0.527344,0 0.914063,-0.28710938 0.392578,-0.2929687 0.65625,-0.9960938 l 0.181641,0.1171876 q -0.123047,0.8027343 -0.714844,1.4648437 -0.591797,0.65625 -1.482422,0.65625 -0.966797,0 -1.658203,-0.75 -0.685547,-0.7558594 -0.685547,-2.0273438 0,-1.3769531 0.703125,-2.1445312 0.708984,-0.7734375 1.775391,-0.7734375 0.902343,0 1.482421,0.5976563 0.580079,0.5917968 0.580079,1.5878906 z m 0,-0.3398438 h 2.484375 q -0.0293,-0.515625 -0.123047,-0.7265625 -0.146484,-0.328125 -0.439453,-0.515625 -0.287109,-0.1875 -0.603515,-0.1875 -0.486329,0 -0.873047,0.3808594 -0.38086,0.375 -0.445313,1.0488281 z m 7.810402,-1.8398437 v 1.828125 H 99.11039 q -0.222657,-0.8613281 -0.574219,-1.171875 -0.345703,-0.3105469 -0.884766,-0.3105469 -0.410156,0 -0.662109,0.2167969 -0.251953,0.2167969 -0.251953,0.4804687 0,0.328125 0.1875,0.5625 0.18164,0.2402344 0.738281,0.5097656 l 0.855469,0.4160157 q 1.189453,0.5800781 1.189453,1.5292969 0,0.73242183 -0.556641,1.1835937 -0.550781,0.4453125 -1.236328,0.4453125 -0.492187,0 -1.125,-0.17578125 -0.193359,-0.05859375 -0.316406,-0.05859375 -0.134766,0 -0.210938,0.15234375 H 96.069374 V -1.8339844 h 0.193359 q 0.164063,0.8203125 0.626954,1.23632815 0.46289,0.41601563 1.037109,0.41601563 0.404297,0 0.65625,-0.23437501 0.257812,-0.24023437 0.257812,-0.57421875 0,-0.40429682 -0.287109,-0.67968752 -0.28125,-0.2753906 -1.130859,-0.6972656 -0.84961,-0.421875 -1.113282,-0.7617188 -0.263671,-0.3339843 -0.263671,-0.84375 0,-0.6621093 0.451171,-1.1074218 0.457032,-0.4453125 1.177735,-0.4453125 0.316406,0 0.767578,0.1347656 0.298828,0.087891 0.398437,0.087891 0.09375,0 0.146485,-0.041016 0.05273,-0.041016 0.123047,-0.1816406 z"
       id="text3063"
       clip-path="url(#clipPath3064)"
       transform="matrix(0.35277776,0,0,0.35277776,143.03658,81.046759)"
       aria-label="Legitimació mesures " />
    <path
       style="font-size:12px;font-family:'Times New Roman'"
       d="m 1.9453125,-5.5253906 v 1.2070312 q 0.6738281,-1.2070312 1.3828125,-1.2070312 0.3222656,0 0.5332031,0.1992187 0.2109375,0.1933594 0.2109375,0.4511719 0,0.2285156 -0.1523437,0.3867188 -0.1523438,0.1582031 -0.3632813,0.1582031 -0.2050781,0 -0.4628906,-0.1992188 -0.2519531,-0.2050781 -0.375,-0.2050781 -0.1054687,0 -0.2285156,0.1171875 -0.2636719,0.2402344 -0.5449219,0.7910156 v 2.5722657 q 0,0.44531245 0.1113281,0.67382808 0.076172,0.15820312 0.2695313,0.26367187 0.1933594,0.10546875 0.5566406,0.10546875 V 0 H 0.13476562 v -0.2109375 q 0.41015625,0 0.609375,-0.12890625 0.14648438,-0.09375 0.20507813,-0.29882812 0.0292969,-0.0996094 0.0292969,-0.56835933 v -2.0800782 q 0,-0.9375 -0.0410156,-1.1132812 -0.0351563,-0.1816406 -0.140625,-0.2636719 -0.0996094,-0.082031 -0.25195313,-0.082031 -0.18164062,0 -0.41015625,0.087891 L 0.07617192,-4.86914 1.6992187,-5.52539 Z m 3.3280313,2.1796875 q -0.00586,1.1953125 0.5800781,1.875 0.5859375,0.67968748 1.3769532,0.67968748 0.5273437,0 0.9140625,-0.28710938 0.3925781,-0.2929687 0.65625,-0.9960938 l 0.1816406,0.1171876 q -0.1230469,0.8027343 -0.7148438,1.4648437 -0.5917968,0.65625 -1.4824218,0.65625 -0.9667969,0 -1.6582032,-0.75 -0.6855468,-0.7558594 -0.6855468,-2.0273438 0,-1.3769531 0.703125,-2.1445312 0.7089843,-0.7734375 1.7753906,-0.7734375 0.9023437,0 1.4824219,0.5976563 0.5800781,0.5917968 0.5800781,1.5878906 z m 0,-0.3398438 h 2.484375 q -0.029297,-0.515625 -0.1230469,-0.7265625 -0.1464843,-0.328125 -0.4394531,-0.515625 -0.2871094,-0.1875 -0.6035156,-0.1875 -0.4863281,0 -0.8730469,0.3808594 -0.3808594,0.375 -0.4453125,1.0488281 z M 13.08375,-5.5253906 v 1.828125 h -0.19336 q -0.222656,-0.8613281 -0.574218,-1.171875 -0.345703,-0.3105469 -0.884766,-0.3105469 -0.410156,0 -0.662109,0.2167969 -0.251953,0.2167969 -0.251953,0.4804687 0,0.328125 0.1875,0.5625 0.18164,0.2402344 0.738281,0.5097656 l 0.855469,0.4160157 q 1.189453,0.5800781 1.189453,1.5292969 0,0.73242183 -0.556641,1.1835937 -0.550781,0.4453125 -1.236328,0.4453125 -0.492188,0 -1.125,-0.17578125 -0.193359,-0.05859375 -0.316406,-0.05859375 -0.134766,0 -0.210938,0.15234375 H 9.8493748 V -1.8339844 h 0.1933592 q 0.164063,0.8203125 0.626953,1.23632815 0.462891,0.41601563 1.03711,0.41601563 0.404297,0 0.65625,-0.23437501 0.257812,-0.24023437 0.257812,-0.57421875 0,-0.40429682 -0.287109,-0.67968752 -0.28125,-0.2753906 -1.13086,-0.6972656 -0.849609,-0.421875 -1.113281,-0.7617188 -0.2636717,-0.3339843 -0.2636717,-0.84375 0,-0.6621093 0.4511717,-1.1074218 0.457031,-0.4453125 1.177735,-0.4453125 0.316406,0 0.767578,0.1347656 0.298828,0.087891 0.398437,0.087891 0.09375,0 0.146485,-0.041016 0.05273,-0.041016 0.123046,-0.1816406 z m 2.757844,-1.6054688 v 1.7636719 H 17.0955 v 0.4101563 h -1.253906 v 3.4804687 q 0,0.52148437 0.146484,0.703125 0.152344,0.18164063 0.386719,0.18164063 0.193359,0 0.375,-0.1171875 0.18164,-0.12304688 0.28125,-0.35742183 h 0.228515 q -0.205078,0.5742187 -0.580078,0.86718745 -0.375,0.28710937 -0.773437,0.28710937 -0.269531,0 -0.527344,-0.14648437 -0.257812,-0.15234375 -0.380859,-0.42773438 -0.123047,-0.28124999 -0.123047,-0.86132807 v -3.609375 h -0.84961 v -0.1933594 q 0.322266,-0.1289063 0.65625,-0.4335938 0.339844,-0.3105468 0.603516,-0.7324218 0.134766,-0.2226563 0.375,-0.8144532 z m 3.347718,1.6054688 v 1.2070312 q 0.673828,-1.2070312 1.382812,-1.2070312 0.322266,0 0.533204,0.1992187 0.210937,0.1933594 0.210937,0.4511719 0,0.2285156 -0.152344,0.3867188 -0.152343,0.1582031 -0.363281,0.1582031 -0.205078,0 -0.462891,-0.1992188 -0.251953,-0.2050781 -0.375,-0.2050781 -0.105468,0 -0.228515,0.1171875 -0.263672,0.2402344 -0.544922,0.7910156 v 2.5722657 q 0,0.44531245 0.111328,0.67382808 0.07617,0.15820312 0.269531,0.26367187 0.19336,0.10546875 0.556641,0.10546875 V 0 h -2.748047 v -0.2109375 q 0.410156,0 0.609375,-0.12890625 0.146484,-0.09375 0.205078,-0.29882812 0.0293,-0.0996094 0.0293,-0.56835933 v -2.0800782 q 0,-0.9375 -0.04102,-1.1132812 -0.03516,-0.1816406 -0.140625,-0.2636719 -0.09961,-0.082031 -0.251953,-0.082031 -0.18164,0 -0.410156,0.087891 l -0.05859,-0.2109375 1.623047,-0.65625 z m 3.790922,-2.8066407 q 0.246094,0 0.416016,0.1757813 0.175781,0.1699219 0.175781,0.4160156 0,0.2460938 -0.175781,0.421875 -0.169922,0.1757813 -0.416016,0.1757813 -0.246094,0 -0.421875,-0.1757813 -0.175781,-0.1757812 -0.175781,-0.421875 0,-0.2460937 0.169922,-0.4160156 0.175781,-0.1757813 0.427734,-0.1757813 z m 0.486328,2.8066407 v 4.3125 q 0,0.50390623 0.07031,0.6738281 0.07617,0.1640625 0.216797,0.24609375 0.146484,0.0820313 0.527343,0.0820313 V 0 h -2.607421 v -0.2109375 q 0.392578,0 0.527343,-0.0761719 0.134766,-0.0761719 0.210938,-0.25195312 0.08203,-0.17578125 0.08203,-0.67382808 V -3.28125 q 0,-0.8730469 -0.05273,-1.1308594 -0.04102,-0.1875 -0.128907,-0.2578125 -0.08789,-0.076172 -0.240234,-0.076172 -0.164062,0 -0.398437,0.087891 l -0.08203,-0.2109375 1.617188,-0.65625 z m 6.043032,3.4863281 q -0.216797,1.06054687 -0.849609,1.63476562 -0.632813,0.56835938 -1.400391,0.56835938 -0.914063,0 -1.59375,-0.76757812 -0.679688,-0.76757808 -0.679688,-2.07421878 0,-1.265625 0.75,-2.0566406 0.75586,-0.7910156 1.810547,-0.7910156 0.791016,0 1.300782,0.421875 0.509765,0.4160156 0.509765,0.8671875 0,0.2226562 -0.146484,0.3632812 -0.140625,0.1347656 -0.398438,0.1347656 -0.345703,0 -0.521484,-0.2226562 -0.09961,-0.1230469 -0.134766,-0.46875 -0.0293,-0.3457031 -0.234375,-0.5273437 -0.205078,-0.1757813 -0.568359,-0.1757813 -0.585938,0 -0.943359,0.4335938 -0.47461,0.5742187 -0.47461,1.5175781 0,0.9609375 0.46875,1.6992187 Q 26.878735,-0.75 27.681469,-0.75 q 0.574219,0 1.03125,-0.3925781 0.322266,-0.2695313 0.626953,-0.9785157 z m 2.327999,-5.0917969 v 1.7636719 h 1.253906 v 0.4101563 h -1.253906 v 3.4804687 q 0,0.52148437 0.146484,0.703125 0.152344,0.18164063 0.386719,0.18164063 0.19336,0 0.375,-0.1171875 0.181641,-0.12304688 0.28125,-0.35742183 h 0.228516 q -0.205078,0.5742187 -0.580078,0.86718745 -0.375,0.28710937 -0.773438,0.28710937 -0.269531,0 -0.527344,-0.14648437 Q 31.11689,-0.2109375 30.993843,-0.48632813 30.870796,-0.76757812 30.870796,-1.3476562 v -3.609375 h -0.849609 v -0.1933594 q 0.322265,-0.1289063 0.65625,-0.4335938 0.339844,-0.3105468 0.603515,-0.7324218 0.134766,-0.2226563 0.375,-0.8144532 z m 3.142643,-1.2011719 q 0.246094,0 0.416016,0.1757813 0.175781,0.1699219 0.175781,0.4160156 0,0.2460938 -0.175781,0.421875 -0.169922,0.1757813 -0.416016,0.1757813 -0.246094,0 -0.421875,-0.1757813 -0.175781,-0.1757812 -0.175781,-0.421875 0,-0.2460937 0.169922,-0.4160156 0.175781,-0.1757813 0.427734,-0.1757813 z m 0.486328,2.8066407 v 4.3125 q 0,0.50390623 0.07031,0.6738281 0.07617,0.1640625 0.216797,0.24609375 0.146484,0.0820313 0.527343,0.0820313 V 0 h -2.607422 v -0.2109375 q 0.392579,0 0.527344,-0.0761719 0.134766,-0.0761719 0.210938,-0.25195312 0.08203,-0.17578125 0.08203,-0.67382808 V -3.28125 q 0,-0.8730469 -0.05273,-1.1308594 -0.04102,-0.1875 -0.128907,-0.2578125 -0.08789,-0.076172 -0.240234,-0.076172 -0.164063,0 -0.398438,0.087891 l -0.08203,-0.2109375 1.617188,-0.65625 z m 1.209046,0.1582031 H 39.201 v 0.2167969 h -0.164062 q -0.228516,0 -0.351563,0.1113281 -0.117187,0.1113281 -0.117187,0.2988281 0,0.2050782 0.123047,0.4863282 l 1.248046,2.9648437 1.253907,-3.0761719 q 0.134765,-0.328125 0.134765,-0.4980468 0,-0.082031 -0.04687,-0.1347657 -0.06445,-0.087891 -0.164062,-0.1171875 -0.09961,-0.035156 -0.404297,-0.035156 v -0.2167969 h 1.751953 v 0.2167969 q -0.304687,0.023437 -0.421875,0.1230469 -0.205078,0.1757812 -0.369141,0.5859375 L 39.76936,0.1640625 H 39.529125 L 37.61311,-4.3652344 q -0.128907,-0.3164062 -0.246094,-0.4511718 -0.117188,-0.140625 -0.298828,-0.234375 -0.09961,-0.052734 -0.392578,-0.099609 z m 7.177734,2.0214844 q -0.0059,1.1953125 0.580078,1.875 0.585938,0.67968748 1.376953,0.67968748 0.527344,0 0.914063,-0.28710938 0.392578,-0.2929687 0.65625,-0.9960938 l 0.18164,0.1171876 q -0.123047,0.8027343 -0.714843,1.4648437 -0.591797,0.65625 -1.482422,0.65625 -0.966797,0 -1.658203,-0.75 -0.685547,-0.7558594 -0.685547,-2.0273438 0,-1.3769531 0.703125,-2.1445312 0.708984,-0.7734375 1.77539,-0.7734375 0.902344,0 1.482422,0.5976563 0.580078,0.5917968 0.580078,1.5878906 z m 0,-0.3398438 h 2.484375 q -0.0293,-0.515625 -0.123047,-0.7265625 -0.146484,-0.328125 -0.439453,-0.515625 -0.287109,-0.1875 -0.603516,-0.1875 -0.486328,0 -0.873047,0.3808594 -0.380859,0.375 -0.445312,1.0488281 z m 7.894405,-1.8398437 v 1.828125 H 51.55439 q -0.222656,-0.8613281 -0.574219,-1.171875 -0.345703,-0.3105469 -0.884765,-0.3105469 -0.410157,0 -0.66211,0.2167969 -0.251953,0.2167969 -0.251953,0.4804687 0,0.328125 0.1875,0.5625 0.181641,0.2402344 0.738281,0.5097656 l 0.855469,0.4160157 q 1.189453,0.5800781 1.189453,1.5292969 0,0.73242183 -0.55664,1.1835937 -0.550782,0.4453125 -1.236329,0.4453125 -0.492187,0 -1.125,-0.17578125 -0.193359,-0.05859375 -0.316406,-0.05859375 -0.134765,0 -0.210937,0.15234375 h -0.19336 V -1.8339844 h 0.19336 q 0.164062,0.8203125 0.626953,1.23632815 0.46289,0.41601563 1.037109,0.41601563 0.404297,0 0.65625,-0.23437501 0.257813,-0.24023437 0.257813,-0.57421875 0,-0.40429682 -0.28711,-0.67968752 -0.28125,-0.2753906 -1.130859,-0.6972656 -0.849609,-0.421875 -1.113281,-0.7617188 -0.263672,-0.3339843 -0.263672,-0.84375 0,-0.6621093 0.451172,-1.1074218 0.457031,-0.4453125 1.177734,-0.4453125 0.316406,0 0.767578,0.1347656 0.298828,0.087891 0.398438,0.087891 0.09375,0 0.146484,-0.041016 0.05273,-0.041016 0.123047,-0.1816406 z"
       id="text3064"
       clip-path="url(#clipPath3065)"
       transform="matrix(0.35277776,0,0,0.35277776,151.41858,86.084426)"
       aria-label="restrictives" />
    <path
       style="font-size:12px;font-family:'Times New Roman'"
       d="m 0.20507813,0 v -0.21679688 h 0.29882812 q 0.50390625,0 0.71484375,-0.32226562 0.1289062,-0.19335937 0.1289062,-0.8671875 v -5.1328125 q 0,-0.7441406 -0.1640625,-0.9316406 Q 0.95507813,-7.7285156 0.50390625,-7.7285156 H 0.20507813 V -7.9453125 H 3.4394531 q 1.78125,0 2.7070313,0.4042969 0.9316406,0.4042969 1.4941406,1.3476562 0.5683594,0.9433594 0.5683594,2.1796875 0,1.6582031 -1.0078125,2.7714844 Q 6.0703125,0 3.7558594,0 Z M 2.4726563,-0.57421875 q 0.7441406,0.1640625 1.2480468,0.1640625 1.359375,0 2.2558594,-0.95507815 0.8964844,-0.9550781 0.8964844,-2.5898437 0,-1.6464844 -0.8964844,-2.5957031 Q 5.0800781,-7.5 3.6738281,-7.5 q -0.5273437,0 -1.2011718,0.1699219 z m 7.468687,-2.77148435 q -0.00586,1.1953125 0.5800777,1.875 0.585938,0.67968748 1.376954,0.67968748 0.527343,0 0.914062,-0.28710938 0.392578,-0.2929687 0.65625,-0.9960938 l 0.181641,0.1171876 q -0.123047,0.8027343 -0.714844,1.4648437 -0.591797,0.65625 -1.482422,0.65625 -0.966797,0 -1.6582031,-0.75 -0.6855468,-0.7558594 -0.6855468,-2.0273438 0,-1.3769531 0.703125,-2.1445312 0.7089839,-0.7734375 1.7753909,-0.7734375 0.902343,0 1.482422,0.5976563 0.580078,0.5917968 0.580078,1.5878906 z m 0,-0.3398438 h 2.4843747 q -0.0293,-0.515625 -0.123047,-0.7265625 -0.146484,-0.328125 -0.439453,-0.515625 -0.287109,-0.1875 -0.603515,-0.1875 -0.486328,0 -0.873047,0.3808594 -0.38086,0.375 -0.4453127,1.0488281 z m 6.1993597,-4.6464844 v 7.1191407 q 0,0.50390623 0.07031,0.66796873 0.07617,0.16406249 0.228515,0.25195312 0.152344,0.0820313 0.56836,0.0820313 V 0 h -2.63086 v -0.2109375 q 0.369141,0 0.503907,-0.0761719 0.134765,-0.0761719 0.210937,-0.25195312 0.07617,-0.17578125 0.07617,-0.67382808 v -4.875 q 0,-0.9082031 -0.04102,-1.1132813 -0.04101,-0.2109375 -0.134765,-0.2871093 -0.08789,-0.076172 -0.228516,-0.076172 -0.152344,0 -0.386719,0.09375 l -0.09961,-0.2050781 1.599609,-0.6562501 z m 2.855532,0 q 0.246094,0 0.416016,0.1757813 0.175781,0.1699219 0.175781,0.4160156 0,0.2460938 -0.175781,0.421875 -0.169922,0.1757813 -0.416016,0.1757813 -0.246094,0 -0.421875,-0.1757813 -0.175781,-0.1757812 -0.175781,-0.421875 0,-0.2460937 0.169922,-0.4160156 0.175781,-0.1757813 0.427734,-0.1757813 z m 0.486328,2.8066407 v 4.3125 q 0,0.50390623 0.07031,0.6738281 0.07617,0.1640625 0.216796,0.24609375 0.146485,0.0820313 0.527344,0.0820313 V 0 h -2.607422 v -0.2109375 q 0.392578,0 0.527344,-0.0761719 0.134766,-0.0761719 0.210938,-0.25195312 0.08203,-0.17578125 0.08203,-0.67382808 V -3.28125 q 0,-0.8730469 -0.05273,-1.1308594 -0.04102,-0.1875 -0.128906,-0.2578125 -0.08789,-0.076172 -0.240234,-0.076172 -0.164063,0 -0.398438,0.087891 l -0.08203,-0.2109375 1.617188,-0.65625 z m 6.079031,3.4863281 q -0.216797,1.06054687 -0.849609,1.63476562 -0.632813,0.56835938 -1.400391,0.56835938 -0.914062,0 -1.59375,-0.76757812 -0.679687,-0.76757808 -0.679687,-2.07421878 0,-1.265625 0.75,-2.0566406 0.755859,-0.7910156 1.810546,-0.7910156 0.791016,0 1.300782,0.421875 0.509765,0.4160156 0.509765,0.8671875 0,0.2226562 -0.146484,0.3632812 -0.140625,0.1347656 -0.398438,0.1347656 -0.345703,0 -0.521484,-0.2226562 -0.09961,-0.1230469 -0.134766,-0.46875 -0.0293,-0.3457031 -0.234375,-0.5273437 -0.205078,-0.1757813 -0.568359,-0.1757813 -0.585937,0 -0.943359,0.4335938 -0.47461,0.5742187 -0.47461,1.5175781 0,0.9609375 0.46875,1.6992187 Q 22.930735,-0.75 23.733469,-0.75 q 0.574219,0 1.03125,-0.3925781 0.322266,-0.2695313 0.626953,-0.9785157 z m 2.280001,-5.0917969 v 1.7636719 h 1.253906 v 0.4101563 h -1.253906 v 3.4804687 q 0,0.52148437 0.146484,0.703125 0.152344,0.18164063 0.386719,0.18164063 0.193359,0 0.375,-0.1171875 0.18164,-0.12304688 0.28125,-0.35742183 h 0.228515 q -0.205078,0.5742187 -0.580078,0.86718745 -0.375,0.28710937 -0.773437,0.28710937 -0.269531,0 -0.527344,-0.14648437 -0.257812,-0.15234375 -0.380859,-0.42773438 -0.123047,-0.28124999 -0.123047,-0.86132807 v -3.609375 h -0.84961 v -0.1933594 q 0.322266,-0.1289063 0.65625,-0.4335938 0.339844,-0.3105468 0.603516,-0.7324218 0.134766,-0.2226563 0.375,-0.8144532 z m 2.679748,3.7851563 q -0.0059,1.1953125 0.580078,1.875 0.585938,0.67968748 1.376953,0.67968748 0.527344,0 0.914063,-0.28710938 0.392578,-0.2929687 0.65625,-0.9960938 l 0.181641,0.1171876 q -0.123047,0.8027343 -0.714844,1.4648437 -0.591797,0.65625 -1.482422,0.65625 -0.966797,0 -1.658203,-0.75 -0.685547,-0.7558594 -0.685547,-2.0273438 0,-1.3769531 0.703125,-2.1445312 0.708984,-0.7734375 1.775391,-0.7734375 0.902343,0 1.482421,0.5976563 0.580079,0.5917968 0.580079,1.5878906 z m 0,-0.3398438 h 2.484375 q -0.0293,-0.515625 -0.123047,-0.7265625 -0.146484,-0.328125 -0.439453,-0.515625 -0.287109,-0.1875 -0.603515,-0.1875 -0.486329,0 -0.873047,0.3808594 -0.38086,0.375 -0.445313,1.0488281 z m 10.894406,-1.8398437 v 1.828125 h -0.19336 q -0.222656,-0.8613281 -0.574219,-1.171875 -0.345703,-0.3105469 -0.884765,-0.3105469 -0.410156,0 -0.66211,0.2167969 -0.251953,0.2167969 -0.251953,0.4804687 0,0.328125 0.1875,0.5625 0.181641,0.2402344 0.738282,0.5097656 l 0.855468,0.4160157 q 1.189453,0.5800781 1.189453,1.5292969 0,0.73242183 -0.55664,1.1835937 -0.550781,0.4453125 -1.236328,0.4453125 -0.492188,0 -1.125,-0.17578125 -0.19336,-0.05859375 -0.316407,-0.05859375 -0.134765,0 -0.210937,0.15234375 H 38.181374 V -1.8339844 h 0.193359 q 0.164062,0.8203125 0.626953,1.23632815 0.462891,0.41601563 1.037109,0.41601563 0.404297,0 0.65625,-0.23437501 0.257813,-0.24023437 0.257813,-0.57421875 0,-0.40429682 -0.287109,-0.67968752 -0.28125,-0.2753906 -1.13086,-0.6972656 -0.849609,-0.421875 -1.113281,-0.7617188 -0.263672,-0.3339843 -0.263672,-0.84375 0,-0.6621093 0.451172,-1.1074218 0.457031,-0.4453125 1.177734,-0.4453125 0.316407,0 0.767578,0.1347656 0.298829,0.087891 0.398438,0.087891 0.09375,0 0.146484,-0.041016 0.05273,-0.041016 0.123047,-0.1816406 z m 2.564487,-2.8066407 q 0.246094,0 0.416016,0.1757813 0.175781,0.1699219 0.175781,0.4160156 0,0.2460938 -0.175781,0.421875 -0.169922,0.1757813 -0.416016,0.1757813 -0.246094,0 -0.421875,-0.1757813 -0.175781,-0.1757812 -0.175781,-0.421875 0,-0.2460937 0.169922,-0.4160156 0.175781,-0.1757813 0.427734,-0.1757813 z m 0.486328,2.8066407 v 4.3125 q 0,0.50390623 0.07031,0.6738281 0.07617,0.1640625 0.216797,0.24609375 0.146484,0.0820313 0.527343,0.0820313 V 0 h -2.607422 v -0.2109375 q 0.392579,0 0.527344,-0.0761719 0.134766,-0.0761719 0.210938,-0.25195312 0.08203,-0.17578125 0.08203,-0.67382808 V -3.28125 q 0,-0.8730469 -0.05273,-1.1308594 -0.04102,-0.1875 -0.128907,-0.2578125 -0.08789,-0.076172 -0.240234,-0.076172 -0.164063,0 -0.398438,0.087891 l -0.08203,-0.2109375 1.617188,-0.65625 z m 3.078186,1.1425781 q 0.585938,-0.5859375 0.691406,-0.6738281 0.263672,-0.2226563 0.56836,-0.3457031 0.304687,-0.1230469 0.603515,-0.1230469 0.503907,0 0.867188,0.2929687 0.363281,0.2929688 0.486328,0.8496094 0.603516,-0.703125 1.019531,-0.9199219 0.416016,-0.2226562 0.855469,-0.2226562 0.427734,0 0.755859,0.2226562 0.333985,0.2167969 0.527344,0.7148438 0.128906,0.3398437 0.128906,1.0664062 v 2.3085938 q 0,0.50390623 0.07617,0.69140623 0.05859,0.12890624 0.216797,0.22265624 0.158203,0.0878906 0.515625,0.0878906 V 0 h -2.648437 v -0.2109375 h 0.111328 q 0.345703,0 0.539062,-0.13476563 0.134766,-0.09375 0.19336,-0.29882812 0.02344,-0.0996094 0.02344,-0.56835935 v -2.3085938 q 0,-0.65625 -0.158203,-0.9257812 -0.228516,-0.375 -0.732422,-0.375 -0.310547,0 -0.626953,0.1582031 -0.310547,0.1523438 -0.755859,0.5742188 l -0.01172,0.064453 0.01172,0.2519531 v 2.5605469 q 0,0.55078123 0.05859,0.68554685 0.06445,0.13476562 0.234375,0.22851562 0.169922,0.0878906 0.580079,0.0878906 V 0 h -2.712891 v -0.2109375 q 0.445312,0 0.609375,-0.10546875 0.169922,-0.10546875 0.234375,-0.31640625 0.0293,-0.0996094 0.0293,-0.5800781 v -2.3085938 q 0,-0.65625 -0.19336,-0.9433593 -0.257812,-0.375 -0.720703,-0.375 -0.316406,0 -0.626953,0.1699218 -0.486328,0.2578125 -0.75,0.5800782 v 2.8769531 q 0,0.52734373 0.07031,0.68554685 0.07617,0.15820312 0.216797,0.24023437 0.146484,0.0761719 0.585937,0.0761719 V 0 H 45.7635 v -0.2109375 q 0.369141,0 0.515625,-0.0761719 0.146485,-0.0820313 0.222656,-0.25195312 0.07617,-0.17578125 0.07617,-0.67382808 v -2.0507813 q 0,-0.8847656 -0.05273,-1.1425781 -0.04102,-0.1933594 -0.128906,-0.2636719 -0.08789,-0.076172 -0.240235,-0.076172 -0.164062,0 -0.392578,0.087891 l -0.08789,-0.2109375 1.617187,-0.65625 h 0.251953 z m 9.236954,-0.058594 q 0.779297,-1.0839844 1.681641,-1.0839844 0.826171,0 1.441406,0.7089844 0.615234,0.703125 0.615234,1.9277343 0,1.4296875 -0.949219,2.3027344 -0.814453,0.75 -1.816406,0.75 -0.46875,0 -0.955078,-0.16992188 -0.480469,-0.16992187 -0.984375,-0.50976562 v -5.5605469 q 0,-0.9140625 -0.04687,-1.125 -0.04102,-0.2109375 -0.134766,-0.2871093 -0.09375,-0.076172 -0.234375,-0.076172 -0.164062,0 -0.410156,0.09375 l -0.08203,-0.2050781 1.611328,-0.6562501 h 0.263672 z m 0,0.375 v 3.21093745 q 0.298828,0.29296875 0.615234,0.4453125 0.322266,0.14648437 0.65625,0.14648437 0.533203,0 0.990235,-0.5859375 0.46289,-0.58593752 0.46289,-1.70507812 0,-1.03125 -0.46289,-1.5820312 -0.457032,-0.5566407 -1.042969,-0.5566407 -0.310547,0 -0.621094,0.1582032 -0.234375,0.1171875 -0.597656,0.46875 z m 7.154297,-1.4589844 q 1.21875,0 1.957031,0.9257812 0.626953,0.7910156 0.626953,1.8164063 0,0.7207031 -0.345703,1.4589844 -0.345703,0.7382812 -0.955078,1.1132812 -0.603516,0.375 -1.347656,0.375 -1.212891,0 -1.927735,-0.96679688 -0.603515,-0.81445312 -0.603515,-1.82812502 0,-0.7382812 0.363281,-1.4648437 0.369141,-0.7324219 0.966797,-1.078125 0.597656,-0.3515625 1.265625,-0.3515625 z m -0.181641,0.3808594 q -0.310547,0 -0.626953,0.1875 -0.310547,0.1816406 -0.503906,0.6445312 -0.19336,0.4628906 -0.19336,1.1894531 0,1.171875 0.462891,2.0214844 0.46875,0.84960937 1.230469,0.84960937 0.568359,0 0.9375,-0.46874999 0.36914,-0.46874998 0.36914,-1.61132818 0,-1.4296875 -0.615234,-2.2499999 -0.416016,-0.5625 -1.060547,-0.5625 z m -1.054687,-3.0000001 h 1.30664 l 0.621094,2.0214844 h -0.205078 z m 6.457027,-0.1875 v 7.1191407 q 0,0.50390623 0.07031,0.66796873 0.07617,0.16406249 0.228515,0.25195312 0.152344,0.0820313 0.56836,0.0820313 V 0 h -2.63086 v -0.2109375 q 0.369141,0 0.503907,-0.0761719 0.134765,-0.0761719 0.210937,-0.25195312 0.07617,-0.17578125 0.07617,-0.67382808 v -4.875 q 0,-0.9082031 -0.04102,-1.1132813 -0.04102,-0.2109375 -0.134765,-0.2871093 -0.08789,-0.076172 -0.228516,-0.076172 -0.152344,0 -0.386719,0.09375 l -0.09961,-0.2050781 1.599609,-0.6562501 z m 2.855538,0 q 0.246093,0 0.416015,0.1757813 0.175781,0.1699219 0.175781,0.4160156 0,0.2460938 -0.175781,0.421875 -0.169922,0.1757813 -0.416015,0.1757813 -0.246094,0 -0.421875,-0.1757813 -0.175782,-0.1757812 -0.175782,-0.421875 0,-0.2460937 0.169922,-0.4160156 0.175781,-0.1757813 0.427735,-0.1757813 z m 0.486328,2.8066407 v 4.3125 q 0,0.50390623 0.07031,0.6738281 0.07617,0.1640625 0.216797,0.24609375 0.146484,0.0820313 0.527344,0.0820313 V 0 h -2.607422 v -0.2109375 q 0.392578,0 0.527344,-0.0761719 0.134765,-0.0761719 0.210937,-0.25195312 0.08203,-0.17578125 0.08203,-0.67382808 V -3.28125 q 0,-0.8730469 -0.05273,-1.1308594 -0.04102,-0.1875 -0.128906,-0.2578125 -0.08789,-0.076172 -0.240235,-0.076172 -0.164062,0 -0.398437,0.087891 l -0.08203,-0.2109375 1.617187,-0.65625 z m 6.079025,3.4863281 q -0.216797,1.06054687 -0.849609,1.63476562 -0.632813,0.56835938 -1.400391,0.56835938 -0.914063,0 -1.59375,-0.76757812 -0.679688,-0.76757808 -0.679688,-2.07421878 0,-1.265625 0.75,-2.0566406 0.75586,-0.7910156 1.810547,-0.7910156 0.791016,0 1.300782,0.421875 0.509765,0.4160156 0.509765,0.8671875 0,0.2226562 -0.146484,0.3632812 -0.140625,0.1347656 -0.398438,0.1347656 -0.345703,0 -0.521484,-0.2226562 -0.09961,-0.1230469 -0.134766,-0.46875 -0.0293,-0.3457031 -0.234375,-0.5273437 -0.205078,-0.1757813 -0.568359,-0.1757813 -0.585938,0 -0.943359,0.4335938 -0.47461,0.5742187 -0.47461,1.5175781 0,0.9609375 0.46875,1.6992187 Q 75.946732,-0.75 76.749466,-0.75 q 0.574219,0 1.03125,-0.3925781 0.322266,-0.2695313 0.626953,-0.9785157 z"
       id="text3065"
       clip-path="url(#clipPath3066)"
       transform="matrix(0.35277776,0,0,0.35277776,95.824329,47.518759)"
       aria-label="Delicte simbòlic" />
    <path
       style="font-size:12px;font-family:'Times New Roman'"
       d="m 0.20507813,0 v -0.21679688 h 0.29882812 q 0.50390625,0 0.71484375,-0.32226562 0.1289062,-0.19335937 0.1289062,-0.8671875 v -5.1328125 q 0,-0.7441406 -0.1640625,-0.9316406 Q 0.95507813,-7.7285156 0.50390625,-7.7285156 H 0.20507813 V -7.9453125 H 3.4394531 q 1.78125,0 2.7070313,0.4042969 0.9316406,0.4042969 1.4941406,1.3476562 0.5683594,0.9433594 0.5683594,2.1796875 0,1.6582031 -1.0078125,2.7714844 Q 6.0703125,0 3.7558594,0 Z M 2.4726563,-0.57421875 q 0.7441406,0.1640625 1.2480468,0.1640625 1.359375,0 2.2558594,-0.95507815 0.8964844,-0.9550781 0.8964844,-2.5898437 0,-1.6464844 -0.8964844,-2.5957031 Q 5.0800781,-7.5 3.6738281,-7.5 q -0.5273437,0 -1.2011718,0.1699219 z m 7.468687,-2.77148435 q -0.00586,1.1953125 0.5800777,1.875 0.585938,0.67968748 1.376954,0.67968748 0.527343,0 0.914062,-0.28710938 0.392578,-0.2929687 0.65625,-0.9960938 l 0.181641,0.1171876 q -0.123047,0.8027343 -0.714844,1.4648437 -0.591797,0.65625 -1.482422,0.65625 -0.966797,0 -1.6582031,-0.75 -0.6855468,-0.7558594 -0.6855468,-2.0273438 0,-1.3769531 0.703125,-2.1445312 0.7089839,-0.7734375 1.7753909,-0.7734375 0.902343,0 1.482422,0.5976563 0.580078,0.5917968 0.580078,1.5878906 z m 0,-0.3398438 h 2.4843747 q -0.0293,-0.515625 -0.123047,-0.7265625 -0.146484,-0.328125 -0.439453,-0.515625 -0.287109,-0.1875 -0.603515,-0.1875 -0.486328,0 -0.873047,0.3808594 -0.38086,0.375 -0.4453127,1.0488281 z m 6.1993597,-4.6464844 v 7.1191407 q 0,0.50390623 0.07031,0.66796873 0.07617,0.16406249 0.228515,0.25195312 0.152344,0.0820313 0.56836,0.0820313 V 0 h -2.63086 v -0.2109375 q 0.369141,0 0.503907,-0.0761719 0.134765,-0.0761719 0.210937,-0.25195312 0.07617,-0.17578125 0.07617,-0.67382808 v -4.875 q 0,-0.9082031 -0.04102,-1.1132813 -0.04101,-0.2109375 -0.134765,-0.2871093 -0.08789,-0.076172 -0.228516,-0.076172 -0.152344,0 -0.386719,0.09375 l -0.09961,-0.2050781 1.599609,-0.6562501 z m 2.855532,0 q 0.246094,0 0.416016,0.1757813 0.175781,0.1699219 0.175781,0.4160156 0,0.2460938 -0.175781,0.421875 -0.169922,0.1757813 -0.416016,0.1757813 -0.246094,0 -0.421875,-0.1757813 -0.175781,-0.1757812 -0.175781,-0.421875 0,-0.2460937 0.169922,-0.4160156 0.175781,-0.1757813 0.427734,-0.1757813 z m 0.486328,2.8066407 v 4.3125 q 0,0.50390623 0.07031,0.6738281 0.07617,0.1640625 0.216796,0.24609375 0.146485,0.0820313 0.527344,0.0820313 V 0 h -2.607422 v -0.2109375 q 0.392578,0 0.527344,-0.0761719 0.134766,-0.0761719 0.210938,-0.25195312 0.08203,-0.17578125 0.08203,-0.67382808 V -3.28125 q 0,-0.8730469 -0.05273,-1.1308594 -0.04102,-0.1875 -0.128906,-0.2578125 -0.08789,-0.076172 -0.240234,-0.076172 -0.164063,0 -0.398438,0.087891 l -0.08203,-0.2109375 1.617188,-0.65625 z m 6.079031,3.4863281 q -0.216797,1.06054687 -0.849609,1.63476562 -0.632813,0.56835938 -1.400391,0.56835938 -0.914062,0 -1.59375,-0.76757812 -0.679687,-0.76757808 -0.679687,-2.07421878 0,-1.265625 0.75,-2.0566406 0.755859,-0.7910156 1.810546,-0.7910156 0.791016,0 1.300782,0.421875 0.509765,0.4160156 0.509765,0.8671875 0,0.2226562 -0.146484,0.3632812 -0.140625,0.1347656 -0.398438,0.1347656 -0.345703,0 -0.521484,-0.2226562 -0.09961,-0.1230469 -0.134766,-0.46875 -0.0293,-0.3457031 -0.234375,-0.5273437 -0.205078,-0.1757813 -0.568359,-0.1757813 -0.585937,0 -0.943359,0.4335938 -0.47461,0.5742187 -0.47461,1.5175781 0,0.9609375 0.46875,1.6992187 Q 22.930735,-0.75 23.733469,-0.75 q 0.574219,0 1.03125,-0.3925781 0.322266,-0.2695313 0.626953,-0.9785157 z m 2.280001,-5.0917969 v 1.7636719 h 1.253906 v 0.4101563 h -1.253906 v 3.4804687 q 0,0.52148437 0.146484,0.703125 0.152344,0.18164063 0.386719,0.18164063 0.193359,0 0.375,-0.1171875 0.18164,-0.12304688 0.28125,-0.35742183 h 0.228515 q -0.205078,0.5742187 -0.580078,0.86718745 -0.375,0.28710937 -0.773437,0.28710937 -0.269531,0 -0.527344,-0.14648437 -0.257812,-0.15234375 -0.380859,-0.42773438 -0.123047,-0.28124999 -0.123047,-0.86132807 v -3.609375 h -0.84961 v -0.1933594 q 0.322266,-0.1289063 0.65625,-0.4335938 0.339844,-0.3105468 0.603516,-0.7324218 0.134766,-0.2226563 0.375,-0.8144532 z m 2.679748,3.7851563 q -0.0059,1.1953125 0.580078,1.875 0.585938,0.67968748 1.376953,0.67968748 0.527344,0 0.914063,-0.28710938 0.392578,-0.2929687 0.65625,-0.9960938 l 0.181641,0.1171876 q -0.123047,0.8027343 -0.714844,1.4648437 -0.591797,0.65625 -1.482422,0.65625 -0.966797,0 -1.658203,-0.75 -0.685547,-0.7558594 -0.685547,-2.0273438 0,-1.3769531 0.703125,-2.1445312 0.708984,-0.7734375 1.775391,-0.7734375 0.902343,0 1.482421,0.5976563 0.580079,0.5917968 0.580079,1.5878906 z m 0,-0.3398438 h 2.484375 q -0.0293,-0.515625 -0.123047,-0.7265625 -0.146484,-0.328125 -0.439453,-0.515625 -0.287109,-0.1875 -0.603515,-0.1875 -0.486329,0 -0.873047,0.3808594 -0.38086,0.375 -0.445313,1.0488281 z m 11.984249,1.6464844 q -0.216797,1.06054687 -0.849609,1.63476562 -0.632813,0.56835938 -1.400391,0.56835938 -0.914062,0 -1.59375,-0.76757812 -0.679687,-0.76757808 -0.679687,-2.07421878 0,-1.265625 0.75,-2.0566406 0.755859,-0.7910156 1.810547,-0.7910156 0.791015,0 1.300781,0.421875 0.509766,0.4160156 0.509766,0.8671875 0,0.2226562 -0.146485,0.3632812 -0.140625,0.1347656 -0.398437,0.1347656 -0.345703,0 -0.521485,-0.2226562 -0.09961,-0.1230469 -0.134765,-0.46875 -0.0293,-0.3457031 -0.234375,-0.5273437 -0.205078,-0.1757813 -0.56836,-0.1757813 -0.585937,0 -0.943359,0.4335938 -0.474609,0.5742187 -0.474609,1.5175781 0,0.9609375 0.46875,1.6992187 Q 39.874733,-0.75 40.677467,-0.75 q 0.574219,0 1.03125,-0.3925781 0.322266,-0.2695313 0.626953,-0.9785157 z m 3.322407,-3.4863281 q 1.21875,0 1.957031,0.9257812 0.626953,0.7910156 0.626953,1.8164063 0,0.7207031 -0.345703,1.4589844 -0.345703,0.7382812 -0.955078,1.1132812 -0.603515,0.375 -1.347656,0.375 -1.212891,0 -1.927734,-0.96679688 -0.603516,-0.81445312 -0.603516,-1.82812502 0,-0.7382812 0.363281,-1.4648437 0.369141,-0.7324219 0.966797,-1.078125 0.597656,-0.3515625 1.265625,-0.3515625 z m -0.181641,0.3808594 q -0.310546,0 -0.626953,0.1875 -0.310547,0.1816406 -0.503906,0.6445312 -0.193359,0.4628906 -0.193359,1.1894531 0,1.171875 0.46289,2.0214844 0.46875,0.84960937 1.230469,0.84960937 0.568359,0 0.9375,-0.46874999 0.369141,-0.46874998 0.369141,-1.61132818 0,-1.4296875 -0.615235,-2.2499999 -0.416015,-0.5625 -1.060547,-0.5625 z m 5.150391,0.7617187 q 0.585938,-0.5859375 0.691406,-0.6738281 0.263672,-0.2226563 0.56836,-0.3457031 0.304687,-0.1230469 0.603515,-0.1230469 0.503907,0 0.867188,0.2929687 0.363281,0.2929688 0.486328,0.8496094 0.603516,-0.703125 1.019531,-0.9199219 0.416016,-0.2226562 0.855469,-0.2226562 0.427734,0 0.755859,0.2226562 0.333985,0.2167969 0.527344,0.7148438 0.128906,0.3398437 0.128906,1.0664062 v 2.3085938 q 0,0.50390623 0.07617,0.69140623 0.05859,0.12890624 0.216797,0.22265624 0.158203,0.0878906 0.515625,0.0878906 V 0 H 55.46081 v -0.2109375 h 0.111328 q 0.345703,0 0.539062,-0.13476563 0.134766,-0.09375 0.19336,-0.29882812 0.02344,-0.0996094 0.02344,-0.56835935 v -2.3085938 q 0,-0.65625 -0.158203,-0.9257812 -0.228516,-0.375 -0.732422,-0.375 -0.310547,0 -0.626953,0.1582031 -0.310547,0.1523438 -0.755859,0.5742188 l -0.01172,0.064453 0.01172,0.2519531 v 2.5605469 q 0,0.55078123 0.05859,0.68554685 0.06445,0.13476562 0.234375,0.22851562 0.169922,0.0878906 0.580078,0.0878906 V 0 h -2.71289 v -0.2109375 q 0.445312,0 0.609375,-0.10546875 0.169922,-0.10546875 0.234375,-0.31640625 0.0293,-0.0996094 0.0293,-0.5800781 v -2.3085938 q 0,-0.65625 -0.19336,-0.9433593 -0.257812,-0.375 -0.720703,-0.375 -0.316406,0 -0.626953,0.1699218 -0.486328,0.2578125 -0.75,0.5800782 v 2.8769531 q 0,0.52734373 0.07031,0.68554685 0.07617,0.15820312 0.216796,0.24023437 0.146485,0.0761719 0.585938,0.0761719 V 0 h -2.654297 v -0.2109375 q 0.369141,0 0.515625,-0.0761719 0.146484,-0.0820313 0.222656,-0.25195312 0.07617,-0.17578125 0.07617,-0.67382808 v -2.0507813 q 0,-0.8847656 -0.05273,-1.1425781 -0.04102,-0.1933594 -0.128906,-0.2636719 -0.08789,-0.076172 -0.240235,-0.076172 -0.164062,0 -0.392578,0.087891 l -0.08789,-0.2109375 1.617188,-0.65625 h 0.251953 z m 12.447331,-0.984375 v 3.2519531 q 0,0.9316407 0.04102,1.14257815 0.04687,0.20507813 0.140625,0.28710938 0.09961,0.0820313 0.228516,0.0820313 0.18164,0 0.410156,-0.0996094 l 0.08203,0.20507812 -1.605468,0.66210938 h -0.263672 v -1.13671875 q -0.691407,0.75 -1.054688,0.94335937 -0.363281,0.19335938 -0.767578,0.19335938 -0.451172,0 -0.785156,-0.2578125 Q 59.341736,-0.35742188 59.21283,-0.76757812 59.083923,-1.1777344 59.083923,-1.9277344 v -2.3964843 q 0,-0.3808594 -0.08203,-0.5273438 -0.08203,-0.1464844 -0.246094,-0.2226562 -0.158203,-0.082031 -0.580078,-0.076172 v -0.2167969 h 1.88086 v 3.5917969 q 0,0.75 0.257812,0.98437498 0.263672,0.234375 0.632813,0.234375 0.251953,0 0.568359,-0.15820313 0.322266,-0.15820313 0.761719,-0.60351565 V -4.359375 q 0,-0.4570312 -0.169922,-0.6152344 -0.164063,-0.1640625 -0.691406,-0.1757812 v -0.2167969 z m -0.984375,-2.7773438 -1.728516,2.0214844 H 60.33197 l 0.615235,-2.0214844 z"
       id="text3066"
       clip-path="url(#clipPath3067)"
       transform="matrix(0.35277776,0,0,0.35277776,96.713329,129.57134)"
       aria-label="Delicte comú" />
  </g>
</svg>
